<?xml version="1.0" encoding="UTF-8" standalone="no"?>
<!DOCTYPE svg PUBLIC "-//W3C//DTD SVG 1.1//EN"
 "http://www.w3.org/Graphics/SVG/1.1/DTD/svg11.dtd">
<!-- Generated by graphviz version 2.34.0 (20131105.2002)
 -->
<!-- Title: controllers_diagram Pages: 1 -->
<svg width="501pt" height="292pt"
 viewBox="0.00 0.00 500.90 292.00" xmlns="http://www.w3.org/2000/svg" xmlns:xlink="http://www.w3.org/1999/xlink">
<g id="graph0" class="graph" transform="scale(1 1) rotate(0) translate(4 288)">
<title>controllers_diagram</title>
<polygon fill="white" stroke="white" points="-4,4 -4,-288 496.899,-288 496.899,4 -4,4"/>
<!-- _diagram_info -->
<g id="node1" class="node"><title>_diagram_info</title>
<text text-anchor="start" x="294" y="-267" font-family="Times,serif" font-size="13.00">Controllers diagram</text>
<text text-anchor="start" x="294" y="-251.4" font-family="Times,serif" font-size="13.00">Date: Nov 05 2013 &#45; 15:05</text>
<text text-anchor="start" x="294" y="-235.8" font-family="Times,serif" font-size="13.00">Migration version: 20131105192756</text>
<text text-anchor="start" x="294" y="-220.2" font-family="Times,serif" font-size="13.00">Generated by RailRoady 1.1.1</text>
<text text-anchor="start" x="294" y="-204.6" font-family="Times,serif" font-size="13.00">http://railroady.prestonlee.com</text>
</g>
<!-- ApplicationController -->
<g id="node2" class="node"><title>ApplicationController</title>
<ellipse fill="none" stroke="black" cx="170.395" cy="-79.6272" rx="96.1448" ry="18"/>
<text text-anchor="middle" x="170.395" y="-74.0272" font-family="Times,serif" font-size="14.00">ApplicationController</text>
</g>
<!-- DecksController -->
<g id="node3" class="node"><title>DecksController</title>
<ellipse fill="none" stroke="black" cx="265.522" cy="-38.7008" rx="74.726" ry="18"/>
<text text-anchor="middle" x="265.522" y="-33.1008" font-family="Times,serif" font-size="14.00">DecksController</text>
</g>
<!-- ApplicationController&#45;&gt;DecksController -->
<g id="edge1" class="edge"><title>ApplicationController&#45;&gt;DecksController</title>
<path fill="none" stroke="black" d="M208.813,-63.0988C213.866,-60.9247 219.063,-58.6891 224.162,-56.495"/>
<polyline fill="none" stroke="black" points="228.812,-54.4948 224.219,-56.4708 "/>
</g>
<!-- GamesController -->
<g id="node4" class="node"><title>GamesController</title>
<ellipse fill="none" stroke="black" cx="94.8287" cy="-18" rx="77.5918" ry="18"/>
<text text-anchor="middle" x="94.8287" y="-12.4" font-family="Times,serif" font-size="14.00">GamesController</text>
</g>
<!-- ApplicationController&#45;&gt;GamesController -->
<g id="edge2" class="edge"><title>ApplicationController&#45;&gt;GamesController</title>
<path fill="none" stroke="black" d="M148.538,-61.802C139.613,-54.5235 129.237,-46.0614 119.998,-38.5265"/>
<polyline fill="none" stroke="black" points="116.115,-35.3601 119.99,-38.5202 "/>
</g>
<!-- HandsController -->
<g id="node5" class="node"><title>HandsController</title>
<ellipse fill="none" stroke="black" cx="75.4051" cy="-120.478" rx="75.3104" ry="18"/>
<text text-anchor="middle" x="75.4051" y="-114.878" font-family="Times,serif" font-size="14.00">HandsController</text>
</g>
<!-- ApplicationController&#45;&gt;HandsController -->
<g id="edge3" class="edge"><title>ApplicationController&#45;&gt;HandsController</title>
<path fill="none" stroke="black" d="M131.759,-96.2427C126.905,-98.3302 121.923,-100.473 117.026,-102.579"/>
<polyline fill="none" stroke="black" points="112.165,-104.669 116.758,-102.694 "/>
</g>
<!-- WelcomeController -->
<g id="node6" class="node"><title>WelcomeController</title>
<ellipse fill="none" stroke="black" cx="246.251" cy="-141.021" rx="86.9153" ry="18"/>
<text text-anchor="middle" x="246.251" y="-135.421" font-family="Times,serif" font-size="14.00">WelcomeController</text>
</g>
<!-- ApplicationController&#45;&gt;WelcomeController -->
<g id="edge4" class="edge"><title>ApplicationController&#45;&gt;WelcomeController</title>
<path fill="none" stroke="black" d="M192.336,-97.385C201.06,-104.446 211.165,-112.624 220.252,-119.98"/>
<polyline fill="none" stroke="black" points="224.621,-123.516 220.735,-120.37 "/>
</g>
</g>
</svg>
