<?xml version="1.0" encoding="UTF-8" standalone="no"?>
<!DOCTYPE svg PUBLIC "-//W3C//DTD SVG 1.1//EN"
 "http://www.w3.org/Graphics/SVG/1.1/DTD/svg11.dtd">
<!-- Generated by graphviz version 2.34.0 (20131105.2002)
 -->
<!-- Title: controllers_diagram Pages: 1 -->
<svg width="735pt" height="529pt"
 viewBox="0.00 0.00 734.90 529.26" xmlns="http://www.w3.org/2000/svg" xmlns:xlink="http://www.w3.org/1999/xlink">
<g id="graph0" class="graph" transform="scale(1 1) rotate(0) translate(4 525.258)">
<title>controllers_diagram</title>
<polygon fill="white" stroke="white" points="-4,4 -4,-525.258 730.899,-525.258 730.899,4 -4,4"/>
<!-- _diagram_info -->
<g id="node1" class="node"><title>_diagram_info</title>
<text text-anchor="start" x="528" y="-69" font-family="Times,serif" font-size="13.00">Controllers diagram</text>
<text text-anchor="start" x="528" y="-53.4" font-family="Times,serif" font-size="13.00">Date: Nov 05 2013 &#45; 15:05</text>
<text text-anchor="start" x="528" y="-37.8" font-family="Times,serif" font-size="13.00">Migration version: 20131105192756</text>
<text text-anchor="start" x="528" y="-22.2" font-family="Times,serif" font-size="13.00">Generated by RailRoady 1.1.1</text>
<text text-anchor="start" x="528" y="-6.6" font-family="Times,serif" font-size="13.00">http://railroady.prestonlee.com</text>
</g>
<!-- ApplicationController -->
<g id="node2" class="node"><title>ApplicationController</title>
<path fill="none" stroke="black" d="M166.006,-212.469C166.006,-212.469 344.641,-212.469 344.641,-212.469 350.641,-212.469 356.641,-218.469 356.641,-224.469 356.641,-224.469 356.641,-298.869 356.641,-298.869 356.641,-304.869 350.641,-310.869 344.641,-310.869 344.641,-310.869 166.006,-310.869 166.006,-310.869 160.006,-310.869 154.006,-304.869 154.006,-298.869 154.006,-298.869 154.006,-224.469 154.006,-224.469 154.006,-218.469 160.006,-212.469 166.006,-212.469"/>
<text text-anchor="middle" x="255.323" y="-292.869" font-family="Times,serif" font-size="14.00">ApplicationController</text>
<polyline fill="none" stroke="black" points="154.006,-286.069 356.641,-286.069 "/>
<text text-anchor="start" x="162.006" y="-268.069" font-family="Times,serif" font-size="14.00">_one_time_conditions_valid_74?</text>
<polyline fill="none" stroke="black" points="154.006,-261.269 356.641,-261.269 "/>
<polyline fill="none" stroke="black" points="154.006,-237.269 356.641,-237.269 "/>
<text text-anchor="start" x="162.006" y="-219.269" font-family="Times,serif" font-size="14.00">_layout</text>
</g>
<!-- DecksController -->
<g id="node3" class="node"><title>DecksController</title>
<path fill="none" stroke="black" d="M356.061,-0.5C356.061,-0.5 440.592,-0.5 440.592,-0.5 446.592,-0.5 452.592,-6.5 452.592,-12.5 452.592,-12.5 452.592,-187.7 452.592,-187.7 452.592,-193.7 446.592,-199.7 440.592,-199.7 440.592,-199.7 356.061,-199.7 356.061,-199.7 350.061,-199.7 344.061,-193.7 344.061,-187.7 344.061,-187.7 344.061,-12.5 344.061,-12.5 344.061,-6.5 350.061,-0.5 356.061,-0.5"/>
<text text-anchor="middle" x="398.326" y="-181.7" font-family="Times,serif" font-size="14.00">DecksController</text>
<polyline fill="none" stroke="black" points="344.061,-174.9 452.592,-174.9 "/>
<text text-anchor="start" x="352.061" y="-156.9" font-family="Times,serif" font-size="14.00">create</text>
<text text-anchor="start" x="352.061" y="-140.1" font-family="Times,serif" font-size="14.00">destroy</text>
<text text-anchor="start" x="352.061" y="-123.3" font-family="Times,serif" font-size="14.00">edit</text>
<text text-anchor="start" x="352.061" y="-106.5" font-family="Times,serif" font-size="14.00">index</text>
<text text-anchor="start" x="352.061" y="-89.7" font-family="Times,serif" font-size="14.00">new</text>
<text text-anchor="start" x="352.061" y="-72.9" font-family="Times,serif" font-size="14.00">show</text>
<text text-anchor="start" x="352.061" y="-56.1" font-family="Times,serif" font-size="14.00">update</text>
<polyline fill="none" stroke="black" points="344.061,-49.3 452.592,-49.3 "/>
<polyline fill="none" stroke="black" points="344.061,-25.3 452.592,-25.3 "/>
<text text-anchor="start" x="352.061" y="-7.3" font-family="Times,serif" font-size="14.00">_layout</text>
</g>
<!-- ApplicationController&#45;&gt;DecksController -->
<g id="edge1" class="edge"><title>ApplicationController&#45;&gt;DecksController</title>
<path fill="none" stroke="black" d="M299.006,-212.315C312.106,-197.514 326.681,-181.047 340.542,-165.386"/>
<polyline fill="none" stroke="black" points="344.05,-161.423 340.736,-165.168 "/>
</g>
<!-- GamesController -->
<g id="node4" class="node"><title>GamesController</title>
<path fill="none" stroke="black" d="M12,-18.3441C12,-18.3441 197.122,-18.3441 197.122,-18.3441 203.122,-18.3441 209.122,-24.3441 209.122,-30.3441 209.122,-30.3441 209.122,-171.944 209.122,-171.944 209.122,-177.944 203.122,-183.944 197.122,-183.944 197.122,-183.944 12,-183.944 12,-183.944 6,-183.944 0,-177.944 0,-171.944 0,-171.944 0,-30.3441 0,-30.3441 0,-24.3441 6,-18.3441 12,-18.3441"/>
<text text-anchor="middle" x="104.561" y="-165.944" font-family="Times,serif" font-size="14.00">GamesController</text>
<polyline fill="none" stroke="black" points="0,-159.144 209.122,-159.144 "/>
<text text-anchor="start" x="8" y="-141.144" font-family="Times,serif" font-size="14.00">_one_time_conditions_valid_116?</text>
<text text-anchor="start" x="8" y="-124.344" font-family="Times,serif" font-size="14.00">create</text>
<text text-anchor="start" x="8" y="-107.544" font-family="Times,serif" font-size="14.00">index</text>
<text text-anchor="start" x="8" y="-90.7441" font-family="Times,serif" font-size="14.00">new</text>
<text text-anchor="start" x="8" y="-73.9441" font-family="Times,serif" font-size="14.00">show</text>
<polyline fill="none" stroke="black" points="0,-67.1441 209.122,-67.1441 "/>
<polyline fill="none" stroke="black" points="0,-43.1441 209.122,-43.1441 "/>
<text text-anchor="start" x="8" y="-25.1441" font-family="Times,serif" font-size="14.00">_layout</text>
</g>
<!-- ApplicationController&#45;&gt;GamesController -->
<g id="edge2" class="edge"><title>ApplicationController&#45;&gt;GamesController</title>
<path fill="none" stroke="black" d="M208.86,-212.196C201.647,-204.517 194.019,-196.395 186.301,-188.177"/>
<polyline fill="none" stroke="black" points="182.507,-184.137 185.93,-187.781 "/>
</g>
<!-- HandsController -->
<g id="node5" class="node"><title>HandsController</title>
<path fill="none" stroke="black" d="M61.2374,-321.558C61.2374,-321.558 146.555,-321.558 146.555,-321.558 152.555,-321.558 158.555,-327.558 158.555,-333.558 158.555,-333.558 158.555,-508.758 158.555,-508.758 158.555,-514.758 152.555,-520.758 146.555,-520.758 146.555,-520.758 61.2374,-520.758 61.2374,-520.758 55.2374,-520.758 49.2374,-514.758 49.2374,-508.758 49.2374,-508.758 49.2374,-333.558 49.2374,-333.558 49.2374,-327.558 55.2374,-321.558 61.2374,-321.558"/>
<text text-anchor="middle" x="103.896" y="-502.758" font-family="Times,serif" font-size="14.00">HandsController</text>
<polyline fill="none" stroke="black" points="49.2374,-495.958 158.555,-495.958 "/>
<text text-anchor="start" x="57.2374" y="-477.958" font-family="Times,serif" font-size="14.00">create</text>
<text text-anchor="start" x="57.2374" y="-461.158" font-family="Times,serif" font-size="14.00">destroy</text>
<text text-anchor="start" x="57.2374" y="-444.358" font-family="Times,serif" font-size="14.00">edit</text>
<text text-anchor="start" x="57.2374" y="-427.558" font-family="Times,serif" font-size="14.00">index</text>
<text text-anchor="start" x="57.2374" y="-410.758" font-family="Times,serif" font-size="14.00">new</text>
<text text-anchor="start" x="57.2374" y="-393.958" font-family="Times,serif" font-size="14.00">show</text>
<text text-anchor="start" x="57.2374" y="-377.158" font-family="Times,serif" font-size="14.00">update</text>
<polyline fill="none" stroke="black" points="49.2374,-370.358 158.555,-370.358 "/>
<polyline fill="none" stroke="black" points="49.2374,-346.358 158.555,-346.358 "/>
<text text-anchor="start" x="57.2374" y="-328.358" font-family="Times,serif" font-size="14.00">_layout</text>
</g>
<!-- ApplicationController&#45;&gt;HandsController -->
<g id="edge3" class="edge"><title>ApplicationController&#45;&gt;HandsController</title>
<path fill="none" stroke="black" d="M208.241,-311.258C193.631,-326.645 177.354,-343.789 162.083,-359.873"/>
<polyline fill="none" stroke="black" points="158.637,-363.503 162.079,-359.877 "/>
</g>
<!-- WelcomeController -->
<g id="node6" class="node"><title>WelcomeController</title>
<path fill="none" stroke="black" d="M346.768,-374.215C346.768,-374.215 448.833,-374.215 448.833,-374.215 454.833,-374.215 460.833,-380.215 460.833,-386.215 460.833,-386.215 460.833,-460.615 460.833,-460.615 460.833,-466.615 454.833,-472.615 448.833,-472.615 448.833,-472.615 346.768,-472.615 346.768,-472.615 340.768,-472.615 334.768,-466.615 334.768,-460.615 334.768,-460.615 334.768,-386.215 334.768,-386.215 334.768,-380.215 340.768,-374.215 346.768,-374.215"/>
<text text-anchor="middle" x="397.8" y="-454.615" font-family="Times,serif" font-size="14.00">WelcomeController</text>
<polyline fill="none" stroke="black" points="334.768,-447.815 460.833,-447.815 "/>
<text text-anchor="start" x="342.768" y="-429.815" font-family="Times,serif" font-size="14.00">index</text>
<polyline fill="none" stroke="black" points="334.768,-423.015 460.833,-423.015 "/>
<polyline fill="none" stroke="black" points="334.768,-399.015 460.833,-399.015 "/>
<text text-anchor="start" x="342.768" y="-381.015" font-family="Times,serif" font-size="14.00">_layout</text>
</g>
<!-- ApplicationController&#45;&gt;WelcomeController -->
<g id="edge4" class="edge"><title>ApplicationController&#45;&gt;WelcomeController</title>
<path fill="none" stroke="black" d="M298.845,-311.077C315.34,-329.803 334.184,-351.195 350.971,-370.252"/>
<polyline fill="none" stroke="black" points="354.3,-374.031 350.995,-370.279 "/>
</g>
</g>
</svg>
