<?xml version="1.0" encoding="UTF-8" standalone="no"?>
<!DOCTYPE svg PUBLIC "-//W3C//DTD SVG 1.1//EN"
 "http://www.w3.org/Graphics/SVG/1.1/DTD/svg11.dtd">
<!-- Generated by graphviz version 2.34.0 (20131105.2002)
 -->
<!-- Title: controllers_diagram Pages: 1 -->
<svg width="567pt" height="679pt"
 viewBox="0.00 0.00 566.84 679.00" xmlns="http://www.w3.org/2000/svg" xmlns:xlink="http://www.w3.org/1999/xlink">
<g id="graph0" class="graph" transform="scale(1 1) rotate(0) translate(4 675)">
<title>controllers_diagram</title>
<polygon fill="white" stroke="white" points="-4,4 -4,-675 562.844,-675 562.844,4 -4,4"/>
<!-- _diagram_info -->
<g id="node1" class="node"><title>_diagram_info</title>
<text text-anchor="start" x="8" y="-654" font-family="Times,serif" font-size="13.00">Controllers diagram</text>
<text text-anchor="start" x="8" y="-638.4" font-family="Times,serif" font-size="13.00">Date: Nov 06 2013 &#45; 13:32</text>
<text text-anchor="start" x="8" y="-622.8" font-family="Times,serif" font-size="13.00">Migration version: 20131106182811</text>
<text text-anchor="start" x="8" y="-607.2" font-family="Times,serif" font-size="13.00">Generated by RailRoady 1.1.1</text>
<text text-anchor="start" x="8" y="-591.6" font-family="Times,serif" font-size="13.00">http://railroady.prestonlee.com</text>
</g>
<!-- ApplicationController -->
<g id="node2" class="node"><title>ApplicationController</title>
<path fill="none" stroke="black" d="M208.212,-253.688C208.212,-253.688 386.847,-253.688 386.847,-253.688 392.847,-253.688 398.847,-259.688 398.847,-265.688 398.847,-265.688 398.847,-340.088 398.847,-340.088 398.847,-346.088 392.847,-352.088 386.847,-352.088 386.847,-352.088 208.212,-352.088 208.212,-352.088 202.212,-352.088 196.212,-346.088 196.212,-340.088 196.212,-340.088 196.212,-265.688 196.212,-265.688 196.212,-259.688 202.212,-253.688 208.212,-253.688"/>
<text text-anchor="middle" x="297.529" y="-334.088" font-family="Times,serif" font-size="14.00">ApplicationController</text>
<polyline fill="none" stroke="black" points="196.212,-327.288 398.847,-327.288 "/>
<text text-anchor="start" x="204.212" y="-309.288" font-family="Times,serif" font-size="14.00">_one_time_conditions_valid_74?</text>
<polyline fill="none" stroke="black" points="196.212,-302.488 398.847,-302.488 "/>
<polyline fill="none" stroke="black" points="196.212,-278.488 398.847,-278.488 "/>
<text text-anchor="start" x="204.212" y="-260.488" font-family="Times,serif" font-size="14.00">_layout</text>
</g>
<!-- BlackCardsController -->
<g id="node3" class="node"><title>BlackCardsController</title>
<path fill="none" stroke="black" d="M431.982,-59.3329C431.982,-59.3329 546.844,-59.3329 546.844,-59.3329 552.844,-59.3329 558.844,-65.3329 558.844,-71.3329 558.844,-71.3329 558.844,-246.533 558.844,-246.533 558.844,-252.533 552.844,-258.533 546.844,-258.533 546.844,-258.533 431.982,-258.533 431.982,-258.533 425.982,-258.533 419.982,-252.533 419.982,-246.533 419.982,-246.533 419.982,-71.3329 419.982,-71.3329 419.982,-65.3329 425.982,-59.3329 431.982,-59.3329"/>
<text text-anchor="middle" x="489.413" y="-240.533" font-family="Times,serif" font-size="14.00">BlackCardsController</text>
<polyline fill="none" stroke="black" points="419.982,-233.733 558.844,-233.733 "/>
<text text-anchor="start" x="427.982" y="-215.733" font-family="Times,serif" font-size="14.00">create</text>
<text text-anchor="start" x="427.982" y="-198.933" font-family="Times,serif" font-size="14.00">destroy</text>
<text text-anchor="start" x="427.982" y="-182.133" font-family="Times,serif" font-size="14.00">edit</text>
<text text-anchor="start" x="427.982" y="-165.333" font-family="Times,serif" font-size="14.00">index</text>
<text text-anchor="start" x="427.982" y="-148.533" font-family="Times,serif" font-size="14.00">new</text>
<text text-anchor="start" x="427.982" y="-131.733" font-family="Times,serif" font-size="14.00">show</text>
<text text-anchor="start" x="427.982" y="-114.933" font-family="Times,serif" font-size="14.00">update</text>
<polyline fill="none" stroke="black" points="419.982,-108.133 558.844,-108.133 "/>
<polyline fill="none" stroke="black" points="419.982,-84.1329 558.844,-84.1329 "/>
<text text-anchor="start" x="427.982" y="-66.1329" font-family="Times,serif" font-size="14.00">_layout</text>
</g>
<!-- ApplicationController&#45;&gt;BlackCardsController -->
<g id="edge1" class="edge"><title>ApplicationController&#45;&gt;BlackCardsController</title>
<path fill="none" stroke="black" d="M363.296,-253.548C380.099,-240.943 398.275,-227.306 415.458,-214.415"/>
<polyline fill="none" stroke="black" points="419.804,-211.155 415.804,-214.156 "/>
</g>
<!-- DecksController -->
<g id="node4" class="node"><title>DecksController</title>
<path fill="none" stroke="black" d="M255.513,-0.5C255.513,-0.5 340.044,-0.5 340.044,-0.5 346.044,-0.5 352.044,-6.5 352.044,-12.5 352.044,-12.5 352.044,-187.7 352.044,-187.7 352.044,-193.7 346.044,-199.7 340.044,-199.7 340.044,-199.7 255.513,-199.7 255.513,-199.7 249.513,-199.7 243.513,-193.7 243.513,-187.7 243.513,-187.7 243.513,-12.5 243.513,-12.5 243.513,-6.5 249.513,-0.5 255.513,-0.5"/>
<text text-anchor="middle" x="297.779" y="-181.7" font-family="Times,serif" font-size="14.00">DecksController</text>
<polyline fill="none" stroke="black" points="243.513,-174.9 352.044,-174.9 "/>
<text text-anchor="start" x="251.513" y="-156.9" font-family="Times,serif" font-size="14.00">create</text>
<text text-anchor="start" x="251.513" y="-140.1" font-family="Times,serif" font-size="14.00">destroy</text>
<text text-anchor="start" x="251.513" y="-123.3" font-family="Times,serif" font-size="14.00">edit</text>
<text text-anchor="start" x="251.513" y="-106.5" font-family="Times,serif" font-size="14.00">index</text>
<text text-anchor="start" x="251.513" y="-89.7" font-family="Times,serif" font-size="14.00">new</text>
<text text-anchor="start" x="251.513" y="-72.9" font-family="Times,serif" font-size="14.00">show</text>
<text text-anchor="start" x="251.513" y="-56.1" font-family="Times,serif" font-size="14.00">update</text>
<polyline fill="none" stroke="black" points="243.513,-49.3 352.044,-49.3 "/>
<polyline fill="none" stroke="black" points="243.513,-25.3 352.044,-25.3 "/>
<text text-anchor="start" x="251.513" y="-7.3" font-family="Times,serif" font-size="14.00">_layout</text>
</g>
<!-- ApplicationController&#45;&gt;DecksController -->
<g id="edge2" class="edge"><title>ApplicationController&#45;&gt;DecksController</title>
<path fill="none" stroke="black" d="M297.59,-253.54C297.608,-238.771 297.629,-221.982 297.65,-205.06"/>
<polyline fill="none" stroke="black" points="297.656,-199.806 297.65,-204.806 "/>
</g>
<!-- GamesController -->
<g id="node5" class="node"><title>GamesController</title>
<path fill="none" stroke="black" d="M12,-363.619C12,-363.619 197.635,-363.619 197.635,-363.619 203.635,-363.619 209.635,-369.619 209.635,-375.619 209.635,-375.619 209.635,-517.219 209.635,-517.219 209.635,-523.219 203.635,-529.219 197.635,-529.219 197.635,-529.219 12,-529.219 12,-529.219 6,-529.219 0,-523.219 0,-517.219 0,-517.219 0,-375.619 0,-375.619 0,-369.619 6,-363.619 12,-363.619"/>
<text text-anchor="middle" x="104.817" y="-511.219" font-family="Times,serif" font-size="14.00">GamesController</text>
<polyline fill="none" stroke="black" points="0,-504.419 209.635,-504.419 "/>
<text text-anchor="start" x="8" y="-486.419" font-family="Times,serif" font-size="14.00">_one_time_conditions_valid_148?</text>
<text text-anchor="start" x="8" y="-469.619" font-family="Times,serif" font-size="14.00">create</text>
<text text-anchor="start" x="8" y="-452.819" font-family="Times,serif" font-size="14.00">index</text>
<text text-anchor="start" x="8" y="-436.019" font-family="Times,serif" font-size="14.00">new</text>
<text text-anchor="start" x="8" y="-419.219" font-family="Times,serif" font-size="14.00">show</text>
<polyline fill="none" stroke="black" points="0,-412.419 209.635,-412.419 "/>
<polyline fill="none" stroke="black" points="0,-388.419 209.635,-388.419 "/>
<text text-anchor="start" x="8" y="-370.419" font-family="Times,serif" font-size="14.00">_layout</text>
</g>
<!-- ApplicationController&#45;&gt;GamesController -->
<g id="edge3" class="edge"><title>ApplicationController&#45;&gt;GamesController</title>
<path fill="none" stroke="black" d="M231.209,-352.283C225.547,-356.5 219.732,-360.831 213.853,-365.21"/>
<polyline fill="none" stroke="black" points="209.773,-368.248 213.783,-365.262 "/>
</g>
<!-- HandsController -->
<g id="node6" class="node"><title>HandsController</title>
<path fill="none" stroke="black" d="M446.855,-346.557C446.855,-346.557 532.173,-346.557 532.173,-346.557 538.173,-346.557 544.173,-352.557 544.173,-358.557 544.173,-358.557 544.173,-533.757 544.173,-533.757 544.173,-539.757 538.173,-545.757 532.173,-545.757 532.173,-545.757 446.855,-545.757 446.855,-545.757 440.855,-545.757 434.855,-539.757 434.855,-533.757 434.855,-533.757 434.855,-358.557 434.855,-358.557 434.855,-352.557 440.855,-346.557 446.855,-346.557"/>
<text text-anchor="middle" x="489.514" y="-527.757" font-family="Times,serif" font-size="14.00">HandsController</text>
<polyline fill="none" stroke="black" points="434.855,-520.957 544.173,-520.957 "/>
<text text-anchor="start" x="442.855" y="-502.957" font-family="Times,serif" font-size="14.00">create</text>
<text text-anchor="start" x="442.855" y="-486.157" font-family="Times,serif" font-size="14.00">destroy</text>
<text text-anchor="start" x="442.855" y="-469.357" font-family="Times,serif" font-size="14.00">edit</text>
<text text-anchor="start" x="442.855" y="-452.557" font-family="Times,serif" font-size="14.00">index</text>
<text text-anchor="start" x="442.855" y="-435.757" font-family="Times,serif" font-size="14.00">new</text>
<text text-anchor="start" x="442.855" y="-418.957" font-family="Times,serif" font-size="14.00">show</text>
<text text-anchor="start" x="442.855" y="-402.157" font-family="Times,serif" font-size="14.00">update</text>
<polyline fill="none" stroke="black" points="434.855,-395.357 544.173,-395.357 "/>
<polyline fill="none" stroke="black" points="434.855,-371.357 544.173,-371.357 "/>
<text text-anchor="start" x="442.855" y="-353.357" font-family="Times,serif" font-size="14.00">_layout</text>
</g>
<!-- ApplicationController&#45;&gt;HandsController -->
<g id="edge4" class="edge"><title>ApplicationController&#45;&gt;HandsController</title>
<path fill="none" stroke="black" d="M363.6,-352.193C385.36,-368.432 409.401,-386.372 430.593,-402.187"/>
<polyline fill="none" stroke="black" points="434.792,-405.32 430.785,-402.33 "/>
</g>
<!-- WelcomeController -->
<g id="node7" class="node"><title>WelcomeController</title>
<path fill="none" stroke="black" d="M246.94,-456.05C246.94,-456.05 349.006,-456.05 349.006,-456.05 355.006,-456.05 361.006,-462.05 361.006,-468.05 361.006,-468.05 361.006,-542.45 361.006,-542.45 361.006,-548.45 355.006,-554.45 349.006,-554.45 349.006,-554.45 246.94,-554.45 246.94,-554.45 240.94,-554.45 234.94,-548.45 234.94,-542.45 234.94,-542.45 234.94,-468.05 234.94,-468.05 234.94,-462.05 240.94,-456.05 246.94,-456.05"/>
<text text-anchor="middle" x="297.973" y="-536.45" font-family="Times,serif" font-size="14.00">WelcomeController</text>
<polyline fill="none" stroke="black" points="234.94,-529.65 361.006,-529.65 "/>
<text text-anchor="start" x="242.94" y="-511.65" font-family="Times,serif" font-size="14.00">index</text>
<polyline fill="none" stroke="black" points="234.94,-504.85 361.006,-504.85 "/>
<polyline fill="none" stroke="black" points="234.94,-480.85 361.006,-480.85 "/>
<text text-anchor="start" x="242.94" y="-462.85" font-family="Times,serif" font-size="14.00">_layout</text>
</g>
<!-- ApplicationController&#45;&gt;WelcomeController -->
<g id="edge5" class="edge"><title>ApplicationController&#45;&gt;WelcomeController</title>
<path fill="none" stroke="black" d="M297.637,-352.133C297.703,-381.882 297.786,-419.85 297.853,-450.535"/>
<polyline fill="none" stroke="black" points="297.865,-455.785 297.854,-450.785 "/>
</g>
<!-- WhiteCardsController -->
<g id="node8" class="node"><title>WhiteCardsController</title>
<path fill="none" stroke="black" d="M46.5803,-59.2453C46.5803,-59.2453 162.994,-59.2453 162.994,-59.2453 168.994,-59.2453 174.994,-65.2453 174.994,-71.2453 174.994,-71.2453 174.994,-246.445 174.994,-246.445 174.994,-252.445 168.994,-258.445 162.994,-258.445 162.994,-258.445 46.5803,-258.445 46.5803,-258.445 40.5803,-258.445 34.5803,-252.445 34.5803,-246.445 34.5803,-246.445 34.5803,-71.2453 34.5803,-71.2453 34.5803,-65.2453 40.5803,-59.2453 46.5803,-59.2453"/>
<text text-anchor="middle" x="104.787" y="-240.445" font-family="Times,serif" font-size="14.00">WhiteCardsController</text>
<polyline fill="none" stroke="black" points="34.5803,-233.645 174.994,-233.645 "/>
<text text-anchor="start" x="42.5803" y="-215.645" font-family="Times,serif" font-size="14.00">create</text>
<text text-anchor="start" x="42.5803" y="-198.845" font-family="Times,serif" font-size="14.00">destroy</text>
<text text-anchor="start" x="42.5803" y="-182.045" font-family="Times,serif" font-size="14.00">edit</text>
<text text-anchor="start" x="42.5803" y="-165.245" font-family="Times,serif" font-size="14.00">index</text>
<text text-anchor="start" x="42.5803" y="-148.445" font-family="Times,serif" font-size="14.00">new</text>
<text text-anchor="start" x="42.5803" y="-131.645" font-family="Times,serif" font-size="14.00">show</text>
<text text-anchor="start" x="42.5803" y="-114.845" font-family="Times,serif" font-size="14.00">update</text>
<polyline fill="none" stroke="black" points="34.5803,-108.045 174.994,-108.045 "/>
<polyline fill="none" stroke="black" points="34.5803,-84.0453 174.994,-84.0453 "/>
<text text-anchor="start" x="42.5803" y="-66.0453" font-family="Times,serif" font-size="14.00">_layout</text>
</g>
<!-- ApplicationController&#45;&gt;WhiteCardsController -->
<g id="edge6" class="edge"><title>ApplicationController&#45;&gt;WhiteCardsController</title>
<path fill="none" stroke="black" d="M231.468,-253.518C214.691,-240.98 196.55,-227.422 179.381,-214.592"/>
<polyline fill="none" stroke="black" points="175.039,-211.347 179.044,-214.34 "/>
</g>
</g>
</svg>
