<?xml version="1.0" encoding="UTF-8" standalone="no"?>
<!DOCTYPE svg PUBLIC "-//W3C//DTD SVG 1.1//EN"
 "http://www.w3.org/Graphics/SVG/1.1/DTD/svg11.dtd">
<!-- Generated by graphviz version 2.34.0 (20131105.2002)
 -->
<!-- Title: controllers_diagram Pages: 1 -->
<svg width="722pt" height="467pt"
 viewBox="0.00 0.00 721.90 466.59" xmlns="http://www.w3.org/2000/svg" xmlns:xlink="http://www.w3.org/1999/xlink">
<g id="graph0" class="graph" transform="scale(1 1) rotate(0) translate(4 462.588)">
<title>controllers_diagram</title>
<polygon fill="white" stroke="white" points="-4,4 -4,-462.588 717.899,-462.588 717.899,4 -4,4"/>
<!-- _diagram_info -->
<g id="node1" class="node"><title>_diagram_info</title>
<text text-anchor="start" x="515" y="-303" font-family="Times,serif" font-size="13.00">Controllers diagram</text>
<text text-anchor="start" x="515" y="-287.4" font-family="Times,serif" font-size="13.00">Date: Nov 24 2013 &#45; 02:57</text>
<text text-anchor="start" x="515" y="-271.8" font-family="Times,serif" font-size="13.00">Migration version: 20131124045350</text>
<text text-anchor="start" x="515" y="-256.2" font-family="Times,serif" font-size="13.00">Generated by RailRoady 1.1.1</text>
<text text-anchor="start" x="515" y="-240.6" font-family="Times,serif" font-size="13.00">http://railroady.prestonlee.com</text>
</g>
<!-- ApplicationController -->
<g id="node2" class="node"><title>ApplicationController</title>
<path fill="none" stroke="black" d="M121.714,-197.952C121.714,-197.952 300.349,-197.952 300.349,-197.952 306.349,-197.952 312.349,-203.952 312.349,-209.952 312.349,-209.952 312.349,-284.352 312.349,-284.352 312.349,-290.352 306.349,-296.352 300.349,-296.352 300.349,-296.352 121.714,-296.352 121.714,-296.352 115.714,-296.352 109.714,-290.352 109.714,-284.352 109.714,-284.352 109.714,-209.952 109.714,-209.952 109.714,-203.952 115.714,-197.952 121.714,-197.952"/>
<text text-anchor="middle" x="211.032" y="-278.352" font-family="Times,serif" font-size="14.00">ApplicationController</text>
<polyline fill="none" stroke="black" points="109.714,-271.552 312.349,-271.552 "/>
<text text-anchor="start" x="117.714" y="-253.552" font-family="Times,serif" font-size="14.00">_one_time_conditions_valid_74?</text>
<polyline fill="none" stroke="black" points="109.714,-246.752 312.349,-246.752 "/>
<polyline fill="none" stroke="black" points="109.714,-222.752 312.349,-222.752 "/>
<text text-anchor="start" x="117.714" y="-204.752" font-family="Times,serif" font-size="14.00">_layout</text>
</g>
<!-- GamesController -->
<g id="node3" class="node"><title>GamesController</title>
<path fill="none" stroke="black" d="M278.932,-1.87351C278.932,-1.87351 464.567,-1.87351 464.567,-1.87351 470.567,-1.87351 476.567,-7.87351 476.567,-13.8735 476.567,-13.8735 476.567,-172.274 476.567,-172.274 476.567,-178.274 470.567,-184.274 464.567,-184.274 464.567,-184.274 278.932,-184.274 278.932,-184.274 272.932,-184.274 266.932,-178.274 266.932,-172.274 266.932,-172.274 266.932,-13.8735 266.932,-13.8735 266.932,-7.87351 272.932,-1.87351 278.932,-1.87351"/>
<text text-anchor="middle" x="371.749" y="-166.274" font-family="Times,serif" font-size="14.00">GamesController</text>
<polyline fill="none" stroke="black" points="266.932,-159.474 476.567,-159.474 "/>
<text text-anchor="start" x="274.932" y="-141.474" font-family="Times,serif" font-size="14.00">_one_time_conditions_valid_122?</text>
<text text-anchor="start" x="274.932" y="-124.674" font-family="Times,serif" font-size="14.00">create</text>
<text text-anchor="start" x="274.932" y="-107.874" font-family="Times,serif" font-size="14.00">hand</text>
<text text-anchor="start" x="274.932" y="-91.0735" font-family="Times,serif" font-size="14.00">index</text>
<text text-anchor="start" x="274.932" y="-74.2735" font-family="Times,serif" font-size="14.00">new</text>
<text text-anchor="start" x="274.932" y="-57.4735" font-family="Times,serif" font-size="14.00">show</text>
<polyline fill="none" stroke="black" points="266.932,-50.6735 476.567,-50.6735 "/>
<polyline fill="none" stroke="black" points="266.932,-26.6735 476.567,-26.6735 "/>
<text text-anchor="start" x="274.932" y="-8.67351" font-family="Times,serif" font-size="14.00">_layout</text>
</g>
<!-- ApplicationController&#45;&gt;GamesController -->
<g id="edge1" class="edge"><title>ApplicationController&#45;&gt;GamesController</title>
<path fill="none" stroke="black" d="M262.769,-197.553C266,-194.454 269.303,-191.288 272.652,-188.077"/>
<polyline fill="none" stroke="black" points="276.603,-184.29 272.993,-187.75 "/>
</g>
<!-- HandsController -->
<g id="node4" class="node"><title>HandsController</title>
<path fill="none" stroke="black" d="M12.6571,-0.5C12.6571,-0.5 97.9744,-0.5 97.9744,-0.5 103.974,-0.5 109.974,-6.5 109.974,-12.5 109.974,-12.5 109.974,-170.9 109.974,-170.9 109.974,-176.9 103.974,-182.9 97.9744,-182.9 97.9744,-182.9 12.6571,-182.9 12.6571,-182.9 6.65706,-182.9 0.657062,-176.9 0.657062,-170.9 0.657062,-170.9 0.657062,-12.5 0.657062,-12.5 0.657062,-6.5 6.65706,-0.5 12.6571,-0.5"/>
<text text-anchor="middle" x="55.3158" y="-164.9" font-family="Times,serif" font-size="14.00">HandsController</text>
<polyline fill="none" stroke="black" points="0.657062,-158.1 109.974,-158.1 "/>
<text text-anchor="start" x="8.65706" y="-140.1" font-family="Times,serif" font-size="14.00">create</text>
<text text-anchor="start" x="8.65706" y="-123.3" font-family="Times,serif" font-size="14.00">destroy</text>
<text text-anchor="start" x="8.65706" y="-106.5" font-family="Times,serif" font-size="14.00">index</text>
<text text-anchor="start" x="8.65706" y="-89.7" font-family="Times,serif" font-size="14.00">new</text>
<text text-anchor="start" x="8.65706" y="-72.9" font-family="Times,serif" font-size="14.00">show</text>
<text text-anchor="start" x="8.65706" y="-56.1" font-family="Times,serif" font-size="14.00">update</text>
<polyline fill="none" stroke="black" points="0.657062,-49.3 109.974,-49.3 "/>
<polyline fill="none" stroke="black" points="0.657062,-25.3 109.974,-25.3 "/>
<text text-anchor="start" x="8.65706" y="-7.3" font-family="Times,serif" font-size="14.00">_layout</text>
</g>
<!-- ApplicationController&#45;&gt;HandsController -->
<g id="edge2" class="edge"><title>ApplicationController&#45;&gt;HandsController</title>
<path fill="none" stroke="black" d="M161.334,-197.539C146.318,-182.549 129.688,-165.946 114.137,-150.421"/>
<polyline fill="none" stroke="black" points="110.208,-146.499 113.746,-150.032 "/>
</g>
<!-- UsersController -->
<g id="node5" class="node"><title>UsersController</title>
<path fill="none" stroke="black" d="M12,-326.088C12,-326.088 93.4277,-326.088 93.4277,-326.088 99.4277,-326.088 105.428,-332.088 105.428,-338.088 105.428,-338.088 105.428,-446.088 105.428,-446.088 105.428,-452.088 99.4277,-458.088 93.4277,-458.088 93.4277,-458.088 12,-458.088 12,-458.088 6,-458.088 0,-452.088 0,-446.088 0,-446.088 0,-338.088 0,-338.088 0,-332.088 6,-326.088 12,-326.088"/>
<text text-anchor="middle" x="52.7139" y="-440.088" font-family="Times,serif" font-size="14.00">UsersController</text>
<polyline fill="none" stroke="black" points="0,-433.288 105.428,-433.288 "/>
<text text-anchor="start" x="8" y="-415.288" font-family="Times,serif" font-size="14.00">hand</text>
<text text-anchor="start" x="8" y="-398.488" font-family="Times,serif" font-size="14.00">index</text>
<text text-anchor="start" x="8" y="-381.688" font-family="Times,serif" font-size="14.00">show</text>
<polyline fill="none" stroke="black" points="0,-374.888 105.428,-374.888 "/>
<polyline fill="none" stroke="black" points="0,-350.888 105.428,-350.888 "/>
<text text-anchor="start" x="8" y="-332.888" font-family="Times,serif" font-size="14.00">_layout</text>
</g>
<!-- ApplicationController&#45;&gt;UsersController -->
<g id="edge3" class="edge"><title>ApplicationController&#45;&gt;UsersController</title>
<path fill="none" stroke="black" d="M156.991,-296.625C141.631,-310.687 124.864,-326.037 109.354,-340.235"/>
<polyline fill="none" stroke="black" points="105.44,-343.818 109.128,-340.442 "/>
</g>
<!-- WelcomeController -->
<g id="node6" class="node"><title>WelcomeController</title>
<path fill="none" stroke="black" d="M321.978,-342.707C321.978,-342.707 424.044,-342.707 424.044,-342.707 430.044,-342.707 436.044,-348.707 436.044,-354.707 436.044,-354.707 436.044,-429.107 436.044,-429.107 436.044,-435.107 430.044,-441.107 424.044,-441.107 424.044,-441.107 321.978,-441.107 321.978,-441.107 315.978,-441.107 309.978,-435.107 309.978,-429.107 309.978,-429.107 309.978,-354.707 309.978,-354.707 309.978,-348.707 315.978,-342.707 321.978,-342.707"/>
<text text-anchor="middle" x="373.011" y="-423.107" font-family="Times,serif" font-size="14.00">WelcomeController</text>
<polyline fill="none" stroke="black" points="309.978,-416.307 436.044,-416.307 "/>
<text text-anchor="start" x="317.978" y="-398.307" font-family="Times,serif" font-size="14.00">index</text>
<polyline fill="none" stroke="black" points="309.978,-391.507 436.044,-391.507 "/>
<polyline fill="none" stroke="black" points="309.978,-367.507 436.044,-367.507 "/>
<text text-anchor="start" x="317.978" y="-349.507" font-family="Times,serif" font-size="14.00">_layout</text>
</g>
<!-- ApplicationController&#45;&gt;WelcomeController -->
<g id="edge4" class="edge"><title>ApplicationController&#45;&gt;WelcomeController</title>
<path fill="none" stroke="black" d="M266.323,-296.564C281.615,-310.23 298.271,-325.115 313.778,-338.973"/>
<polyline fill="none" stroke="black" points="317.694,-342.472 313.966,-339.141 "/>
</g>
</g>
</svg>
