<?xml version="1.0" encoding="UTF-8" standalone="no"?>
<!DOCTYPE svg PUBLIC "-//W3C//DTD SVG 1.1//EN"
 "http://www.w3.org/Graphics/SVG/1.1/DTD/svg11.dtd">
<!-- Generated by graphviz version 2.34.0 (20131105.2002)
 -->
<!-- Title: controllers_diagram Pages: 1 -->
<svg width="743pt" height="523pt"
 viewBox="0.00 0.00 742.90 523.35" xmlns="http://www.w3.org/2000/svg" xmlns:xlink="http://www.w3.org/1999/xlink">
<g id="graph0" class="graph" transform="scale(1 1) rotate(0) translate(4 519.355)">
<title>controllers_diagram</title>
<polygon fill="white" stroke="white" points="-4,4 -4,-519.355 738.899,-519.355 738.899,4 -4,4"/>
<!-- _diagram_info -->
<g id="node1" class="node"><title>_diagram_info</title>
<text text-anchor="start" x="536" y="-309" font-family="Times,serif" font-size="13.00">Controllers diagram</text>
<text text-anchor="start" x="536" y="-293.4" font-family="Times,serif" font-size="13.00">Date: Jan 14 2014 &#45; 23:21</text>
<text text-anchor="start" x="536" y="-277.8" font-family="Times,serif" font-size="13.00">Migration version: 20140114042053</text>
<text text-anchor="start" x="536" y="-262.2" font-family="Times,serif" font-size="13.00">Generated by RailRoady 1.1.1</text>
<text text-anchor="start" x="536" y="-246.6" font-family="Times,serif" font-size="13.00">http://railroady.prestonlee.com</text>
</g>
<!-- ApplicationController -->
<g id="node2" class="node"><title>ApplicationController</title>
<path fill="none" stroke="black" d="M262.5,-147.458C262.5,-147.458 441.135,-147.458 441.135,-147.458 447.135,-147.458 453.135,-153.458 453.135,-159.458 453.135,-159.458 453.135,-233.858 453.135,-233.858 453.135,-239.858 447.135,-245.858 441.135,-245.858 441.135,-245.858 262.5,-245.858 262.5,-245.858 256.5,-245.858 250.5,-239.858 250.5,-233.858 250.5,-233.858 250.5,-159.458 250.5,-159.458 250.5,-153.458 256.5,-147.458 262.5,-147.458"/>
<text text-anchor="middle" x="351.817" y="-227.858" font-family="Times,serif" font-size="14.00">ApplicationController</text>
<polyline fill="none" stroke="black" points="250.5,-221.058 453.135,-221.058 "/>
<text text-anchor="start" x="258.5" y="-203.058" font-family="Times,serif" font-size="14.00">_one_time_conditions_valid_94?</text>
<polyline fill="none" stroke="black" points="250.5,-196.258 453.135,-196.258 "/>
<polyline fill="none" stroke="black" points="250.5,-172.258 453.135,-172.258 "/>
<text text-anchor="start" x="258.5" y="-154.258" font-family="Times,serif" font-size="14.00">_layout</text>
</g>
<!-- GamesController -->
<g id="node3" class="node"><title>GamesController</title>
<path fill="none" stroke="black" d="M475.506,-0.5C475.506,-0.5 661.14,-0.5 661.14,-0.5 667.14,-0.5 673.14,-6.5 673.14,-12.5 673.14,-12.5 673.14,-170.9 673.14,-170.9 673.14,-176.9 667.14,-182.9 661.14,-182.9 661.14,-182.9 475.506,-182.9 475.506,-182.9 469.506,-182.9 463.506,-176.9 463.506,-170.9 463.506,-170.9 463.506,-12.5 463.506,-12.5 463.506,-6.5 469.506,-0.5 475.506,-0.5"/>
<text text-anchor="middle" x="568.323" y="-164.9" font-family="Times,serif" font-size="14.00">GamesController</text>
<polyline fill="none" stroke="black" points="463.506,-158.1 673.14,-158.1 "/>
<text text-anchor="start" x="471.506" y="-140.1" font-family="Times,serif" font-size="14.00">_one_time_conditions_valid_162?</text>
<text text-anchor="start" x="471.506" y="-123.3" font-family="Times,serif" font-size="14.00">create</text>
<text text-anchor="start" x="471.506" y="-106.5" font-family="Times,serif" font-size="14.00">hand</text>
<text text-anchor="start" x="471.506" y="-89.7" font-family="Times,serif" font-size="14.00">index</text>
<text text-anchor="start" x="471.506" y="-72.9" font-family="Times,serif" font-size="14.00">new</text>
<text text-anchor="start" x="471.506" y="-56.1" font-family="Times,serif" font-size="14.00">show</text>
<polyline fill="none" stroke="black" points="463.506,-49.3 673.14,-49.3 "/>
<polyline fill="none" stroke="black" points="463.506,-25.3 673.14,-25.3 "/>
<text text-anchor="start" x="471.506" y="-7.3" font-family="Times,serif" font-size="14.00">_layout</text>
</g>
<!-- ApplicationController&#45;&gt;GamesController -->
<g id="edge1" class="edge"><title>ApplicationController&#45;&gt;GamesController</title>
<path fill="none" stroke="black" d="M453.414,-147.406C455.165,-146.557 456.918,-145.707 458.672,-144.857"/>
<polyline fill="none" stroke="black" points="463.314,-142.606 458.815,-144.788 "/>
</g>
<!-- HandsController -->
<g id="node4" class="node"><title>HandsController</title>
<path fill="none" stroke="black" d="M41.9471,-17.0343C41.9471,-17.0343 227.582,-17.0343 227.582,-17.0343 233.582,-17.0343 239.582,-23.0343 239.582,-29.0343 239.582,-29.0343 239.582,-153.834 239.582,-153.834 239.582,-159.834 233.582,-165.834 227.582,-165.834 227.582,-165.834 41.9471,-165.834 41.9471,-165.834 35.9471,-165.834 29.9471,-159.834 29.9471,-153.834 29.9471,-153.834 29.9471,-29.0343 29.9471,-29.0343 29.9471,-23.0343 35.9471,-17.0343 41.9471,-17.0343"/>
<text text-anchor="middle" x="134.764" y="-147.834" font-family="Times,serif" font-size="14.00">HandsController</text>
<polyline fill="none" stroke="black" points="29.9471,-141.034 239.582,-141.034 "/>
<text text-anchor="start" x="37.9471" y="-123.034" font-family="Times,serif" font-size="14.00">_one_time_conditions_valid_188?</text>
<text text-anchor="start" x="37.9471" y="-106.234" font-family="Times,serif" font-size="14.00">create</text>
<text text-anchor="start" x="37.9471" y="-89.4343" font-family="Times,serif" font-size="14.00">destroy</text>
<text text-anchor="start" x="37.9471" y="-72.6343" font-family="Times,serif" font-size="14.00">show</text>
<polyline fill="none" stroke="black" points="29.9471,-65.8343 239.582,-65.8343 "/>
<polyline fill="none" stroke="black" points="29.9471,-41.8343 239.582,-41.8343 "/>
<text text-anchor="start" x="37.9471" y="-23.8343" font-family="Times,serif" font-size="14.00">_layout</text>
</g>
<!-- ApplicationController&#45;&gt;HandsController -->
<g id="edge2" class="edge"><title>ApplicationController&#45;&gt;HandsController</title>
<path fill="none" stroke="black" d="M250.282,-147.435C248.296,-146.472 246.306,-145.508 244.317,-144.544"/>
<polyline fill="none" stroke="black" points="239.675,-142.293 244.174,-144.474 "/>
</g>
<!-- SubmissionsController -->
<g id="node5" class="node"><title>SubmissionsController</title>
<path fill="none" stroke="black" d="M12,-330.343C12,-330.343 197.635,-330.343 197.635,-330.343 203.635,-330.343 209.635,-336.343 209.635,-342.343 209.635,-342.343 209.635,-483.943 209.635,-483.943 209.635,-489.943 203.635,-495.943 197.635,-495.943 197.635,-495.943 12,-495.943 12,-495.943 6,-495.943 0,-489.943 0,-483.943 0,-483.943 0,-342.343 0,-342.343 0,-336.343 6,-330.343 12,-330.343"/>
<text text-anchor="middle" x="104.817" y="-477.943" font-family="Times,serif" font-size="14.00">SubmissionsController</text>
<polyline fill="none" stroke="black" points="0,-471.143 209.635,-471.143 "/>
<text text-anchor="start" x="8" y="-453.143" font-family="Times,serif" font-size="14.00">_one_time_conditions_valid_196?</text>
<text text-anchor="start" x="8" y="-436.343" font-family="Times,serif" font-size="14.00">create</text>
<text text-anchor="start" x="8" y="-419.543" font-family="Times,serif" font-size="14.00">index</text>
<text text-anchor="start" x="8" y="-402.743" font-family="Times,serif" font-size="14.00">show</text>
<text text-anchor="start" x="8" y="-385.943" font-family="Times,serif" font-size="14.00">submit</text>
<polyline fill="none" stroke="black" points="0,-379.143 209.635,-379.143 "/>
<polyline fill="none" stroke="black" points="0,-355.143 209.635,-355.143 "/>
<text text-anchor="start" x="8" y="-337.143" font-family="Times,serif" font-size="14.00">_layout</text>
</g>
<!-- ApplicationController&#45;&gt;SubmissionsController -->
<g id="edge3" class="edge"><title>ApplicationController&#45;&gt;SubmissionsController</title>
<path fill="none" stroke="black" d="M295.46,-246.053C268.233,-269.916 234.75,-299.262 203.483,-326.667"/>
<polyline fill="none" stroke="black" points="199.681,-329.999 203.442,-326.703 "/>
</g>
<!-- UsersController -->
<g id="node6" class="node"><title>UsersController</title>
<path fill="none" stroke="black" d="M556.238,-347.939C556.238,-347.939 637.666,-347.939 637.666,-347.939 643.666,-347.939 649.666,-353.939 649.666,-359.939 649.666,-359.939 649.666,-467.939 649.666,-467.939 649.666,-473.939 643.666,-479.939 637.666,-479.939 637.666,-479.939 556.238,-479.939 556.238,-479.939 550.238,-479.939 544.238,-473.939 544.238,-467.939 544.238,-467.939 544.238,-359.939 544.238,-359.939 544.238,-353.939 550.238,-347.939 556.238,-347.939"/>
<text text-anchor="middle" x="596.952" y="-461.939" font-family="Times,serif" font-size="14.00">UsersController</text>
<polyline fill="none" stroke="black" points="544.238,-455.139 649.666,-455.139 "/>
<text text-anchor="start" x="552.238" y="-437.139" font-family="Times,serif" font-size="14.00">hand</text>
<text text-anchor="start" x="552.238" y="-420.339" font-family="Times,serif" font-size="14.00">index</text>
<text text-anchor="start" x="552.238" y="-403.539" font-family="Times,serif" font-size="14.00">show</text>
<polyline fill="none" stroke="black" points="544.238,-396.739 649.666,-396.739 "/>
<polyline fill="none" stroke="black" points="544.238,-372.739 649.666,-372.739 "/>
<text text-anchor="start" x="552.238" y="-354.739" font-family="Times,serif" font-size="14.00">_layout</text>
</g>
<!-- ApplicationController&#45;&gt;UsersController -->
<g id="edge4" class="edge"><title>ApplicationController&#45;&gt;UsersController</title>
<path fill="none" stroke="black" d="M407.442,-245.963C447.127,-281.138 500.319,-328.286 540.246,-363.676"/>
<polyline fill="none" stroke="black" points="544.068,-367.064 540.326,-363.747 "/>
</g>
<!-- WelcomeController -->
<g id="node7" class="node"><title>WelcomeController</title>
<path fill="none" stroke="black" d="M299.241,-416.455C299.241,-416.455 401.306,-416.455 401.306,-416.455 407.306,-416.455 413.306,-422.455 413.306,-428.455 413.306,-428.455 413.306,-502.855 413.306,-502.855 413.306,-508.855 407.306,-514.855 401.306,-514.855 401.306,-514.855 299.241,-514.855 299.241,-514.855 293.241,-514.855 287.241,-508.855 287.241,-502.855 287.241,-502.855 287.241,-428.455 287.241,-428.455 287.241,-422.455 293.241,-416.455 299.241,-416.455"/>
<text text-anchor="middle" x="350.274" y="-496.855" font-family="Times,serif" font-size="14.00">WelcomeController</text>
<polyline fill="none" stroke="black" points="287.241,-490.055 413.306,-490.055 "/>
<text text-anchor="start" x="295.241" y="-472.055" font-family="Times,serif" font-size="14.00">index</text>
<polyline fill="none" stroke="black" points="287.241,-465.255 413.306,-465.255 "/>
<polyline fill="none" stroke="black" points="287.241,-441.255 413.306,-441.255 "/>
<text text-anchor="start" x="295.241" y="-423.255" font-family="Times,serif" font-size="14.00">_layout</text>
</g>
<!-- ApplicationController&#45;&gt;WelcomeController -->
<g id="edge5" class="edge"><title>ApplicationController&#45;&gt;WelcomeController</title>
<path fill="none" stroke="black" d="M351.534,-245.996C351.266,-292.679 350.865,-362.615 350.588,-410.976"/>
<polyline fill="none" stroke="black" points="350.558,-416.175 350.586,-411.175 "/>
</g>
</g>
</svg>
