<?xml version="1.0" encoding="UTF-8" standalone="no"?>
<!DOCTYPE svg PUBLIC "-//W3C//DTD SVG 1.1//EN"
 "http://www.w3.org/Graphics/SVG/1.1/DTD/svg11.dtd">
<!-- Generated by graphviz version 2.34.0 (20131105.2002)
 -->
<!-- Title: controllers_diagram Pages: 1 -->
<svg width="567pt" height="679pt"
 viewBox="0.00 0.00 566.59 679.00" xmlns="http://www.w3.org/2000/svg" xmlns:xlink="http://www.w3.org/1999/xlink">
<g id="graph0" class="graph" transform="scale(1 1) rotate(0) translate(4 675)">
<title>controllers_diagram</title>
<polygon fill="white" stroke="white" points="-4,4 -4,-675 562.588,-675 562.588,4 -4,4"/>
<!-- _diagram_info -->
<g id="node1" class="node"><title>_diagram_info</title>
<text text-anchor="start" x="8" y="-654" font-family="Times,serif" font-size="13.00">Controllers diagram</text>
<text text-anchor="start" x="8" y="-638.4" font-family="Times,serif" font-size="13.00">Date: Nov 05 2013 &#45; 15:15</text>
<text text-anchor="start" x="8" y="-622.8" font-family="Times,serif" font-size="13.00">Migration version: 20131105201342</text>
<text text-anchor="start" x="8" y="-607.2" font-family="Times,serif" font-size="13.00">Generated by RailRoady 1.1.1</text>
<text text-anchor="start" x="8" y="-591.6" font-family="Times,serif" font-size="13.00">http://railroady.prestonlee.com</text>
</g>
<!-- ApplicationController -->
<g id="node2" class="node"><title>ApplicationController</title>
<path fill="none" stroke="black" d="M207.956,-253.688C207.956,-253.688 386.59,-253.688 386.59,-253.688 392.59,-253.688 398.59,-259.688 398.59,-265.688 398.59,-265.688 398.59,-340.088 398.59,-340.088 398.59,-346.088 392.59,-352.088 386.59,-352.088 386.59,-352.088 207.956,-352.088 207.956,-352.088 201.956,-352.088 195.956,-346.088 195.956,-340.088 195.956,-340.088 195.956,-265.688 195.956,-265.688 195.956,-259.688 201.956,-253.688 207.956,-253.688"/>
<text text-anchor="middle" x="297.273" y="-334.088" font-family="Times,serif" font-size="14.00">ApplicationController</text>
<polyline fill="none" stroke="black" points="195.956,-327.288 398.59,-327.288 "/>
<text text-anchor="start" x="203.956" y="-309.288" font-family="Times,serif" font-size="14.00">_one_time_conditions_valid_74?</text>
<polyline fill="none" stroke="black" points="195.956,-302.488 398.59,-302.488 "/>
<polyline fill="none" stroke="black" points="195.956,-278.488 398.59,-278.488 "/>
<text text-anchor="start" x="203.956" y="-260.488" font-family="Times,serif" font-size="14.00">_layout</text>
</g>
<!-- BlackCardsController -->
<g id="node3" class="node"><title>BlackCardsController</title>
<path fill="none" stroke="black" d="M431.725,-59.3329C431.725,-59.3329 546.588,-59.3329 546.588,-59.3329 552.588,-59.3329 558.588,-65.3329 558.588,-71.3329 558.588,-71.3329 558.588,-246.533 558.588,-246.533 558.588,-252.533 552.588,-258.533 546.588,-258.533 546.588,-258.533 431.725,-258.533 431.725,-258.533 425.725,-258.533 419.725,-252.533 419.725,-246.533 419.725,-246.533 419.725,-71.3329 419.725,-71.3329 419.725,-65.3329 425.725,-59.3329 431.725,-59.3329"/>
<text text-anchor="middle" x="489.156" y="-240.533" font-family="Times,serif" font-size="14.00">BlackCardsController</text>
<polyline fill="none" stroke="black" points="419.725,-233.733 558.588,-233.733 "/>
<text text-anchor="start" x="427.725" y="-215.733" font-family="Times,serif" font-size="14.00">create</text>
<text text-anchor="start" x="427.725" y="-198.933" font-family="Times,serif" font-size="14.00">destroy</text>
<text text-anchor="start" x="427.725" y="-182.133" font-family="Times,serif" font-size="14.00">edit</text>
<text text-anchor="start" x="427.725" y="-165.333" font-family="Times,serif" font-size="14.00">index</text>
<text text-anchor="start" x="427.725" y="-148.533" font-family="Times,serif" font-size="14.00">new</text>
<text text-anchor="start" x="427.725" y="-131.733" font-family="Times,serif" font-size="14.00">show</text>
<text text-anchor="start" x="427.725" y="-114.933" font-family="Times,serif" font-size="14.00">update</text>
<polyline fill="none" stroke="black" points="419.725,-108.133 558.588,-108.133 "/>
<polyline fill="none" stroke="black" points="419.725,-84.1329 558.588,-84.1329 "/>
<text text-anchor="start" x="427.725" y="-66.1329" font-family="Times,serif" font-size="14.00">_layout</text>
</g>
<!-- ApplicationController&#45;&gt;BlackCardsController -->
<g id="edge1" class="edge"><title>ApplicationController&#45;&gt;BlackCardsController</title>
<path fill="none" stroke="black" d="M363.04,-253.548C379.842,-240.943 398.019,-227.306 415.202,-214.415"/>
<polyline fill="none" stroke="black" points="419.547,-211.155 415.548,-214.156 "/>
</g>
<!-- DecksController -->
<g id="node4" class="node"><title>DecksController</title>
<path fill="none" stroke="black" d="M255.257,-0.5C255.257,-0.5 339.788,-0.5 339.788,-0.5 345.788,-0.5 351.788,-6.5 351.788,-12.5 351.788,-12.5 351.788,-187.7 351.788,-187.7 351.788,-193.7 345.788,-199.7 339.788,-199.7 339.788,-199.7 255.257,-199.7 255.257,-199.7 249.257,-199.7 243.257,-193.7 243.257,-187.7 243.257,-187.7 243.257,-12.5 243.257,-12.5 243.257,-6.5 249.257,-0.5 255.257,-0.5"/>
<text text-anchor="middle" x="297.523" y="-181.7" font-family="Times,serif" font-size="14.00">DecksController</text>
<polyline fill="none" stroke="black" points="243.257,-174.9 351.788,-174.9 "/>
<text text-anchor="start" x="251.257" y="-156.9" font-family="Times,serif" font-size="14.00">create</text>
<text text-anchor="start" x="251.257" y="-140.1" font-family="Times,serif" font-size="14.00">destroy</text>
<text text-anchor="start" x="251.257" y="-123.3" font-family="Times,serif" font-size="14.00">edit</text>
<text text-anchor="start" x="251.257" y="-106.5" font-family="Times,serif" font-size="14.00">index</text>
<text text-anchor="start" x="251.257" y="-89.7" font-family="Times,serif" font-size="14.00">new</text>
<text text-anchor="start" x="251.257" y="-72.9" font-family="Times,serif" font-size="14.00">show</text>
<text text-anchor="start" x="251.257" y="-56.1" font-family="Times,serif" font-size="14.00">update</text>
<polyline fill="none" stroke="black" points="243.257,-49.3 351.788,-49.3 "/>
<polyline fill="none" stroke="black" points="243.257,-25.3 351.788,-25.3 "/>
<text text-anchor="start" x="251.257" y="-7.3" font-family="Times,serif" font-size="14.00">_layout</text>
</g>
<!-- ApplicationController&#45;&gt;DecksController -->
<g id="edge2" class="edge"><title>ApplicationController&#45;&gt;DecksController</title>
<path fill="none" stroke="black" d="M297.334,-253.54C297.352,-238.771 297.373,-221.982 297.393,-205.06"/>
<polyline fill="none" stroke="black" points="297.4,-199.806 297.394,-204.806 "/>
</g>
<!-- GamesController -->
<g id="node5" class="node"><title>GamesController</title>
<path fill="none" stroke="black" d="M12,-363.619C12,-363.619 197.122,-363.619 197.122,-363.619 203.122,-363.619 209.122,-369.619 209.122,-375.619 209.122,-375.619 209.122,-517.219 209.122,-517.219 209.122,-523.219 203.122,-529.219 197.122,-529.219 197.122,-529.219 12,-529.219 12,-529.219 6,-529.219 -2.84217e-14,-523.219 -2.84217e-14,-517.219 -2.84217e-14,-517.219 -2.84217e-14,-375.619 -2.84217e-14,-375.619 -2.84217e-14,-369.619 6,-363.619 12,-363.619"/>
<text text-anchor="middle" x="104.561" y="-511.219" font-family="Times,serif" font-size="14.00">GamesController</text>
<polyline fill="none" stroke="black" points="-2.84217e-14,-504.419 209.122,-504.419 "/>
<text text-anchor="start" x="8" y="-486.419" font-family="Times,serif" font-size="14.00">_one_time_conditions_valid_116?</text>
<text text-anchor="start" x="8" y="-469.619" font-family="Times,serif" font-size="14.00">create</text>
<text text-anchor="start" x="8" y="-452.819" font-family="Times,serif" font-size="14.00">index</text>
<text text-anchor="start" x="8" y="-436.019" font-family="Times,serif" font-size="14.00">new</text>
<text text-anchor="start" x="8" y="-419.219" font-family="Times,serif" font-size="14.00">show</text>
<polyline fill="none" stroke="black" points="-2.84217e-14,-412.419 209.122,-412.419 "/>
<polyline fill="none" stroke="black" points="-2.84217e-14,-388.419 209.122,-388.419 "/>
<text text-anchor="start" x="8" y="-370.419" font-family="Times,serif" font-size="14.00">_layout</text>
</g>
<!-- ApplicationController&#45;&gt;GamesController -->
<g id="edge3" class="edge"><title>ApplicationController&#45;&gt;GamesController</title>
<path fill="none" stroke="black" d="M230.952,-352.283C225.202,-356.566 219.294,-360.966 213.321,-365.415"/>
<polyline fill="none" stroke="black" points="209.176,-368.502 213.186,-365.515 "/>
</g>
<!-- HandsController -->
<g id="node6" class="node"><title>HandsController</title>
<path fill="none" stroke="black" d="M446.599,-346.557C446.599,-346.557 531.916,-346.557 531.916,-346.557 537.916,-346.557 543.916,-352.557 543.916,-358.557 543.916,-358.557 543.916,-533.757 543.916,-533.757 543.916,-539.757 537.916,-545.757 531.916,-545.757 531.916,-545.757 446.599,-545.757 446.599,-545.757 440.599,-545.757 434.599,-539.757 434.599,-533.757 434.599,-533.757 434.599,-358.557 434.599,-358.557 434.599,-352.557 440.599,-346.557 446.599,-346.557"/>
<text text-anchor="middle" x="489.258" y="-527.757" font-family="Times,serif" font-size="14.00">HandsController</text>
<polyline fill="none" stroke="black" points="434.599,-520.957 543.916,-520.957 "/>
<text text-anchor="start" x="442.599" y="-502.957" font-family="Times,serif" font-size="14.00">create</text>
<text text-anchor="start" x="442.599" y="-486.157" font-family="Times,serif" font-size="14.00">destroy</text>
<text text-anchor="start" x="442.599" y="-469.357" font-family="Times,serif" font-size="14.00">edit</text>
<text text-anchor="start" x="442.599" y="-452.557" font-family="Times,serif" font-size="14.00">index</text>
<text text-anchor="start" x="442.599" y="-435.757" font-family="Times,serif" font-size="14.00">new</text>
<text text-anchor="start" x="442.599" y="-418.957" font-family="Times,serif" font-size="14.00">show</text>
<text text-anchor="start" x="442.599" y="-402.157" font-family="Times,serif" font-size="14.00">update</text>
<polyline fill="none" stroke="black" points="434.599,-395.357 543.916,-395.357 "/>
<polyline fill="none" stroke="black" points="434.599,-371.357 543.916,-371.357 "/>
<text text-anchor="start" x="442.599" y="-353.357" font-family="Times,serif" font-size="14.00">_layout</text>
</g>
<!-- ApplicationController&#45;&gt;HandsController -->
<g id="edge4" class="edge"><title>ApplicationController&#45;&gt;HandsController</title>
<path fill="none" stroke="black" d="M363.343,-352.193C385.104,-368.432 409.144,-386.372 430.337,-402.187"/>
<polyline fill="none" stroke="black" points="434.536,-405.32 430.528,-402.33 "/>
</g>
<!-- WelcomeController -->
<g id="node7" class="node"><title>WelcomeController</title>
<path fill="none" stroke="black" d="M246.684,-456.05C246.684,-456.05 348.749,-456.05 348.749,-456.05 354.749,-456.05 360.749,-462.05 360.749,-468.05 360.749,-468.05 360.749,-542.45 360.749,-542.45 360.749,-548.45 354.749,-554.45 348.749,-554.45 348.749,-554.45 246.684,-554.45 246.684,-554.45 240.684,-554.45 234.684,-548.45 234.684,-542.45 234.684,-542.45 234.684,-468.05 234.684,-468.05 234.684,-462.05 240.684,-456.05 246.684,-456.05"/>
<text text-anchor="middle" x="297.717" y="-536.45" font-family="Times,serif" font-size="14.00">WelcomeController</text>
<polyline fill="none" stroke="black" points="234.684,-529.65 360.749,-529.65 "/>
<text text-anchor="start" x="242.684" y="-511.65" font-family="Times,serif" font-size="14.00">index</text>
<polyline fill="none" stroke="black" points="234.684,-504.85 360.749,-504.85 "/>
<polyline fill="none" stroke="black" points="234.684,-480.85 360.749,-480.85 "/>
<text text-anchor="start" x="242.684" y="-462.85" font-family="Times,serif" font-size="14.00">_layout</text>
</g>
<!-- ApplicationController&#45;&gt;WelcomeController -->
<g id="edge5" class="edge"><title>ApplicationController&#45;&gt;WelcomeController</title>
<path fill="none" stroke="black" d="M297.381,-352.133C297.446,-381.882 297.529,-419.85 297.597,-450.535"/>
<polyline fill="none" stroke="black" points="297.608,-455.785 297.597,-450.785 "/>
</g>
<!-- WhiteCardsController -->
<g id="node8" class="node"><title>WhiteCardsController</title>
<path fill="none" stroke="black" d="M46.3239,-59.2453C46.3239,-59.2453 162.738,-59.2453 162.738,-59.2453 168.738,-59.2453 174.738,-65.2453 174.738,-71.2453 174.738,-71.2453 174.738,-246.445 174.738,-246.445 174.738,-252.445 168.738,-258.445 162.738,-258.445 162.738,-258.445 46.3239,-258.445 46.3239,-258.445 40.3239,-258.445 34.3239,-252.445 34.3239,-246.445 34.3239,-246.445 34.3239,-71.2453 34.3239,-71.2453 34.3239,-65.2453 40.3239,-59.2453 46.3239,-59.2453"/>
<text text-anchor="middle" x="104.531" y="-240.445" font-family="Times,serif" font-size="14.00">WhiteCardsController</text>
<polyline fill="none" stroke="black" points="34.3239,-233.645 174.738,-233.645 "/>
<text text-anchor="start" x="42.3239" y="-215.645" font-family="Times,serif" font-size="14.00">create</text>
<text text-anchor="start" x="42.3239" y="-198.845" font-family="Times,serif" font-size="14.00">destroy</text>
<text text-anchor="start" x="42.3239" y="-182.045" font-family="Times,serif" font-size="14.00">edit</text>
<text text-anchor="start" x="42.3239" y="-165.245" font-family="Times,serif" font-size="14.00">index</text>
<text text-anchor="start" x="42.3239" y="-148.445" font-family="Times,serif" font-size="14.00">new</text>
<text text-anchor="start" x="42.3239" y="-131.645" font-family="Times,serif" font-size="14.00">show</text>
<text text-anchor="start" x="42.3239" y="-114.845" font-family="Times,serif" font-size="14.00">update</text>
<polyline fill="none" stroke="black" points="34.3239,-108.045 174.738,-108.045 "/>
<polyline fill="none" stroke="black" points="34.3239,-84.0453 174.738,-84.0453 "/>
<text text-anchor="start" x="42.3239" y="-66.0453" font-family="Times,serif" font-size="14.00">_layout</text>
</g>
<!-- ApplicationController&#45;&gt;WhiteCardsController -->
<g id="edge6" class="edge"><title>ApplicationController&#45;&gt;WhiteCardsController</title>
<path fill="none" stroke="black" d="M231.212,-253.518C214.435,-240.98 196.293,-227.422 179.125,-214.592"/>
<polyline fill="none" stroke="black" points="174.783,-211.347 178.788,-214.34 "/>
</g>
</g>
</svg>
