<?xml version="1.0" encoding="UTF-8" standalone="no"?>
<!DOCTYPE svg PUBLIC "-//W3C//DTD SVG 1.1//EN"
 "http://www.w3.org/Graphics/SVG/1.1/DTD/svg11.dtd">
<!-- Generated by graphviz version 2.34.0 (20131105.2002)
 -->
<!-- Title: controllers_diagram Pages: 1 -->
<svg width="553pt" height="328pt"
 viewBox="0.00 0.00 553.38 328.00" xmlns="http://www.w3.org/2000/svg" xmlns:xlink="http://www.w3.org/1999/xlink">
<g id="graph0" class="graph" transform="scale(1 1) rotate(0) translate(4 324)">
<title>controllers_diagram</title>
<polygon fill="white" stroke="white" points="-4,4 -4,-324 549.375,-324 549.375,4 -4,4"/>
<!-- _diagram_info -->
<g id="node1" class="node"><title>_diagram_info</title>
<text text-anchor="start" x="346" y="-303" font-family="Times,serif" font-size="13.00">Controllers diagram</text>
<text text-anchor="start" x="346" y="-287.4" font-family="Times,serif" font-size="13.00">Date: Jan 08 2014 &#45; 23:00</text>
<text text-anchor="start" x="346" y="-271.8" font-family="Times,serif" font-size="13.00">Migration version: 20140106031803</text>
<text text-anchor="start" x="346" y="-256.2" font-family="Times,serif" font-size="13.00">Generated by RailRoady 1.1.1</text>
<text text-anchor="start" x="346" y="-240.6" font-family="Times,serif" font-size="13.00">http://railroady.prestonlee.com</text>
</g>
<!-- ApplicationController -->
<g id="node2" class="node"><title>ApplicationController</title>
<ellipse fill="none" stroke="black" cx="236.218" cy="-75.9171" rx="96.1448" ry="18"/>
<text text-anchor="middle" x="236.218" y="-70.3171" font-family="Times,serif" font-size="14.00">ApplicationController</text>
</g>
<!-- GamesController -->
<g id="node3" class="node"><title>GamesController</title>
<ellipse fill="none" stroke="black" cx="331.592" cy="-22.6845" rx="77.5918" ry="18"/>
<text text-anchor="middle" x="331.592" y="-17.0845" font-family="Times,serif" font-size="14.00">GamesController</text>
</g>
<!-- ApplicationController&#45;&gt;GamesController -->
<g id="edge1" class="edge"><title>ApplicationController&#45;&gt;GamesController</title>
<path fill="none" stroke="black" d="M266.92,-58.781C276.553,-53.4041 287.25,-47.4336 297.126,-41.9215"/>
<polyline fill="none" stroke="black" points="301.599,-39.4249 297.233,-41.8618 "/>
</g>
<!-- HandsController -->
<g id="node4" class="node"><title>HandsController</title>
<ellipse fill="none" stroke="black" cx="139.556" cy="-18" rx="75.3104" ry="18"/>
<text text-anchor="middle" x="139.556" y="-12.4" font-family="Times,serif" font-size="14.00">HandsController</text>
</g>
<!-- ApplicationController&#45;&gt;HandsController -->
<g id="edge2" class="edge"><title>ApplicationController&#45;&gt;HandsController</title>
<path fill="none" stroke="black" d="M207.478,-58.6969C196.375,-52.0441 183.611,-44.3964 172.167,-37.5394"/>
<polyline fill="none" stroke="black" points="167.686,-34.8548 171.975,-37.4247 "/>
</g>
<!-- SubmissionsController -->
<g id="node5" class="node"><title>SubmissionsController</title>
<ellipse fill="none" stroke="black" cx="99.5664" cy="-120.18" rx="99.6328" ry="18"/>
<text text-anchor="middle" x="99.5664" y="-114.58" font-family="Times,serif" font-size="14.00">SubmissionsController</text>
</g>
<!-- ApplicationController&#45;&gt;SubmissionsController -->
<g id="edge3" class="edge"><title>ApplicationController&#45;&gt;SubmissionsController</title>
<path fill="none" stroke="black" d="M188.04,-91.5225C176.744,-95.1813 164.641,-99.1014 153.127,-102.831"/>
<polyline fill="none" stroke="black" points="148.232,-104.417 152.988,-102.876 "/>
</g>
<!-- UsersController -->
<g id="node6" class="node"><title>UsersController</title>
<ellipse fill="none" stroke="black" cx="353.177" cy="-130.626" rx="72.9449" ry="18"/>
<text text-anchor="middle" x="353.177" y="-125.026" font-family="Times,serif" font-size="14.00">UsersController</text>
</g>
<!-- ApplicationController&#45;&gt;UsersController -->
<g id="edge4" class="edge"><title>ApplicationController&#45;&gt;UsersController</title>
<path fill="none" stroke="black" d="M272.264,-92.7778C285.651,-99.0398 300.887,-106.167 314.5,-112.534"/>
<polyline fill="none" stroke="black" points="319.049,-114.662 314.52,-112.543 "/>
</g>
<!-- WelcomeController -->
<g id="node7" class="node"><title>WelcomeController</title>
<ellipse fill="none" stroke="black" cx="229.268" cy="-162.426" rx="86.9153" ry="18"/>
<text text-anchor="middle" x="229.268" y="-156.826" font-family="Times,serif" font-size="14.00">WelcomeController</text>
</g>
<!-- ApplicationController&#45;&gt;WelcomeController -->
<g id="edge5" class="edge"><title>ApplicationController&#45;&gt;WelcomeController</title>
<path fill="none" stroke="black" d="M234.744,-94.2633C233.686,-107.427 232.254,-125.259 231.119,-139.382"/>
<polyline fill="none" stroke="black" points="230.716,-144.403 231.116,-139.419 "/>
</g>
</g>
</svg>
