<?xml version="1.0" encoding="UTF-8" standalone="no"?>
<!DOCTYPE svg PUBLIC "-//W3C//DTD SVG 1.1//EN"
 "http://www.w3.org/Graphics/SVG/1.1/DTD/svg11.dtd">
<!-- Generated by graphviz version 2.34.0 (20131105.2002)
 -->
<!-- Title: controllers_diagram Pages: 1 -->
<svg width="813pt" height="646pt"
 viewBox="0.00 0.00 813.38 646.00" xmlns="http://www.w3.org/2000/svg" xmlns:xlink="http://www.w3.org/1999/xlink">
<g id="graph0" class="graph" transform="scale(1 1) rotate(0) translate(4 642)">
<title>controllers_diagram</title>
<polygon fill="white" stroke="white" points="-4,4 -4,-642 809.375,-642 809.375,4 -4,4"/>
<!-- _diagram_info -->
<g id="node1" class="node"><title>_diagram_info</title>
<text text-anchor="start" x="606" y="-621" font-family="Times,serif" font-size="13.00">Controllers diagram</text>
<text text-anchor="start" x="606" y="-605.4" font-family="Times,serif" font-size="13.00">Date: Jan 08 2014 &#45; 23:00</text>
<text text-anchor="start" x="606" y="-589.8" font-family="Times,serif" font-size="13.00">Migration version: 20140106031803</text>
<text text-anchor="start" x="606" y="-574.2" font-family="Times,serif" font-size="13.00">Generated by RailRoady 1.1.1</text>
<text text-anchor="start" x="606" y="-558.6" font-family="Times,serif" font-size="13.00">http://railroady.prestonlee.com</text>
</g>
<!-- ApplicationController -->
<g id="node2" class="node"><title>ApplicationController</title>
<path fill="none" stroke="black" d="M211.478,-199.61C211.478,-199.61 390.113,-199.61 390.113,-199.61 396.113,-199.61 402.113,-205.61 402.113,-211.61 402.113,-211.61 402.113,-286.01 402.113,-286.01 402.113,-292.01 396.113,-298.01 390.113,-298.01 390.113,-298.01 211.478,-298.01 211.478,-298.01 205.478,-298.01 199.478,-292.01 199.478,-286.01 199.478,-286.01 199.478,-211.61 199.478,-211.61 199.478,-205.61 205.478,-199.61 211.478,-199.61"/>
<text text-anchor="middle" x="300.795" y="-280.01" font-family="Times,serif" font-size="14.00">ApplicationController</text>
<polyline fill="none" stroke="black" points="199.478,-273.21 402.113,-273.21 "/>
<text text-anchor="start" x="207.478" y="-255.21" font-family="Times,serif" font-size="14.00">_one_time_conditions_valid_90?</text>
<polyline fill="none" stroke="black" points="199.478,-248.41 402.113,-248.41 "/>
<polyline fill="none" stroke="black" points="199.478,-224.41 402.113,-224.41 "/>
<text text-anchor="start" x="207.478" y="-206.41" font-family="Times,serif" font-size="14.00">_layout</text>
</g>
<!-- GamesController -->
<g id="node3" class="node"><title>GamesController</title>
<path fill="none" stroke="black" d="M393.336,-1.32163C393.336,-1.32163 578.971,-1.32163 578.971,-1.32163 584.971,-1.32163 590.971,-7.32163 590.971,-13.3216 590.971,-13.3216 590.971,-171.722 590.971,-171.722 590.971,-177.722 584.971,-183.722 578.971,-183.722 578.971,-183.722 393.336,-183.722 393.336,-183.722 387.336,-183.722 381.336,-177.722 381.336,-171.722 381.336,-171.722 381.336,-13.3216 381.336,-13.3216 381.336,-7.32163 387.336,-1.32163 393.336,-1.32163"/>
<text text-anchor="middle" x="486.154" y="-165.722" font-family="Times,serif" font-size="14.00">GamesController</text>
<polyline fill="none" stroke="black" points="381.336,-158.922 590.971,-158.922 "/>
<text text-anchor="start" x="389.336" y="-140.922" font-family="Times,serif" font-size="14.00">_one_time_conditions_valid_158?</text>
<text text-anchor="start" x="389.336" y="-124.122" font-family="Times,serif" font-size="14.00">create</text>
<text text-anchor="start" x="389.336" y="-107.322" font-family="Times,serif" font-size="14.00">hand</text>
<text text-anchor="start" x="389.336" y="-90.5216" font-family="Times,serif" font-size="14.00">index</text>
<text text-anchor="start" x="389.336" y="-73.7216" font-family="Times,serif" font-size="14.00">new</text>
<text text-anchor="start" x="389.336" y="-56.9216" font-family="Times,serif" font-size="14.00">show</text>
<polyline fill="none" stroke="black" points="381.336,-50.1216 590.971,-50.1216 "/>
<polyline fill="none" stroke="black" points="381.336,-26.1216 590.971,-26.1216 "/>
<text text-anchor="start" x="389.336" y="-8.12163" font-family="Times,serif" font-size="14.00">_layout</text>
</g>
<!-- ApplicationController&#45;&gt;GamesController -->
<g id="edge1" class="edge"><title>ApplicationController&#45;&gt;GamesController</title>
<path fill="none" stroke="black" d="M359.189,-199.574C365.077,-194.61 371.18,-189.464 377.382,-184.235"/>
<polyline fill="none" stroke="black" points="381.255,-180.969 377.433,-184.192 "/>
</g>
<!-- HandsController -->
<g id="node4" class="node"><title>HandsController</title>
<path fill="none" stroke="black" d="M72.6367,-0.5C72.6367,-0.5 157.954,-0.5 157.954,-0.5 163.954,-0.5 169.954,-6.5 169.954,-12.5 169.954,-12.5 169.954,-170.9 169.954,-170.9 169.954,-176.9 163.954,-182.9 157.954,-182.9 157.954,-182.9 72.6367,-182.9 72.6367,-182.9 66.6367,-182.9 60.6367,-176.9 60.6367,-170.9 60.6367,-170.9 60.6367,-12.5 60.6367,-12.5 60.6367,-6.5 66.6367,-0.5 72.6367,-0.5"/>
<text text-anchor="middle" x="115.295" y="-164.9" font-family="Times,serif" font-size="14.00">HandsController</text>
<polyline fill="none" stroke="black" points="60.6367,-158.1 169.954,-158.1 "/>
<text text-anchor="start" x="68.6367" y="-140.1" font-family="Times,serif" font-size="14.00">create</text>
<text text-anchor="start" x="68.6367" y="-123.3" font-family="Times,serif" font-size="14.00">destroy</text>
<text text-anchor="start" x="68.6367" y="-106.5" font-family="Times,serif" font-size="14.00">index</text>
<text text-anchor="start" x="68.6367" y="-89.7" font-family="Times,serif" font-size="14.00">new</text>
<text text-anchor="start" x="68.6367" y="-72.9" font-family="Times,serif" font-size="14.00">show</text>
<text text-anchor="start" x="68.6367" y="-56.1" font-family="Times,serif" font-size="14.00">update</text>
<polyline fill="none" stroke="black" points="60.6367,-49.3 169.954,-49.3 "/>
<polyline fill="none" stroke="black" points="60.6367,-25.3 169.954,-25.3 "/>
<text text-anchor="start" x="68.6367" y="-7.3" font-family="Times,serif" font-size="14.00">_layout</text>
</g>
<!-- ApplicationController&#45;&gt;HandsController -->
<g id="edge2" class="edge"><title>ApplicationController&#45;&gt;HandsController</title>
<path fill="none" stroke="black" d="M242.611,-199.531C220.805,-181.062 196.025,-160.074 174.158,-141.554"/>
<polyline fill="none" stroke="black" points="170.111,-138.126 173.926,-141.357 "/>
</g>
<!-- SubmissionsController -->
<g id="node5" class="node"><title>SubmissionsController</title>
<path fill="none" stroke="black" d="M12,-354.452C12,-354.452 132.345,-354.452 132.345,-354.452 138.345,-354.452 144.345,-360.452 144.345,-366.452 144.345,-366.452 144.345,-474.452 144.345,-474.452 144.345,-480.452 138.345,-486.452 132.345,-486.452 132.345,-486.452 12,-486.452 12,-486.452 6,-486.452 0,-480.452 0,-474.452 0,-474.452 0,-366.452 0,-366.452 0,-360.452 6,-354.452 12,-354.452"/>
<text text-anchor="middle" x="72.1724" y="-468.452" font-family="Times,serif" font-size="14.00">SubmissionsController</text>
<polyline fill="none" stroke="black" points="0,-461.652 144.345,-461.652 "/>
<text text-anchor="start" x="8" y="-443.652" font-family="Times,serif" font-size="14.00">create</text>
<text text-anchor="start" x="8" y="-426.852" font-family="Times,serif" font-size="14.00">index</text>
<text text-anchor="start" x="8" y="-410.052" font-family="Times,serif" font-size="14.00">show</text>
<polyline fill="none" stroke="black" points="0,-403.252 144.345,-403.252 "/>
<polyline fill="none" stroke="black" points="0,-379.252 144.345,-379.252 "/>
<text text-anchor="start" x="8" y="-361.252" font-family="Times,serif" font-size="14.00">_layout</text>
</g>
<!-- ApplicationController&#45;&gt;SubmissionsController -->
<g id="edge3" class="edge"><title>ApplicationController&#45;&gt;SubmissionsController</title>
<path fill="none" stroke="black" d="M234.975,-298.226C208.069,-318.426 176.763,-341.929 148.832,-362.898"/>
<polyline fill="none" stroke="black" points="144.737,-365.973 148.736,-362.971 "/>
</g>
<!-- UsersController -->
<g id="node6" class="node"><title>UsersController</title>
<path fill="none" stroke="black" d="M485.82,-356.809C485.82,-356.809 567.248,-356.809 567.248,-356.809 573.248,-356.809 579.248,-362.809 579.248,-368.809 579.248,-368.809 579.248,-476.809 579.248,-476.809 579.248,-482.809 573.248,-488.809 567.248,-488.809 567.248,-488.809 485.82,-488.809 485.82,-488.809 479.82,-488.809 473.82,-482.809 473.82,-476.809 473.82,-476.809 473.82,-368.809 473.82,-368.809 473.82,-362.809 479.82,-356.809 485.82,-356.809"/>
<text text-anchor="middle" x="526.534" y="-470.809" font-family="Times,serif" font-size="14.00">UsersController</text>
<polyline fill="none" stroke="black" points="473.82,-464.009 579.248,-464.009 "/>
<text text-anchor="start" x="481.82" y="-446.009" font-family="Times,serif" font-size="14.00">hand</text>
<text text-anchor="start" x="481.82" y="-429.209" font-family="Times,serif" font-size="14.00">index</text>
<text text-anchor="start" x="481.82" y="-412.409" font-family="Times,serif" font-size="14.00">show</text>
<polyline fill="none" stroke="black" points="473.82,-405.609 579.248,-405.609 "/>
<polyline fill="none" stroke="black" points="473.82,-381.609 579.248,-381.609 "/>
<text text-anchor="start" x="481.82" y="-363.609" font-family="Times,serif" font-size="14.00">_layout</text>
</g>
<!-- ApplicationController&#45;&gt;UsersController -->
<g id="edge4" class="edge"><title>ApplicationController&#45;&gt;UsersController</title>
<path fill="none" stroke="black" d="M364.879,-298.206C397.812,-323.591 437.607,-354.264 469.472,-378.826"/>
<polyline fill="none" stroke="black" points="473.715,-382.096 469.755,-379.044 "/>
</g>
<!-- WelcomeController -->
<g id="node7" class="node"><title>WelcomeController</title>
<path fill="none" stroke="black" d="M246.312,-442.85C246.312,-442.85 348.377,-442.85 348.377,-442.85 354.377,-442.85 360.377,-448.85 360.377,-454.85 360.377,-454.85 360.377,-529.25 360.377,-529.25 360.377,-535.25 354.377,-541.25 348.377,-541.25 348.377,-541.25 246.312,-541.25 246.312,-541.25 240.312,-541.25 234.312,-535.25 234.312,-529.25 234.312,-529.25 234.312,-454.85 234.312,-454.85 234.312,-448.85 240.312,-442.85 246.312,-442.85"/>
<text text-anchor="middle" x="297.344" y="-523.25" font-family="Times,serif" font-size="14.00">WelcomeController</text>
<polyline fill="none" stroke="black" points="234.312,-516.45 360.377,-516.45 "/>
<text text-anchor="start" x="242.312" y="-498.45" font-family="Times,serif" font-size="14.00">index</text>
<polyline fill="none" stroke="black" points="234.312,-491.65 360.377,-491.65 "/>
<polyline fill="none" stroke="black" points="234.312,-467.65 360.377,-467.65 "/>
<text text-anchor="start" x="242.312" y="-449.65" font-family="Times,serif" font-size="14.00">_layout</text>
</g>
<!-- ApplicationController&#45;&gt;WelcomeController -->
<g id="edge5" class="edge"><title>ApplicationController&#45;&gt;WelcomeController</title>
<path fill="none" stroke="black" d="M300.097,-298.033C299.524,-338.453 298.712,-395.645 298.119,-437.462"/>
<polyline fill="none" stroke="black" points="298.047,-442.483 298.119,-437.484 "/>
</g>
</g>
</svg>
