<?xml version="1.0" encoding="UTF-8" standalone="no"?>
<!DOCTYPE svg PUBLIC "-//W3C//DTD SVG 1.1//EN"
 "http://www.w3.org/Graphics/SVG/1.1/DTD/svg11.dtd">
<!-- Generated by graphviz version 2.34.0 (20131105.2002)
 -->
<!-- Title: controllers_diagram Pages: 1 -->
<svg width="501pt" height="292pt"
 viewBox="0.00 0.00 500.90 292.00" xmlns="http://www.w3.org/2000/svg" xmlns:xlink="http://www.w3.org/1999/xlink">
<g id="graph0" class="graph" transform="scale(1 1) rotate(0) translate(4 288)">
<title>controllers_diagram</title>
<polygon fill="white" stroke="white" points="-4,4 -4,-288 496.899,-288 496.899,4 -4,4"/>
<!-- _diagram_info -->
<g id="node1" class="node"><title>_diagram_info</title>
<text text-anchor="start" x="294" y="-267" font-family="Times,serif" font-size="13.00">Controllers diagram</text>
<text text-anchor="start" x="294" y="-251.4" font-family="Times,serif" font-size="13.00">Date: Nov 24 2013 &#45; 02:57</text>
<text text-anchor="start" x="294" y="-235.8" font-family="Times,serif" font-size="13.00">Migration version: 20131124045350</text>
<text text-anchor="start" x="294" y="-220.2" font-family="Times,serif" font-size="13.00">Generated by RailRoady 1.1.1</text>
<text text-anchor="start" x="294" y="-204.6" font-family="Times,serif" font-size="13.00">http://railroady.prestonlee.com</text>
</g>
<!-- ApplicationController -->
<g id="node2" class="node"><title>ApplicationController</title>
<ellipse fill="none" stroke="black" cx="166.258" cy="-79.5749" rx="96.1448" ry="18"/>
<text text-anchor="middle" x="166.258" y="-73.9749" font-family="Times,serif" font-size="14.00">ApplicationController</text>
</g>
<!-- GamesController -->
<g id="node3" class="node"><title>GamesController</title>
<ellipse fill="none" stroke="black" cx="262.839" cy="-38.8463" rx="77.5918" ry="18"/>
<text text-anchor="middle" x="262.839" y="-33.2463" font-family="Times,serif" font-size="14.00">GamesController</text>
</g>
<!-- ApplicationController&#45;&gt;GamesController -->
<g id="edge1" class="edge"><title>ApplicationController&#45;&gt;GamesController</title>
<path fill="none" stroke="black" d="M205.541,-63.009C210.398,-60.9609 215.381,-58.8595 220.284,-56.792"/>
<polyline fill="none" stroke="black" points="225.152,-54.7388 220.545,-56.6817 "/>
</g>
<!-- HandsController -->
<g id="node4" class="node"><title>HandsController</title>
<ellipse fill="none" stroke="black" cx="91.8697" cy="-18" rx="75.3104" ry="18"/>
<text text-anchor="middle" x="91.8697" y="-12.4" font-family="Times,serif" font-size="14.00">HandsController</text>
</g>
<!-- ApplicationController&#45;&gt;HandsController -->
<g id="edge2" class="edge"><title>ApplicationController&#45;&gt;HandsController</title>
<path fill="none" stroke="black" d="M144.742,-61.7649C136.113,-54.6224 126.106,-46.3392 117.135,-38.9133"/>
<polyline fill="none" stroke="black" points="112.824,-35.3454 116.676,-38.5337 "/>
</g>
<!-- UsersController -->
<g id="node5" class="node"><title>UsersController</title>
<ellipse fill="none" stroke="black" cx="72.7221" cy="-120.627" rx="72.9449" ry="18"/>
<text text-anchor="middle" x="72.7221" y="-115.027" font-family="Times,serif" font-size="14.00">UsersController</text>
</g>
<!-- ApplicationController&#45;&gt;UsersController -->
<g id="edge3" class="edge"><title>ApplicationController&#45;&gt;UsersController</title>
<path fill="none" stroke="black" d="M128.483,-96.154C123.436,-98.3689 118.245,-100.647 113.155,-102.881"/>
<polyline fill="none" stroke="black" points="108.517,-104.917 113.095,-102.908 "/>
</g>
<!-- WelcomeController -->
<g id="node6" class="node"><title>WelcomeController</title>
<ellipse fill="none" stroke="black" cx="243.285" cy="-141.024" rx="86.9153" ry="18"/>
<text text-anchor="middle" x="243.285" y="-135.424" font-family="Times,serif" font-size="14.00">WelcomeController</text>
</g>
<!-- ApplicationController&#45;&gt;WelcomeController -->
<g id="edge4" class="edge"><title>ApplicationController&#45;&gt;WelcomeController</title>
<path fill="none" stroke="black" d="M188.537,-97.3487C197.557,-104.544 208.03,-112.9 217.387,-120.364"/>
<polyline fill="none" stroke="black" points="221.321,-123.503 217.413,-120.385 "/>
</g>
</g>
</svg>
