<?xml version="1.0" encoding="UTF-8" standalone="no"?>
<!DOCTYPE svg PUBLIC "-//W3C//DTD SVG 1.1//EN"
 "http://www.w3.org/Graphics/SVG/1.1/DTD/svg11.dtd">
<!-- Generated by graphviz version 2.34.0 (20131105.2002)
 -->
<!-- Title: controllers_diagram Pages: 1 -->
<svg width="799pt" height="679pt"
 viewBox="0.00 0.00 799.42 679.00" xmlns="http://www.w3.org/2000/svg" xmlns:xlink="http://www.w3.org/1999/xlink">
<g id="graph0" class="graph" transform="scale(1 1) rotate(0) translate(4 675)">
<title>controllers_diagram</title>
<polygon fill="white" stroke="white" points="-4,4 -4,-675 795.423,-675 795.423,4 -4,4"/>
<!-- _diagram_info -->
<g id="node1" class="node"><title>_diagram_info</title>
<text text-anchor="start" x="593" y="-654" font-family="Times,serif" font-size="13.00">Controllers diagram</text>
<text text-anchor="start" x="593" y="-638.4" font-family="Times,serif" font-size="13.00">Date: Nov 12 2013 &#45; 09:48</text>
<text text-anchor="start" x="593" y="-622.8" font-family="Times,serif" font-size="13.00">Migration version: 20131112144527</text>
<text text-anchor="start" x="593" y="-607.2" font-family="Times,serif" font-size="13.00">Generated by RailRoady 1.1.1</text>
<text text-anchor="start" x="593" y="-591.6" font-family="Times,serif" font-size="13.00">http://railroady.prestonlee.com</text>
</g>
<!-- ApplicationController -->
<g id="node2" class="node"><title>ApplicationController</title>
<path fill="none" stroke="black" d="M208.05,-248.177C208.05,-248.177 386.685,-248.177 386.685,-248.177 392.685,-248.177 398.685,-254.177 398.685,-260.177 398.685,-260.177 398.685,-334.577 398.685,-334.577 398.685,-340.577 392.685,-346.577 386.685,-346.577 386.685,-346.577 208.05,-346.577 208.05,-346.577 202.05,-346.577 196.05,-340.577 196.05,-334.577 196.05,-334.577 196.05,-260.177 196.05,-260.177 196.05,-254.177 202.05,-248.177 208.05,-248.177"/>
<text text-anchor="middle" x="297.367" y="-328.577" font-family="Times,serif" font-size="14.00">ApplicationController</text>
<polyline fill="none" stroke="black" points="196.05,-321.777 398.685,-321.777 "/>
<text text-anchor="start" x="204.05" y="-303.777" font-family="Times,serif" font-size="14.00">_one_time_conditions_valid_74?</text>
<polyline fill="none" stroke="black" points="196.05,-296.977 398.685,-296.977 "/>
<polyline fill="none" stroke="black" points="196.05,-272.977 398.685,-272.977 "/>
<text text-anchor="start" x="204.05" y="-254.977" font-family="Times,serif" font-size="14.00">_layout</text>
</g>
<!-- BlackCardsController -->
<g id="node3" class="node"><title>BlackCardsController</title>
<path fill="none" stroke="black" d="M431.582,-57.0911C431.582,-57.0911 546.445,-57.0911 546.445,-57.0911 552.445,-57.0911 558.445,-63.0911 558.445,-69.0911 558.445,-69.0911 558.445,-244.291 558.445,-244.291 558.445,-250.291 552.445,-256.291 546.445,-256.291 546.445,-256.291 431.582,-256.291 431.582,-256.291 425.582,-256.291 419.582,-250.291 419.582,-244.291 419.582,-244.291 419.582,-69.0911 419.582,-69.0911 419.582,-63.0911 425.582,-57.0911 431.582,-57.0911"/>
<text text-anchor="middle" x="489.013" y="-238.291" font-family="Times,serif" font-size="14.00">BlackCardsController</text>
<polyline fill="none" stroke="black" points="419.582,-231.491 558.445,-231.491 "/>
<text text-anchor="start" x="427.582" y="-213.491" font-family="Times,serif" font-size="14.00">create</text>
<text text-anchor="start" x="427.582" y="-196.691" font-family="Times,serif" font-size="14.00">destroy</text>
<text text-anchor="start" x="427.582" y="-179.891" font-family="Times,serif" font-size="14.00">edit</text>
<text text-anchor="start" x="427.582" y="-163.091" font-family="Times,serif" font-size="14.00">index</text>
<text text-anchor="start" x="427.582" y="-146.291" font-family="Times,serif" font-size="14.00">new</text>
<text text-anchor="start" x="427.582" y="-129.491" font-family="Times,serif" font-size="14.00">show</text>
<text text-anchor="start" x="427.582" y="-112.691" font-family="Times,serif" font-size="14.00">update</text>
<polyline fill="none" stroke="black" points="419.582,-105.891 558.445,-105.891 "/>
<polyline fill="none" stroke="black" points="419.582,-81.8911 558.445,-81.8911 "/>
<text text-anchor="start" x="427.582" y="-63.8911" font-family="Times,serif" font-size="14.00">_layout</text>
</g>
<!-- ApplicationController&#45;&gt;BlackCardsController -->
<g id="edge1" class="edge"><title>ApplicationController&#45;&gt;BlackCardsController</title>
<path fill="none" stroke="black" d="M364.396,-248.172C380.815,-236.119 398.477,-223.154 415.194,-210.881"/>
<polyline fill="none" stroke="black" points="419.423,-207.777 415.392,-210.736 "/>
</g>
<!-- DecksController -->
<g id="node4" class="node"><title>DecksController</title>
<path fill="none" stroke="black" d="M255.34,-0.5C255.34,-0.5 339.871,-0.5 339.871,-0.5 345.871,-0.5 351.871,-6.5 351.871,-12.5 351.871,-12.5 351.871,-187.7 351.871,-187.7 351.871,-193.7 345.871,-199.7 339.871,-199.7 339.871,-199.7 255.34,-199.7 255.34,-199.7 249.34,-199.7 243.34,-193.7 243.34,-187.7 243.34,-187.7 243.34,-12.5 243.34,-12.5 243.34,-6.5 249.34,-0.5 255.34,-0.5"/>
<text text-anchor="middle" x="297.605" y="-181.7" font-family="Times,serif" font-size="14.00">DecksController</text>
<polyline fill="none" stroke="black" points="243.34,-174.9 351.871,-174.9 "/>
<text text-anchor="start" x="251.34" y="-156.9" font-family="Times,serif" font-size="14.00">create</text>
<text text-anchor="start" x="251.34" y="-140.1" font-family="Times,serif" font-size="14.00">destroy</text>
<text text-anchor="start" x="251.34" y="-123.3" font-family="Times,serif" font-size="14.00">edit</text>
<text text-anchor="start" x="251.34" y="-106.5" font-family="Times,serif" font-size="14.00">index</text>
<text text-anchor="start" x="251.34" y="-89.7" font-family="Times,serif" font-size="14.00">new</text>
<text text-anchor="start" x="251.34" y="-72.9" font-family="Times,serif" font-size="14.00">show</text>
<text text-anchor="start" x="251.34" y="-56.1" font-family="Times,serif" font-size="14.00">update</text>
<polyline fill="none" stroke="black" points="243.34,-49.3 351.871,-49.3 "/>
<polyline fill="none" stroke="black" points="243.34,-25.3 351.871,-25.3 "/>
<text text-anchor="start" x="251.34" y="-7.3" font-family="Times,serif" font-size="14.00">_layout</text>
</g>
<!-- ApplicationController&#45;&gt;DecksController -->
<g id="edge2" class="edge"><title>ApplicationController&#45;&gt;DecksController</title>
<path fill="none" stroke="black" d="M297.427,-248.105C297.443,-234.878 297.461,-220.055 297.479,-205.037"/>
<polyline fill="none" stroke="black" points="297.485,-199.938 297.479,-204.938 "/>
</g>
<!-- GamesController -->
<g id="node5" class="node"><title>GamesController</title>
<path fill="none" stroke="black" d="M12,-354.651C12,-354.651 197.635,-354.651 197.635,-354.651 203.635,-354.651 209.635,-360.651 209.635,-366.651 209.635,-366.651 209.635,-508.251 209.635,-508.251 209.635,-514.251 203.635,-520.251 197.635,-520.251 197.635,-520.251 12,-520.251 12,-520.251 6,-520.251 0,-514.251 0,-508.251 0,-508.251 0,-366.651 0,-366.651 0,-360.651 6,-354.651 12,-354.651"/>
<text text-anchor="middle" x="104.817" y="-502.251" font-family="Times,serif" font-size="14.00">GamesController</text>
<polyline fill="none" stroke="black" points="0,-495.451 209.635,-495.451 "/>
<text text-anchor="start" x="8" y="-477.451" font-family="Times,serif" font-size="14.00">_one_time_conditions_valid_152?</text>
<text text-anchor="start" x="8" y="-460.651" font-family="Times,serif" font-size="14.00">create</text>
<text text-anchor="start" x="8" y="-443.851" font-family="Times,serif" font-size="14.00">index</text>
<text text-anchor="start" x="8" y="-427.051" font-family="Times,serif" font-size="14.00">new</text>
<text text-anchor="start" x="8" y="-410.251" font-family="Times,serif" font-size="14.00">show</text>
<polyline fill="none" stroke="black" points="0,-403.451 209.635,-403.451 "/>
<polyline fill="none" stroke="black" points="0,-379.451 209.635,-379.451 "/>
<text text-anchor="start" x="8" y="-361.451" font-family="Times,serif" font-size="14.00">_layout</text>
</g>
<!-- ApplicationController&#45;&gt;GamesController -->
<g id="edge3" class="edge"><title>ApplicationController&#45;&gt;GamesController</title>
<path fill="none" stroke="black" d="M229.481,-346.762C224.491,-350.392 219.388,-354.104 214.234,-357.853"/>
<polyline fill="none" stroke="black" points="209.895,-361.01 213.938,-358.069 "/>
</g>
<!-- HandsController -->
<g id="node6" class="node"><title>HandsController</title>
<path fill="none" stroke="black" d="M446.422,-346.09C446.422,-346.09 531.739,-346.09 531.739,-346.09 537.739,-346.09 543.739,-352.09 543.739,-358.09 543.739,-358.09 543.739,-516.49 543.739,-516.49 543.739,-522.49 537.739,-528.49 531.739,-528.49 531.739,-528.49 446.422,-528.49 446.422,-528.49 440.422,-528.49 434.422,-522.49 434.422,-516.49 434.422,-516.49 434.422,-358.09 434.422,-358.09 434.422,-352.09 440.422,-346.09 446.422,-346.09"/>
<text text-anchor="middle" x="489.081" y="-510.49" font-family="Times,serif" font-size="14.00">HandsController</text>
<polyline fill="none" stroke="black" points="434.422,-503.69 543.739,-503.69 "/>
<text text-anchor="start" x="442.422" y="-485.69" font-family="Times,serif" font-size="14.00">create</text>
<text text-anchor="start" x="442.422" y="-468.89" font-family="Times,serif" font-size="14.00">destroy</text>
<text text-anchor="start" x="442.422" y="-452.09" font-family="Times,serif" font-size="14.00">index</text>
<text text-anchor="start" x="442.422" y="-435.29" font-family="Times,serif" font-size="14.00">new</text>
<text text-anchor="start" x="442.422" y="-418.49" font-family="Times,serif" font-size="14.00">show</text>
<text text-anchor="start" x="442.422" y="-401.69" font-family="Times,serif" font-size="14.00">update</text>
<polyline fill="none" stroke="black" points="434.422,-394.89 543.739,-394.89 "/>
<polyline fill="none" stroke="black" points="434.422,-370.89 543.739,-370.89 "/>
<text text-anchor="start" x="442.422" y="-352.89" font-family="Times,serif" font-size="14.00">_layout</text>
</g>
<!-- ApplicationController&#45;&gt;HandsController -->
<g id="edge4" class="edge"><title>ApplicationController&#45;&gt;HandsController</title>
<path fill="none" stroke="black" d="M364.958,-346.705C386.283,-362.268 409.658,-379.327 430.315,-394.403"/>
<polyline fill="none" stroke="black" points="434.409,-397.391 430.37,-394.443 "/>
</g>
<!-- WelcomeController -->
<g id="node7" class="node"><title>WelcomeController</title>
<path fill="none" stroke="black" d="M246.632,-444.961C246.632,-444.961 348.698,-444.961 348.698,-444.961 354.698,-444.961 360.698,-450.961 360.698,-456.961 360.698,-456.961 360.698,-531.361 360.698,-531.361 360.698,-537.361 354.698,-543.361 348.698,-543.361 348.698,-543.361 246.632,-543.361 246.632,-543.361 240.632,-543.361 234.632,-537.361 234.632,-531.361 234.632,-531.361 234.632,-456.961 234.632,-456.961 234.632,-450.961 240.632,-444.961 246.632,-444.961"/>
<text text-anchor="middle" x="297.665" y="-525.361" font-family="Times,serif" font-size="14.00">WelcomeController</text>
<polyline fill="none" stroke="black" points="234.632,-518.561 360.698,-518.561 "/>
<text text-anchor="start" x="242.632" y="-500.561" font-family="Times,serif" font-size="14.00">index</text>
<polyline fill="none" stroke="black" points="234.632,-493.761 360.698,-493.761 "/>
<polyline fill="none" stroke="black" points="234.632,-469.761 360.698,-469.761 "/>
<text text-anchor="start" x="242.632" y="-451.761" font-family="Times,serif" font-size="14.00">_layout</text>
</g>
<!-- ApplicationController&#45;&gt;WelcomeController -->
<g id="edge5" class="edge"><title>ApplicationController&#45;&gt;WelcomeController</title>
<path fill="none" stroke="black" d="M297.442,-346.78C297.485,-374.968 297.538,-410.358 297.582,-439.394"/>
<polyline fill="none" stroke="black" points="297.59,-444.738 297.582,-439.738 "/>
</g>
<!-- WhiteCardsController -->
<g id="node8" class="node"><title>WhiteCardsController</title>
<path fill="none" stroke="black" d="M46.6367,-56.9777C46.6367,-56.9777 163.051,-56.9777 163.051,-56.9777 169.051,-56.9777 175.051,-62.9777 175.051,-68.9777 175.051,-68.9777 175.051,-244.178 175.051,-244.178 175.051,-250.178 169.051,-256.178 163.051,-256.178 163.051,-256.178 46.6367,-256.178 46.6367,-256.178 40.6367,-256.178 34.6367,-250.178 34.6367,-244.178 34.6367,-244.178 34.6367,-68.9777 34.6367,-68.9777 34.6367,-62.9777 40.6367,-56.9777 46.6367,-56.9777"/>
<text text-anchor="middle" x="104.844" y="-238.178" font-family="Times,serif" font-size="14.00">WhiteCardsController</text>
<polyline fill="none" stroke="black" points="34.6367,-231.378 175.051,-231.378 "/>
<text text-anchor="start" x="42.6367" y="-213.378" font-family="Times,serif" font-size="14.00">create</text>
<text text-anchor="start" x="42.6367" y="-196.578" font-family="Times,serif" font-size="14.00">destroy</text>
<text text-anchor="start" x="42.6367" y="-179.778" font-family="Times,serif" font-size="14.00">edit</text>
<text text-anchor="start" x="42.6367" y="-162.978" font-family="Times,serif" font-size="14.00">index</text>
<text text-anchor="start" x="42.6367" y="-146.178" font-family="Times,serif" font-size="14.00">new</text>
<text text-anchor="start" x="42.6367" y="-129.378" font-family="Times,serif" font-size="14.00">show</text>
<text text-anchor="start" x="42.6367" y="-112.578" font-family="Times,serif" font-size="14.00">update</text>
<polyline fill="none" stroke="black" points="34.6367,-105.778 175.051,-105.778 "/>
<polyline fill="none" stroke="black" points="34.6367,-81.7777 175.051,-81.7777 "/>
<text text-anchor="start" x="42.6367" y="-63.7777" font-family="Times,serif" font-size="14.00">_layout</text>
</g>
<!-- ApplicationController&#45;&gt;WhiteCardsController -->
<g id="edge6" class="edge"><title>ApplicationController&#45;&gt;WhiteCardsController</title>
<path fill="none" stroke="black" d="M230.032,-248.132C213.638,-236.143 196.01,-223.251 179.307,-211.035"/>
<polyline fill="none" stroke="black" points="175.081,-207.945 179.117,-210.896 "/>
</g>
</g>
</svg>
