<?xml version="1.0" encoding="UTF-8" standalone="no"?>
<!DOCTYPE svg PUBLIC "-//W3C//DTD SVG 1.1//EN"
 "http://www.w3.org/Graphics/SVG/1.1/DTD/svg11.dtd">
<!-- Generated by graphviz version 2.34.0 (20131105.2002)
 -->
<!-- Title: controllers_diagram Pages: 1 -->
<svg width="621pt" height="355pt"
 viewBox="0.00 0.00 620.90 355.00" xmlns="http://www.w3.org/2000/svg" xmlns:xlink="http://www.w3.org/1999/xlink">
<g id="graph0" class="graph" transform="scale(1 1) rotate(0) translate(4 351)">
<title>controllers_diagram</title>
<polygon fill="white" stroke="white" points="-4,4 -4,-351 616.899,-351 616.899,4 -4,4"/>
<!-- _diagram_info -->
<g id="node1" class="node"><title>_diagram_info</title>
<text text-anchor="start" x="414" y="-330" font-family="Times,serif" font-size="13.00">Controllers diagram</text>
<text text-anchor="start" x="414" y="-314.4" font-family="Times,serif" font-size="13.00">Date: Nov 05 2013 &#45; 15:15</text>
<text text-anchor="start" x="414" y="-298.8" font-family="Times,serif" font-size="13.00">Migration version: 20131105201342</text>
<text text-anchor="start" x="414" y="-283.2" font-family="Times,serif" font-size="13.00">Generated by RailRoady 1.1.1</text>
<text text-anchor="start" x="414" y="-267.6" font-family="Times,serif" font-size="13.00">http://railroady.prestonlee.com</text>
</g>
<!-- ApplicationController -->
<g id="node2" class="node"><title>ApplicationController</title>
<ellipse fill="none" stroke="black" cx="250.257" cy="-112.309" rx="96.1448" ry="18"/>
<text text-anchor="middle" x="250.257" y="-106.709" font-family="Times,serif" font-size="14.00">ApplicationController</text>
</g>
<!-- BlackCardsController -->
<g id="node3" class="node"><title>BlackCardsController</title>
<ellipse fill="none" stroke="black" cx="403.32" cy="-42.5076" rx="95.5699" ry="18"/>
<text text-anchor="middle" x="403.32" y="-36.9076" font-family="Times,serif" font-size="14.00">BlackCardsController</text>
</g>
<!-- ApplicationController&#45;&gt;BlackCardsController -->
<g id="edge1" class="edge"><title>ApplicationController&#45;&gt;BlackCardsController</title>
<path fill="none" stroke="black" d="M286.919,-95.5898C309.555,-85.2673 338.646,-72.0007 362.083,-61.3128"/>
<polyline fill="none" stroke="black" points="366.692,-59.2112 362.142,-61.2859 "/>
</g>
<!-- DecksController -->
<g id="node4" class="node"><title>DecksController</title>
<ellipse fill="none" stroke="black" cx="250.006" cy="-18" rx="74.726" ry="18"/>
<text text-anchor="middle" x="250.006" y="-12.4" font-family="Times,serif" font-size="14.00">DecksController</text>
</g>
<!-- ApplicationController&#45;&gt;DecksController -->
<g id="edge2" class="edge"><title>ApplicationController&#45;&gt;DecksController</title>
<path fill="none" stroke="black" d="M250.209,-94.1253C250.169,-79.1214 250.112,-57.7285 250.069,-41.4397"/>
<polyline fill="none" stroke="black" points="250.054,-36.1279 250.068,-41.1279 "/>
</g>
<!-- GamesController -->
<g id="node5" class="node"><title>GamesController</title>
<ellipse fill="none" stroke="black" cx="97.5257" cy="-182.263" rx="77.5918" ry="18"/>
<text text-anchor="middle" x="97.5257" y="-176.663" font-family="Times,serif" font-size="14.00">GamesController</text>
</g>
<!-- ApplicationController&#45;&gt;GamesController -->
<g id="edge3" class="edge"><title>ApplicationController&#45;&gt;GamesController</title>
<path fill="none" stroke="black" d="M213.674,-129.065C190.674,-139.599 160.994,-153.194 137.394,-164.003"/>
<polyline fill="none" stroke="black" points="132.759,-166.126 137.304,-164.044 "/>
</g>
<!-- HandsController -->
<g id="node6" class="node"><title>HandsController</title>
<ellipse fill="none" stroke="black" cx="403.929" cy="-181.641" rx="75.3104" ry="18"/>
<text text-anchor="middle" x="403.929" y="-176.041" font-family="Times,serif" font-size="14.00">HandsController</text>
</g>
<!-- ApplicationController&#45;&gt;HandsController -->
<g id="edge4" class="edge"><title>ApplicationController&#45;&gt;HandsController</title>
<path fill="none" stroke="black" d="M287.457,-129.092C310.607,-139.537 340.369,-152.964 364.012,-163.631"/>
<polyline fill="none" stroke="black" points="368.655,-165.726 364.098,-163.67 "/>
</g>
<!-- WelcomeController -->
<g id="node7" class="node"><title>WelcomeController</title>
<ellipse fill="none" stroke="black" cx="251.722" cy="-206.606" rx="86.9153" ry="18"/>
<text text-anchor="middle" x="251.722" y="-201.006" font-family="Times,serif" font-size="14.00">WelcomeController</text>
</g>
<!-- ApplicationController&#45;&gt;WelcomeController -->
<g id="edge5" class="edge"><title>ApplicationController&#45;&gt;WelcomeController</title>
<path fill="none" stroke="black" d="M250.539,-130.49C250.773,-145.493 251.105,-166.883 251.358,-183.17"/>
<polyline fill="none" stroke="black" points="251.441,-188.481 251.363,-183.481 "/>
</g>
<!-- WhiteCardsController -->
<g id="node8" class="node"><title>WhiteCardsController</title>
<ellipse fill="none" stroke="black" cx="96.8551" cy="-42.9899" rx="96.7103" ry="18"/>
<text text-anchor="middle" x="96.8551" y="-37.3899" font-family="Times,serif" font-size="14.00">WhiteCardsController</text>
</g>
<!-- ApplicationController&#45;&gt;WhiteCardsController -->
<g id="edge6" class="edge"><title>ApplicationController&#45;&gt;WhiteCardsController</title>
<path fill="none" stroke="black" d="M213.123,-95.5288C190.595,-85.3488 161.795,-72.3351 138.496,-61.8066"/>
<polyline fill="none" stroke="black" points="133.913,-59.7356 138.469,-61.7946 "/>
</g>
</g>
</svg>
