<?xml version="1.0" encoding="UTF-8" standalone="no"?>
<!DOCTYPE svg PUBLIC "-//W3C//DTD SVG 1.1//EN"
 "http://www.w3.org/Graphics/SVG/1.1/DTD/svg11.dtd">
<!-- Generated by graphviz version 2.34.0 (20131105.2002)
 -->
<!-- Title: models_diagram Pages: 1 -->
<svg width="569pt" height="1030pt"
 viewBox="0.00 0.00 568.71 1030.00" xmlns="http://www.w3.org/2000/svg" xmlns:xlink="http://www.w3.org/1999/xlink">
<g id="graph0" class="graph" transform="scale(1 1) rotate(0) translate(4 1026)">
<title>models_diagram</title>
<polygon fill="white" stroke="white" points="-4,4 -4,-1026 564.709,-1026 564.709,4 -4,4"/>
<!-- _diagram_info -->
<g id="node1" class="node"><title>_diagram_info</title>
<text text-anchor="start" x="7.55029" y="-1005" font-family="Times,serif" font-size="13.00">Models diagram</text>
<text text-anchor="start" x="7.55029" y="-989.4" font-family="Times,serif" font-size="13.00">Date: Nov 24 2013 &#45; 02:57</text>
<text text-anchor="start" x="7.55029" y="-973.8" font-family="Times,serif" font-size="13.00">Migration version: 20131124045350</text>
<text text-anchor="start" x="7.55029" y="-958.2" font-family="Times,serif" font-size="13.00">Generated by RailRoady 1.1.1</text>
<text text-anchor="start" x="7.55029" y="-942.6" font-family="Times,serif" font-size="13.00">http://railroady.prestonlee.com</text>
</g>
<!-- BlackCard -->
<g id="node2" class="node"><title>BlackCard</title>
<path fill="none" stroke="black" d="M122.495,-0.8C122.495,-0.8 231.505,-0.8 231.505,-0.8 237.505,-0.8 243.505,-6.8 243.505,-12.8 243.505,-12.8 243.505,-139.2 243.505,-139.2 243.505,-145.2 237.505,-151.2 231.505,-151.2 231.505,-151.2 122.495,-151.2 122.495,-151.2 116.495,-151.2 110.495,-145.2 110.495,-139.2 110.495,-139.2 110.495,-12.8 110.495,-12.8 110.495,-6.8 116.495,-0.8 122.495,-0.8"/>
<text text-anchor="middle" x="177" y="-133.2" font-family="Times,serif" font-size="14.00">BlackCard</text>
<polyline fill="none" stroke="black" points="110.495,-126.4 243.505,-126.4 "/>
<text text-anchor="start" x="118.495" y="-108.4" font-family="Times,serif" font-size="14.00">id :integer</text>
<text text-anchor="start" x="118.495" y="-91.6" font-family="Times,serif" font-size="14.00">created_at :datetime</text>
<text text-anchor="start" x="118.495" y="-74.8" font-family="Times,serif" font-size="14.00">updated_at :datetime</text>
<text text-anchor="start" x="118.495" y="-58" font-family="Times,serif" font-size="14.00">num_blanks :integer</text>
<text text-anchor="start" x="118.495" y="-41.2" font-family="Times,serif" font-size="14.00">content :string</text>
<text text-anchor="start" x="118.495" y="-24.4" font-family="Times,serif" font-size="14.00">deck_id :integer</text>
<text text-anchor="start" x="118.495" y="-7.6" font-family="Times,serif" font-size="14.00">game_id :integer</text>
</g>
<!-- Deck -->
<g id="node3" class="node"><title>Deck</title>
<path fill="none" stroke="black" d="M217.495,-205.6C217.495,-205.6 326.505,-205.6 326.505,-205.6 332.505,-205.6 338.505,-211.6 338.505,-217.6 338.505,-217.6 338.505,-310.4 338.505,-310.4 338.505,-316.4 332.505,-322.4 326.505,-322.4 326.505,-322.4 217.495,-322.4 217.495,-322.4 211.495,-322.4 205.495,-316.4 205.495,-310.4 205.495,-310.4 205.495,-217.6 205.495,-217.6 205.495,-211.6 211.495,-205.6 217.495,-205.6"/>
<text text-anchor="middle" x="272" y="-304.4" font-family="Times,serif" font-size="14.00">Deck</text>
<polyline fill="none" stroke="black" points="205.495,-297.6 338.505,-297.6 "/>
<text text-anchor="start" x="213.495" y="-279.6" font-family="Times,serif" font-size="14.00">id :integer</text>
<text text-anchor="start" x="213.495" y="-262.8" font-family="Times,serif" font-size="14.00">name :string</text>
<text text-anchor="start" x="213.495" y="-246" font-family="Times,serif" font-size="14.00">created_at :datetime</text>
<text text-anchor="start" x="213.495" y="-229.2" font-family="Times,serif" font-size="14.00">updated_at :datetime</text>
<text text-anchor="start" x="213.495" y="-212.4" font-family="Times,serif" font-size="14.00">game_id :integer</text>
</g>
<!-- Deck&#45;&gt;BlackCard -->
<g id="edge3" class="edge"><title>Deck&#45;&gt;BlackCard</title>
<path fill="none" stroke="#947069" d="M238.861,-198.117C232.665,-185.987 226.11,-173.153 219.674,-160.552"/>
<ellipse fill="none" stroke="#947069" cx="240.773" cy="-201.86" rx="4.00002" ry="4.00002"/>
<polygon fill="#947069" stroke="#947069" points="219.564,-160.337 219.023,-149.384 217.29,-155.884 215.016,-151.431 215.016,-151.431 215.016,-151.431 217.29,-155.884 211.008,-153.478 219.564,-160.337 219.564,-160.337"/>
</g>
<!-- WhiteCard -->
<g id="node7" class="node"><title>WhiteCard</title>
<path fill="none" stroke="black" d="M380.495,-0.8C380.495,-0.8 489.505,-0.8 489.505,-0.8 495.505,-0.8 501.505,-6.8 501.505,-12.8 501.505,-12.8 501.505,-139.2 501.505,-139.2 501.505,-145.2 495.505,-151.2 489.505,-151.2 489.505,-151.2 380.495,-151.2 380.495,-151.2 374.495,-151.2 368.495,-145.2 368.495,-139.2 368.495,-139.2 368.495,-12.8 368.495,-12.8 368.495,-6.8 374.495,-0.8 380.495,-0.8"/>
<text text-anchor="middle" x="435" y="-133.2" font-family="Times,serif" font-size="14.00">WhiteCard</text>
<polyline fill="none" stroke="black" points="368.495,-126.4 501.505,-126.4 "/>
<text text-anchor="start" x="376.495" y="-108.4" font-family="Times,serif" font-size="14.00">id :integer</text>
<text text-anchor="start" x="376.495" y="-91.6" font-family="Times,serif" font-size="14.00">created_at :datetime</text>
<text text-anchor="start" x="376.495" y="-74.8" font-family="Times,serif" font-size="14.00">updated_at :datetime</text>
<text text-anchor="start" x="376.495" y="-58" font-family="Times,serif" font-size="14.00">content :string</text>
<text text-anchor="start" x="376.495" y="-41.2" font-family="Times,serif" font-size="14.00">deck_id :integer</text>
<text text-anchor="start" x="376.495" y="-24.4" font-family="Times,serif" font-size="14.00">hand_id :integer</text>
<text text-anchor="start" x="376.495" y="-7.6" font-family="Times,serif" font-size="14.00">user_id :integer</text>
</g>
<!-- Deck&#45;&gt;WhiteCard -->
<g id="edge2" class="edge"><title>Deck&#45;&gt;WhiteCard</title>
<path fill="none" stroke="#861d05" d="M327.781,-199.348C339.079,-186.455 351.113,-172.724 362.882,-159.295"/>
<ellipse fill="none" stroke="#861d05" cx="325.094" cy="-202.414" rx="4.00002" ry="4.00002"/>
<polygon fill="#861d05" stroke="#861d05" points="363.182,-158.952 373.157,-154.397 366.477,-155.191 369.773,-151.431 369.773,-151.431 369.773,-151.431 366.477,-155.191 366.388,-148.465 363.182,-158.952 363.182,-158.952"/>
</g>
<!-- Game -->
<g id="node4" class="node"><title>Game</title>
<path fill="none" stroke="black" d="M186.439,-698.6C186.439,-698.6 319.561,-698.6 319.561,-698.6 325.561,-698.6 331.561,-704.6 331.561,-710.6 331.561,-710.6 331.561,-887.4 331.561,-887.4 331.561,-893.4 325.561,-899.4 319.561,-899.4 319.561,-899.4 186.439,-899.4 186.439,-899.4 180.439,-899.4 174.439,-893.4 174.439,-887.4 174.439,-887.4 174.439,-710.6 174.439,-710.6 174.439,-704.6 180.439,-698.6 186.439,-698.6"/>
<text text-anchor="middle" x="253" y="-881.4" font-family="Times,serif" font-size="14.00">Game</text>
<polyline fill="none" stroke="black" points="174.439,-874.6 331.561,-874.6 "/>
<text text-anchor="start" x="182.439" y="-856.6" font-family="Times,serif" font-size="14.00">id :integer</text>
<text text-anchor="start" x="182.439" y="-839.8" font-family="Times,serif" font-size="14.00">players :integer</text>
<text text-anchor="start" x="182.439" y="-823" font-family="Times,serif" font-size="14.00">created_at :datetime</text>
<text text-anchor="start" x="182.439" y="-806.2" font-family="Times,serif" font-size="14.00">updated_at :datetime</text>
<text text-anchor="start" x="182.439" y="-789.4" font-family="Times,serif" font-size="14.00">name :string</text>
<text text-anchor="start" x="182.439" y="-772.6" font-family="Times,serif" font-size="14.00">max_players :integer</text>
<text text-anchor="start" x="182.439" y="-755.8" font-family="Times,serif" font-size="14.00">finished :boolean</text>
<text text-anchor="start" x="182.439" y="-739" font-family="Times,serif" font-size="14.00">original_deck_id :integer</text>
<text text-anchor="start" x="182.439" y="-722.2" font-family="Times,serif" font-size="14.00">czar_id :integer</text>
<text text-anchor="start" x="182.439" y="-705.4" font-family="Times,serif" font-size="14.00">max_score :integer</text>
</g>
<!-- Game&#45;&gt;BlackCard -->
<g id="edge5" class="edge"><title>Game&#45;&gt;BlackCard</title>
<path fill="none" stroke="#401573" d="M230.559,-690.29C228.891,-680.745 227.34,-671.212 226,-662 200.07,-483.728 186.587,-272.745 180.725,-159.211"/>
<ellipse fill="none" stroke="#401573" cx="231.285" cy="-694.367" rx="4.00001" ry="4.00001"/>
<ellipse fill="#401573" stroke="#401573" cx="180.52" cy="-155.202" rx="4" ry="4"/>
</g>
<!-- Game&#45;&gt;Deck -->
<g id="edge6" class="edge"><title>Game&#45;&gt;Deck</title>
<path fill="none" stroke="#18f87f" d="M238.981,-690.371C230.337,-604.745 223.56,-482.113 239,-376 241.194,-360.922 244.981,-345.043 249.226,-330.158"/>
<ellipse fill="none" stroke="#18f87f" cx="239.413" cy="-694.561" rx="4" ry="4"/>
<ellipse fill="#18f87f" stroke="#18f87f" cx="250.355" cy="-326.313" rx="4.00001" ry="4.00001"/>
</g>
<!-- Hand -->
<g id="node5" class="node"><title>Hand</title>
<path fill="none" stroke="black" d="M368.812,-188.8C368.812,-188.8 501.188,-188.8 501.188,-188.8 507.188,-188.8 513.188,-194.8 513.188,-200.8 513.188,-200.8 513.188,-327.2 513.188,-327.2 513.188,-333.2 507.188,-339.2 501.188,-339.2 501.188,-339.2 368.812,-339.2 368.812,-339.2 362.812,-339.2 356.812,-333.2 356.812,-327.2 356.812,-327.2 356.812,-200.8 356.812,-200.8 356.812,-194.8 362.812,-188.8 368.812,-188.8"/>
<text text-anchor="middle" x="435" y="-321.2" font-family="Times,serif" font-size="14.00">Hand</text>
<polyline fill="none" stroke="black" points="356.812,-314.4 513.188,-314.4 "/>
<text text-anchor="start" x="364.812" y="-296.4" font-family="Times,serif" font-size="14.00">id :integer</text>
<text text-anchor="start" x="364.812" y="-279.6" font-family="Times,serif" font-size="14.00">created_at :datetime</text>
<text text-anchor="start" x="364.812" y="-262.8" font-family="Times,serif" font-size="14.00">updated_at :datetime</text>
<text text-anchor="start" x="364.812" y="-246" font-family="Times,serif" font-size="14.00">user_id :integer</text>
<text text-anchor="start" x="364.812" y="-229.2" font-family="Times,serif" font-size="14.00">game_id :integer</text>
<text text-anchor="start" x="364.812" y="-212.4" font-family="Times,serif" font-size="14.00">score :integer</text>
<text text-anchor="start" x="364.812" y="-195.6" font-family="Times,serif" font-size="14.00">submissions_left :integer</text>
</g>
<!-- Game&#45;&gt;Hand -->
<g id="edge7" class="edge"><title>Game&#45;&gt;Hand</title>
<path fill="none" stroke="#3d5ec5" d="M245.619,-690.489C240.343,-582.69 239.103,-425.762 272,-376 292.391,-345.156 316.005,-360.16 347,-340 347.4,-339.74 347.799,-339.478 348.199,-339.215"/>
<ellipse fill="none" stroke="#3d5ec5" cx="245.821" cy="-694.492" rx="4" ry="4"/>
<polygon fill="#3d5ec5" stroke="#3d5ec5" points="348.346,-339.116 359.141,-337.191 352.474,-336.295 356.603,-333.475 356.603,-333.475 356.603,-333.475 352.474,-336.295 354.065,-329.759 348.346,-339.116 348.346,-339.116"/>
</g>
<!-- User -->
<g id="node6" class="node"><title>User</title>
<path fill="none" stroke="black" d="M292.722,-376.6C292.722,-376.6 473.278,-376.6 473.278,-376.6 479.278,-376.6 485.278,-382.6 485.278,-388.6 485.278,-388.6 485.278,-649.4 485.278,-649.4 485.278,-655.4 479.278,-661.4 473.278,-661.4 473.278,-661.4 292.722,-661.4 292.722,-661.4 286.722,-661.4 280.722,-655.4 280.722,-649.4 280.722,-649.4 280.722,-388.6 280.722,-388.6 280.722,-382.6 286.722,-376.6 292.722,-376.6"/>
<text text-anchor="middle" x="383" y="-643.4" font-family="Times,serif" font-size="14.00">User</text>
<polyline fill="none" stroke="black" points="280.722,-636.6 485.278,-636.6 "/>
<text text-anchor="start" x="288.722" y="-618.6" font-family="Times,serif" font-size="14.00">id :integer</text>
<text text-anchor="start" x="288.722" y="-601.8" font-family="Times,serif" font-size="14.00">email :string</text>
<text text-anchor="start" x="288.722" y="-585" font-family="Times,serif" font-size="14.00">encrypted_password :string</text>
<text text-anchor="start" x="288.722" y="-568.2" font-family="Times,serif" font-size="14.00">reset_password_token :string</text>
<text text-anchor="start" x="288.722" y="-551.4" font-family="Times,serif" font-size="14.00">reset_password_sent_at :datetime</text>
<text text-anchor="start" x="288.722" y="-534.6" font-family="Times,serif" font-size="14.00">remember_created_at :datetime</text>
<text text-anchor="start" x="288.722" y="-517.8" font-family="Times,serif" font-size="14.00">sign_in_count :integer</text>
<text text-anchor="start" x="288.722" y="-501" font-family="Times,serif" font-size="14.00">current_sign_in_at :datetime</text>
<text text-anchor="start" x="288.722" y="-484.2" font-family="Times,serif" font-size="14.00">last_sign_in_at :datetime</text>
<text text-anchor="start" x="288.722" y="-467.4" font-family="Times,serif" font-size="14.00">current_sign_in_ip :string</text>
<text text-anchor="start" x="288.722" y="-450.6" font-family="Times,serif" font-size="14.00">last_sign_in_ip :string</text>
<text text-anchor="start" x="288.722" y="-433.8" font-family="Times,serif" font-size="14.00">created_at :datetime</text>
<text text-anchor="start" x="288.722" y="-417" font-family="Times,serif" font-size="14.00">updated_at :datetime</text>
<text text-anchor="start" x="288.722" y="-400.2" font-family="Times,serif" font-size="14.00">game_id :integer</text>
<text text-anchor="start" x="288.722" y="-383.4" font-family="Times,serif" font-size="14.00">wins :integer</text>
</g>
<!-- Game&#45;&gt;User -->
<g id="edge8" class="edge"><title>Game&#45;&gt;User</title>
<path fill="none" stroke="#f044e3" d="M303.808,-689.35C306.679,-683.209 309.589,-676.986 312.514,-670.731"/>
<polygon fill="#f044e3" stroke="#f044e3" points="303.802,-689.362 295.489,-696.515 301.684,-693.892 299.566,-698.421 299.566,-698.421 299.566,-698.421 301.684,-693.892 303.642,-700.327 303.802,-689.362 303.802,-689.362"/>
<polygon fill="#f044e3" stroke="#f044e3" points="312.572,-670.608 320.884,-663.456 314.69,-666.079 316.808,-661.55 316.808,-661.55 316.808,-661.55 314.69,-666.079 312.731,-659.644 312.572,-670.608 312.572,-670.608"/>
</g>
<!-- Hand&#45;&gt;WhiteCard -->
<g id="edge10" class="edge"><title>Hand&#45;&gt;WhiteCard</title>
<path fill="none" stroke="#6dea7b" d="M435,-180.596C435,-174.391 435,-168.122 435,-161.902"/>
<ellipse fill="none" stroke="#6dea7b" cx="435" cy="-184.686" rx="4" ry="4"/>
<polygon fill="#6dea7b" stroke="#6dea7b" points="435,-161.5 439.5,-151.499 435,-156.5 435,-151.5 435,-151.5 435,-151.5 435,-156.5 430.5,-151.5 435,-161.5 435,-161.5"/>
</g>
<!-- User&#45;&gt;Deck -->
<g id="edge13" class="edge"><title>User&#45;&gt;Deck</title>
<path fill="none" stroke="#6c8c7a" d="M317.544,-368.808C311.895,-355.933 306.389,-343.382 301.269,-331.712"/>
<ellipse fill="none" stroke="#6c8c7a" cx="319.241" cy="-372.675" rx="4.00002" ry="4.00002"/>
<polygon fill="#6c8c7a" stroke="#6c8c7a" points="301.268,-331.71 301.371,-320.745 299.259,-327.132 297.251,-322.553 297.251,-322.553 297.251,-322.553 299.259,-327.132 293.13,-324.361 301.268,-331.71 301.268,-331.71"/>
</g>
<!-- User&#45;&gt;Hand -->
<g id="edge12" class="edge"><title>User&#45;&gt;Hand</title>
<path fill="none" stroke="#f5d04c" d="M413.769,-368.296C415.083,-361.903 416.38,-355.592 417.647,-349.43"/>
<ellipse fill="none" stroke="#f5d04c" cx="412.922" cy="-372.42" rx="4.00001" ry="4.00001"/>
<polygon fill="#f5d04c" stroke="#f5d04c" points="417.733,-349.011 424.154,-340.122 418.74,-344.113 419.746,-339.216 419.746,-339.216 419.746,-339.216 418.74,-344.113 415.338,-338.31 417.733,-349.011 417.733,-349.011"/>
</g>
<!-- ActiveRecord::Base -->
<g id="node8" class="node"><title>ActiveRecord::Base</title>
<ellipse fill="none" stroke="black" cx="313" cy="-979" rx="88.2033" ry="18"/>
<text text-anchor="middle" x="313" y="-973.4" font-family="Times,serif" font-size="14.00">ActiveRecord::Base</text>
</g>
<!-- ActiveRecord::Base&#45;&gt;BlackCard -->
<g id="edge1" class="edge"><title>ActiveRecord::Base&#45;&gt;BlackCard</title>
<path fill="none" stroke="black" d="M277.828,-962.327C259.254,-954.203 236.012,-944.276 215,-936 171.05,-918.689 142.162,-938.646 115,-900 -45.4664,-671.684 74.1119,-314.422 140.505,-156.56"/>
<polyline fill="none" stroke="black" points="142.649,-151.489 140.702,-156.094 "/>
</g>
<!-- ActiveRecord::Base&#45;&gt;Deck -->
<g id="edge4" class="edge"><title>ActiveRecord::Base&#45;&gt;Deck</title>
<path fill="none" stroke="black" d="M273.8,-962.771C234.234,-946.508 177.266,-920.33 165,-900 53.3799,-715 171.276,-447.419 235.762,-327.383"/>
<polyline fill="none" stroke="black" points="238.223,-322.826 235.847,-327.225 "/>
</g>
<!-- ActiveRecord::Base&#45;&gt;Game -->
<g id="edge9" class="edge"><title>ActiveRecord::Base&#45;&gt;Game</title>
<path fill="none" stroke="black" d="M307.247,-960.933C302.611,-947.18 295.669,-926.583 288.285,-904.678"/>
<polyline fill="none" stroke="black" points="286.603,-899.688 288.2,-904.426 "/>
</g>
<!-- ActiveRecord::Base&#45;&gt;Hand -->
<g id="edge11" class="edge"><title>ActiveRecord::Base&#45;&gt;Hand</title>
<path fill="none" stroke="black" d="M327.472,-961.022C364.698,-916.032 463.022,-788.502 494,-662 524.234,-538.537 524.742,-499.338 494,-376 491.345,-365.349 487.456,-354.599 482.92,-344.199"/>
<polyline fill="none" stroke="black" points="480.793,-339.447 482.836,-344.011 "/>
</g>
<!-- ActiveRecord::Base&#45;&gt;User -->
<g id="edge14" class="edge"><title>ActiveRecord::Base&#45;&gt;User</title>
<path fill="none" stroke="black" d="M320.119,-960.969C326.341,-945.377 335.12,-921.522 340,-900 357.24,-823.963 367.711,-737.725 373.997,-666.644"/>
<polyline fill="none" stroke="black" points="374.442,-661.553 374.006,-666.534 "/>
</g>
<!-- ActiveRecord::Base&#45;&gt;WhiteCard -->
<g id="edge15" class="edge"><title>ActiveRecord::Base&#45;&gt;WhiteCard</title>
<path fill="none" stroke="black" d="M352.931,-962.838C381.495,-950.09 418.843,-929.234 442,-900 511.033,-812.853 501.166,-771.736 519,-662 552.794,-454.057 590.742,-387.14 522,-188 517.803,-175.843 511.666,-164.001 504.561,-152.858"/>
<polyline fill="none" stroke="black" points="501.683,-148.458 504.42,-152.642 "/>
</g>
</g>
</svg>
