<?xml version="1.0" encoding="UTF-8" standalone="no"?>
<!DOCTYPE svg PUBLIC "-//W3C//DTD SVG 1.1//EN"
 "http://www.w3.org/Graphics/SVG/1.1/DTD/svg11.dtd">
<!-- Generated by graphviz version 2.34.0 (20131105.2002)
 -->
<!-- Title: models_diagram Pages: 1 -->
<svg width="557pt" height="998pt"
 viewBox="0.00 0.00 556.61 998.00" xmlns="http://www.w3.org/2000/svg" xmlns:xlink="http://www.w3.org/1999/xlink">
<g id="graph0" class="graph" transform="scale(1 1) rotate(0) translate(4 994)">
<title>models_diagram</title>
<polygon fill="white" stroke="white" points="-4,4 -4,-994 552.61,-994 552.61,4 -4,4"/>
<!-- _diagram_info -->
<g id="node1" class="node"><title>_diagram_info</title>
<text text-anchor="start" x="7.2644" y="-973" font-family="Times,serif" font-size="13.00">Models diagram</text>
<text text-anchor="start" x="7.2644" y="-957.4" font-family="Times,serif" font-size="13.00">Date: Nov 21 2013 &#45; 17:29</text>
<text text-anchor="start" x="7.2644" y="-941.8" font-family="Times,serif" font-size="13.00">Migration version: 20131119201115</text>
<text text-anchor="start" x="7.2644" y="-926.2" font-family="Times,serif" font-size="13.00">Generated by RailRoady 1.1.1</text>
<text text-anchor="start" x="7.2644" y="-910.6" font-family="Times,serif" font-size="13.00">http://railroady.prestonlee.com</text>
</g>
<!-- BlackCard -->
<g id="node2" class="node"><title>BlackCard</title>
<path fill="none" stroke="black" d="M121.495,-0.8C121.495,-0.8 230.505,-0.8 230.505,-0.8 236.505,-0.8 242.505,-6.8 242.505,-12.8 242.505,-12.8 242.505,-139.2 242.505,-139.2 242.505,-145.2 236.505,-151.2 230.505,-151.2 230.505,-151.2 121.495,-151.2 121.495,-151.2 115.495,-151.2 109.495,-145.2 109.495,-139.2 109.495,-139.2 109.495,-12.8 109.495,-12.8 109.495,-6.8 115.495,-0.8 121.495,-0.8"/>
<text text-anchor="middle" x="176" y="-133.2" font-family="Times,serif" font-size="14.00">BlackCard</text>
<polyline fill="none" stroke="black" points="109.495,-126.4 242.505,-126.4 "/>
<text text-anchor="start" x="117.495" y="-108.4" font-family="Times,serif" font-size="14.00">id :integer</text>
<text text-anchor="start" x="117.495" y="-91.6" font-family="Times,serif" font-size="14.00">created_at :datetime</text>
<text text-anchor="start" x="117.495" y="-74.8" font-family="Times,serif" font-size="14.00">updated_at :datetime</text>
<text text-anchor="start" x="117.495" y="-58" font-family="Times,serif" font-size="14.00">num_blanks :integer</text>
<text text-anchor="start" x="117.495" y="-41.2" font-family="Times,serif" font-size="14.00">content :string</text>
<text text-anchor="start" x="117.495" y="-24.4" font-family="Times,serif" font-size="14.00">deck_id :integer</text>
<text text-anchor="start" x="117.495" y="-7.6" font-family="Times,serif" font-size="14.00">game_id :integer</text>
</g>
<!-- Deck -->
<g id="node3" class="node"><title>Deck</title>
<path fill="none" stroke="black" d="M216.495,-197.6C216.495,-197.6 325.505,-197.6 325.505,-197.6 331.505,-197.6 337.505,-203.6 337.505,-209.6 337.505,-209.6 337.505,-302.4 337.505,-302.4 337.505,-308.4 331.505,-314.4 325.505,-314.4 325.505,-314.4 216.495,-314.4 216.495,-314.4 210.495,-314.4 204.495,-308.4 204.495,-302.4 204.495,-302.4 204.495,-209.6 204.495,-209.6 204.495,-203.6 210.495,-197.6 216.495,-197.6"/>
<text text-anchor="middle" x="271" y="-296.4" font-family="Times,serif" font-size="14.00">Deck</text>
<polyline fill="none" stroke="black" points="204.495,-289.6 337.505,-289.6 "/>
<text text-anchor="start" x="212.495" y="-271.6" font-family="Times,serif" font-size="14.00">id :integer</text>
<text text-anchor="start" x="212.495" y="-254.8" font-family="Times,serif" font-size="14.00">name :string</text>
<text text-anchor="start" x="212.495" y="-238" font-family="Times,serif" font-size="14.00">created_at :datetime</text>
<text text-anchor="start" x="212.495" y="-221.2" font-family="Times,serif" font-size="14.00">updated_at :datetime</text>
<text text-anchor="start" x="212.495" y="-204.4" font-family="Times,serif" font-size="14.00">game_id :integer</text>
</g>
<!-- Deck&#45;&gt;BlackCard -->
<g id="edge3" class="edge"><title>Deck&#45;&gt;BlackCard</title>
<path fill="none" stroke="#b4660c" d="M236.265,-189.918C231.145,-180.325 225.811,-170.331 220.527,-160.429"/>
<ellipse fill="none" stroke="#b4660c" cx="238.273" cy="-193.68" rx="4.00002" ry="4.00002"/>
<polygon fill="#b4660c" stroke="#b4660c" points="220.404,-160.198 219.665,-149.257 218.049,-155.787 215.695,-151.376 215.695,-151.376 215.695,-151.376 218.049,-155.787 211.725,-153.495 220.404,-160.198 220.404,-160.198"/>
</g>
<!-- WhiteCard -->
<g id="node7" class="node"><title>WhiteCard</title>
<path fill="none" stroke="black" d="M367.495,-0.8C367.495,-0.8 476.505,-0.8 476.505,-0.8 482.505,-0.8 488.505,-6.8 488.505,-12.8 488.505,-12.8 488.505,-139.2 488.505,-139.2 488.505,-145.2 482.505,-151.2 476.505,-151.2 476.505,-151.2 367.495,-151.2 367.495,-151.2 361.495,-151.2 355.495,-145.2 355.495,-139.2 355.495,-139.2 355.495,-12.8 355.495,-12.8 355.495,-6.8 361.495,-0.8 367.495,-0.8"/>
<text text-anchor="middle" x="422" y="-133.2" font-family="Times,serif" font-size="14.00">WhiteCard</text>
<polyline fill="none" stroke="black" points="355.495,-126.4 488.505,-126.4 "/>
<text text-anchor="start" x="363.495" y="-108.4" font-family="Times,serif" font-size="14.00">id :integer</text>
<text text-anchor="start" x="363.495" y="-91.6" font-family="Times,serif" font-size="14.00">created_at :datetime</text>
<text text-anchor="start" x="363.495" y="-74.8" font-family="Times,serif" font-size="14.00">updated_at :datetime</text>
<text text-anchor="start" x="363.495" y="-58" font-family="Times,serif" font-size="14.00">content :string</text>
<text text-anchor="start" x="363.495" y="-41.2" font-family="Times,serif" font-size="14.00">deck_id :integer</text>
<text text-anchor="start" x="363.495" y="-24.4" font-family="Times,serif" font-size="14.00">hand_id :integer</text>
<text text-anchor="start" x="363.495" y="-7.6" font-family="Times,serif" font-size="14.00">user_id :integer</text>
</g>
<!-- Deck&#45;&gt;WhiteCard -->
<g id="edge2" class="edge"><title>Deck&#45;&gt;WhiteCard</title>
<path fill="none" stroke="#2d01d7" d="M325.317,-190.97C334.083,-180.637 343.263,-169.816 352.331,-159.127"/>
<ellipse fill="none" stroke="#2d01d7" cx="322.613" cy="-194.158" rx="4.00002" ry="4.00002"/>
<polygon fill="#2d01d7" stroke="#2d01d7" points="352.437,-159.002 362.337,-154.287 355.671,-155.189 358.906,-151.376 358.906,-151.376 358.906,-151.376 355.671,-155.189 355.474,-148.465 352.437,-159.002 352.437,-159.002"/>
</g>
<!-- Game -->
<g id="node4" class="node"><title>Game</title>
<path fill="none" stroke="black" d="M185.439,-683C185.439,-683 318.561,-683 318.561,-683 324.561,-683 330.561,-689 330.561,-695 330.561,-695 330.561,-855 330.561,-855 330.561,-861 324.561,-867 318.561,-867 318.561,-867 185.439,-867 185.439,-867 179.439,-867 173.439,-861 173.439,-855 173.439,-855 173.439,-695 173.439,-695 173.439,-689 179.439,-683 185.439,-683"/>
<text text-anchor="middle" x="252" y="-849" font-family="Times,serif" font-size="14.00">Game</text>
<polyline fill="none" stroke="black" points="173.439,-842.2 330.561,-842.2 "/>
<text text-anchor="start" x="181.439" y="-824.2" font-family="Times,serif" font-size="14.00">id :integer</text>
<text text-anchor="start" x="181.439" y="-807.4" font-family="Times,serif" font-size="14.00">players :integer</text>
<text text-anchor="start" x="181.439" y="-790.6" font-family="Times,serif" font-size="14.00">created_at :datetime</text>
<text text-anchor="start" x="181.439" y="-773.8" font-family="Times,serif" font-size="14.00">updated_at :datetime</text>
<text text-anchor="start" x="181.439" y="-757" font-family="Times,serif" font-size="14.00">name :string</text>
<text text-anchor="start" x="181.439" y="-740.2" font-family="Times,serif" font-size="14.00">max_players :integer</text>
<text text-anchor="start" x="181.439" y="-723.4" font-family="Times,serif" font-size="14.00">finished :boolean</text>
<text text-anchor="start" x="181.439" y="-706.6" font-family="Times,serif" font-size="14.00">original_deck_id :integer</text>
<text text-anchor="start" x="181.439" y="-689.8" font-family="Times,serif" font-size="14.00">czar_id :integer</text>
</g>
<!-- Game&#45;&gt;BlackCard -->
<g id="edge5" class="edge"><title>Game&#45;&gt;BlackCard</title>
<path fill="none" stroke="#437246" d="M229.911,-674.835C228.1,-665.118 226.422,-655.385 225,-646 198.949,-474.091 185.596,-270.706 179.768,-159.632"/>
<ellipse fill="none" stroke="#437246" cx="230.714" cy="-679.055" rx="4.00001" ry="4.00001"/>
<ellipse fill="#437246" stroke="#437246" cx="179.552" cy="-155.464" rx="4" ry="4"/>
</g>
<!-- Game&#45;&gt;Deck -->
<g id="edge6" class="edge"><title>Game&#45;&gt;Deck</title>
<path fill="none" stroke="#776bd8" d="M238.249,-674.924C229.029,-590.656 221.326,-466.691 238,-360 239.926,-347.673 243.076,-334.806 246.684,-322.51"/>
<ellipse fill="none" stroke="#776bd8" cx="238.701" cy="-678.978" rx="4.00001" ry="4.00001"/>
<ellipse fill="#776bd8" stroke="#776bd8" cx="247.949" cy="-318.351" rx="4.00001" ry="4.00001"/>
</g>
<!-- Hand -->
<g id="node5" class="node"><title>Hand</title>
<path fill="none" stroke="black" d="M367.495,-189.2C367.495,-189.2 476.505,-189.2 476.505,-189.2 482.505,-189.2 488.505,-195.2 488.505,-201.2 488.505,-201.2 488.505,-310.8 488.505,-310.8 488.505,-316.8 482.505,-322.8 476.505,-322.8 476.505,-322.8 367.495,-322.8 367.495,-322.8 361.495,-322.8 355.495,-316.8 355.495,-310.8 355.495,-310.8 355.495,-201.2 355.495,-201.2 355.495,-195.2 361.495,-189.2 367.495,-189.2"/>
<text text-anchor="middle" x="422" y="-304.8" font-family="Times,serif" font-size="14.00">Hand</text>
<polyline fill="none" stroke="black" points="355.495,-298 488.505,-298 "/>
<text text-anchor="start" x="363.495" y="-280" font-family="Times,serif" font-size="14.00">id :integer</text>
<text text-anchor="start" x="363.495" y="-263.2" font-family="Times,serif" font-size="14.00">created_at :datetime</text>
<text text-anchor="start" x="363.495" y="-246.4" font-family="Times,serif" font-size="14.00">updated_at :datetime</text>
<text text-anchor="start" x="363.495" y="-229.6" font-family="Times,serif" font-size="14.00">user_id :integer</text>
<text text-anchor="start" x="363.495" y="-212.8" font-family="Times,serif" font-size="14.00">game_id :integer</text>
<text text-anchor="start" x="363.495" y="-196" font-family="Times,serif" font-size="14.00">score :integer</text>
</g>
<!-- Game&#45;&gt;Hand -->
<g id="edge7" class="edge"><title>Game&#45;&gt;Hand</title>
<path fill="none" stroke="#03d2f4" d="M245.167,-674.799C239.838,-568.953 238.059,-409.781 271,-360 291.404,-329.165 315.175,-344.418 346,-324 346.289,-323.809 346.577,-323.617 346.866,-323.423"/>
<ellipse fill="none" stroke="#03d2f4" cx="245.383" cy="-678.965" rx="4" ry="4"/>
<polygon fill="#03d2f4" stroke="#03d2f4" points="347.043,-323.3 357.816,-321.251 351.139,-320.432 355.235,-317.565 355.235,-317.565 355.235,-317.565 351.139,-320.432 352.655,-313.878 347.043,-323.3 347.043,-323.3"/>
</g>
<!-- User -->
<g id="node6" class="node"><title>User</title>
<path fill="none" stroke="black" d="M291.722,-360.6C291.722,-360.6 472.278,-360.6 472.278,-360.6 478.278,-360.6 484.278,-366.6 484.278,-372.6 484.278,-372.6 484.278,-633.4 484.278,-633.4 484.278,-639.4 478.278,-645.4 472.278,-645.4 472.278,-645.4 291.722,-645.4 291.722,-645.4 285.722,-645.4 279.722,-639.4 279.722,-633.4 279.722,-633.4 279.722,-372.6 279.722,-372.6 279.722,-366.6 285.722,-360.6 291.722,-360.6"/>
<text text-anchor="middle" x="382" y="-627.4" font-family="Times,serif" font-size="14.00">User</text>
<polyline fill="none" stroke="black" points="279.722,-620.6 484.278,-620.6 "/>
<text text-anchor="start" x="287.722" y="-602.6" font-family="Times,serif" font-size="14.00">id :integer</text>
<text text-anchor="start" x="287.722" y="-585.8" font-family="Times,serif" font-size="14.00">email :string</text>
<text text-anchor="start" x="287.722" y="-569" font-family="Times,serif" font-size="14.00">encrypted_password :string</text>
<text text-anchor="start" x="287.722" y="-552.2" font-family="Times,serif" font-size="14.00">reset_password_token :string</text>
<text text-anchor="start" x="287.722" y="-535.4" font-family="Times,serif" font-size="14.00">reset_password_sent_at :datetime</text>
<text text-anchor="start" x="287.722" y="-518.6" font-family="Times,serif" font-size="14.00">remember_created_at :datetime</text>
<text text-anchor="start" x="287.722" y="-501.8" font-family="Times,serif" font-size="14.00">sign_in_count :integer</text>
<text text-anchor="start" x="287.722" y="-485" font-family="Times,serif" font-size="14.00">current_sign_in_at :datetime</text>
<text text-anchor="start" x="287.722" y="-468.2" font-family="Times,serif" font-size="14.00">last_sign_in_at :datetime</text>
<text text-anchor="start" x="287.722" y="-451.4" font-family="Times,serif" font-size="14.00">current_sign_in_ip :string</text>
<text text-anchor="start" x="287.722" y="-434.6" font-family="Times,serif" font-size="14.00">last_sign_in_ip :string</text>
<text text-anchor="start" x="287.722" y="-417.8" font-family="Times,serif" font-size="14.00">created_at :datetime</text>
<text text-anchor="start" x="287.722" y="-401" font-family="Times,serif" font-size="14.00">updated_at :datetime</text>
<text text-anchor="start" x="287.722" y="-384.2" font-family="Times,serif" font-size="14.00">game_id :integer</text>
<text text-anchor="start" x="287.722" y="-367.4" font-family="Times,serif" font-size="14.00">wins :integer</text>
</g>
<!-- Game&#45;&gt;User -->
<g id="edge8" class="edge"><title>Game&#45;&gt;User</title>
<path fill="none" stroke="#52991e" d="M300.243,-673.804C303.234,-667.59 306.277,-661.272 309.342,-654.905"/>
<polygon fill="#52991e" stroke="#52991e" points="300.169,-673.957 291.776,-681.015 298,-678.462 295.831,-682.967 295.831,-682.967 295.831,-682.967 298,-678.462 299.885,-684.919 300.169,-673.957 300.169,-673.957"/>
<polygon fill="#52991e" stroke="#52991e" points="309.509,-654.559 317.901,-647.501 311.678,-650.054 313.847,-645.549 313.847,-645.549 313.847,-645.549 311.678,-650.054 309.792,-643.597 309.509,-654.559 309.509,-654.559"/>
</g>
<!-- Hand&#45;&gt;WhiteCard -->
<g id="edge10" class="edge"><title>Hand&#45;&gt;WhiteCard</title>
<path fill="none" stroke="#6e0eee" d="M422,-180.842C422,-174.437 422,-167.926 422,-161.448"/>
<ellipse fill="none" stroke="#6e0eee" cx="422" cy="-184.972" rx="4" ry="4"/>
<polygon fill="#6e0eee" stroke="#6e0eee" points="422,-161.314 426.5,-151.314 422,-156.314 422,-151.314 422,-151.314 422,-151.314 422,-156.314 417.5,-151.314 422,-161.314 422,-161.314"/>
</g>
<!-- User&#45;&gt;Deck -->
<g id="edge13" class="edge"><title>User&#45;&gt;Deck</title>
<path fill="none" stroke="#cbca0a" d="M314.505,-353.025C309.93,-342.926 305.469,-333.08 301.255,-323.778"/>
<ellipse fill="none" stroke="#cbca0a" cx="316.262" cy="-356.903" rx="4.00002" ry="4.00002"/>
<polygon fill="#cbca0a" stroke="#cbca0a" points="301.254,-323.778 301.227,-312.812 299.191,-319.223 297.128,-314.669 297.128,-314.669 297.128,-314.669 299.191,-319.223 293.029,-316.526 301.254,-323.778 301.254,-323.778"/>
</g>
<!-- User&#45;&gt;Hand -->
<g id="edge12" class="edge"><title>User&#45;&gt;Hand</title>
<path fill="none" stroke="#8f1700" d="M406.386,-352.636C407.488,-345.888 408.571,-339.253 409.621,-332.821"/>
<ellipse fill="none" stroke="#8f1700" cx="405.739" cy="-356.599" rx="4.00001" ry="4.00001"/>
<polygon fill="#8f1700" stroke="#8f1700" points="409.631,-332.761 415.683,-323.617 410.437,-327.826 411.242,-322.892 411.242,-322.892 411.242,-322.892 410.437,-327.826 406.801,-322.166 409.631,-332.761 409.631,-332.761"/>
</g>
<!-- ActiveRecord::Base -->
<g id="node8" class="node"><title>ActiveRecord::Base</title>
<ellipse fill="none" stroke="black" cx="312" cy="-947" rx="88.2033" ry="18"/>
<text text-anchor="middle" x="312" y="-941.4" font-family="Times,serif" font-size="14.00">ActiveRecord::Base</text>
</g>
<!-- ActiveRecord::Base&#45;&gt;BlackCard -->
<g id="edge1" class="edge"><title>ActiveRecord::Base&#45;&gt;BlackCard</title>
<path fill="none" stroke="black" d="M276.409,-930.469C257.628,-922.383 234.153,-912.449 213,-904 170.683,-887.098 142.955,-905.454 117,-868 -34.7954,-648.959 76.6254,-309.06 140.05,-156.202"/>
<polyline fill="none" stroke="black" points="142.099,-151.289 140.175,-155.904 "/>
</g>
<!-- ActiveRecord::Base&#45;&gt;Deck -->
<g id="edge4" class="edge"><title>ActiveRecord::Base&#45;&gt;Deck</title>
<path fill="none" stroke="black" d="M272.8,-930.771C233.234,-914.508 176.266,-888.33 164,-868 57.1665,-690.934 170.816,-435.712 234.284,-319.218"/>
<polyline fill="none" stroke="black" points="236.707,-314.794 234.305,-319.179 "/>
</g>
<!-- ActiveRecord::Base&#45;&gt;Game -->
<g id="edge9" class="edge"><title>ActiveRecord::Base&#45;&gt;Game</title>
<path fill="none" stroke="black" d="M305.917,-928.764C300.987,-914.795 293.611,-893.897 285.886,-872.009"/>
<polyline fill="none" stroke="black" points="284.128,-867.028 285.792,-871.743 "/>
</g>
<!-- ActiveRecord::Base&#45;&gt;Hand -->
<g id="edge11" class="edge"><title>ActiveRecord::Base&#45;&gt;Hand</title>
<path fill="none" stroke="black" d="M327.198,-929.071C364.806,-885.851 461.453,-766.328 493,-646 525.236,-523.045 530.778,-481.368 493,-360 489.526,-348.841 484.376,-337.822 478.407,-327.377"/>
<polyline fill="none" stroke="black" points="475.801,-322.937 478.332,-327.25 "/>
</g>
<!-- ActiveRecord::Base&#45;&gt;User -->
<g id="edge14" class="edge"><title>ActiveRecord::Base&#45;&gt;User</title>
<path fill="none" stroke="black" d="M319.094,-928.964C325.299,-913.367 334.067,-889.51 339,-868 355.184,-797.426 365.476,-717.677 371.917,-650.852"/>
<polyline fill="none" stroke="black" points="372.412,-645.656 371.937,-650.634 "/>
</g>
<!-- ActiveRecord::Base&#45;&gt;WhiteCard -->
<g id="edge15" class="edge"><title>ActiveRecord::Base&#45;&gt;WhiteCard</title>
<path fill="none" stroke="black" d="M352.366,-930.841C381.28,-918.095 419.171,-897.239 443,-868 508.975,-787.046 502.648,-748.981 520,-646 553.865,-445.021 569.479,-378.489 497,-188 492.875,-177.159 487.511,-166.328 481.546,-155.916"/>
<polyline fill="none" stroke="black" points="478.955,-151.481 481.477,-155.798 "/>
</g>
</g>
</svg>
