<?xml version="1.0" encoding="UTF-8" standalone="no"?>
<!DOCTYPE svg PUBLIC "-//W3C//DTD SVG 1.1//EN"
 "http://www.w3.org/Graphics/SVG/1.1/DTD/svg11.dtd">
<!-- Generated by graphviz version 2.34.0 (20131105.2002)
 -->
<!-- Title: models_diagram Pages: 1 -->
<svg width="445pt" height="382pt"
 viewBox="0.00 0.00 444.53 382.00" xmlns="http://www.w3.org/2000/svg" xmlns:xlink="http://www.w3.org/1999/xlink">
<g id="graph0" class="graph" transform="scale(1 1) rotate(0) translate(4 378)">
<title>models_diagram</title>
<polygon fill="white" stroke="white" points="-4,4 -4,-378 440.531,-378 440.531,4 -4,4"/>
<!-- _diagram_info -->
<g id="node1" class="node"><title>_diagram_info</title>
<text text-anchor="start" x="7.78833" y="-357" font-family="Times,serif" font-size="13.00">Models diagram</text>
<text text-anchor="start" x="7.78833" y="-341.4" font-family="Times,serif" font-size="13.00">Date: Nov 12 2013 &#45; 09:48</text>
<text text-anchor="start" x="7.78833" y="-325.8" font-family="Times,serif" font-size="13.00">Migration version: 20131112144527</text>
<text text-anchor="start" x="7.78833" y="-310.2" font-family="Times,serif" font-size="13.00">Generated by RailRoady 1.1.1</text>
<text text-anchor="start" x="7.78833" y="-294.6" font-family="Times,serif" font-size="13.00">http://railroady.prestonlee.com</text>
</g>
<!-- BlackCard -->
<g id="node2" class="node"><title>BlackCard</title>
<ellipse fill="none" stroke="black" cx="222" cy="-18" rx="52.0008" ry="18"/>
<text text-anchor="middle" x="222" y="-12.4" font-family="Times,serif" font-size="14.00">BlackCard</text>
</g>
<!-- Deck -->
<g id="node3" class="node"><title>Deck</title>
<ellipse fill="none" stroke="black" cx="284" cy="-90" rx="31.1178" ry="18"/>
<text text-anchor="middle" x="284" y="-84.4" font-family="Times,serif" font-size="14.00">Deck</text>
</g>
<!-- Deck&#45;&gt;BlackCard -->
<g id="edge3" class="edge"><title>Deck&#45;&gt;BlackCard</title>
<path fill="none" stroke="#d3daa4" d="M264.814,-67.3382C257.987,-59.6307 250.262,-50.9083 243.271,-43.0154"/>
<ellipse fill="none" stroke="#d3daa4" cx="267.588" cy="-70.4704" rx="4.00002" ry="4.00002"/>
<polygon fill="#d3daa4" stroke="#d3daa4" points="243.216,-42.9531 239.954,-32.4835 239.9,-39.2101 236.585,-35.4672 236.585,-35.4672 236.585,-35.4672 239.9,-39.2101 233.217,-38.4509 243.216,-42.9531 243.216,-42.9531"/>
</g>
<!-- WhiteCard -->
<g id="node7" class="node"><title>WhiteCard</title>
<ellipse fill="none" stroke="black" cx="379" cy="-18" rx="53.1058" ry="18"/>
<text text-anchor="middle" x="379" y="-12.4" font-family="Times,serif" font-size="14.00">WhiteCard</text>
</g>
<!-- Deck&#45;&gt;WhiteCard -->
<g id="edge2" class="edge"><title>Deck&#45;&gt;WhiteCard</title>
<path fill="none" stroke="#10edee" d="M309.389,-70.2923C321.742,-61.1904 336.662,-50.1962 349.516,-40.7248"/>
<ellipse fill="none" stroke="#10edee" cx="305.989" cy="-72.7974" rx="4.00002" ry="4.00002"/>
<polygon fill="#10edee" stroke="#10edee" points="349.567,-40.6877 360.287,-38.3785 353.592,-37.7217 357.617,-34.7557 357.617,-34.7557 357.617,-34.7557 353.592,-37.7217 354.948,-31.133 349.567,-40.6877 349.567,-40.6877"/>
</g>
<!-- Game -->
<g id="node4" class="node"><title>Game</title>
<ellipse fill="none" stroke="black" cx="344" cy="-234" rx="34.1417" ry="18"/>
<text text-anchor="middle" x="344" y="-228.4" font-family="Times,serif" font-size="14.00">Game</text>
</g>
<!-- Game&#45;&gt;Deck -->
<g id="edge5" class="edge"><title>Game&#45;&gt;Deck</title>
<path fill="none" stroke="#a10117" d="M340.444,-208.066C337.218,-189.739 331.481,-164.555 322,-144 317.012,-133.186 309.707,-122.31 302.832,-113.25"/>
<ellipse fill="none" stroke="#a10117" cx="341.1" cy="-212.016" rx="4.00001" ry="4.00001"/>
<ellipse fill="#a10117" stroke="#a10117" cx="300.171" cy="-109.855" rx="4.00002" ry="4.00002"/>
</g>
<!-- Hand -->
<g id="node5" class="node"><title>Hand</title>
<ellipse fill="none" stroke="black" cx="379" cy="-90" rx="31.4312" ry="18"/>
<text text-anchor="middle" x="379" y="-84.4" font-family="Times,serif" font-size="14.00">Hand</text>
</g>
<!-- Game&#45;&gt;Hand -->
<g id="edge6" class="edge"><title>Game&#45;&gt;Hand</title>
<path fill="none" stroke="#cb713d" d="M350.18,-207.929C356.392,-182.725 365.938,-143.994 372.322,-118.095"/>
<ellipse fill="none" stroke="#cb713d" cx="349.179" cy="-211.988" rx="4.00001" ry="4.00001"/>
<polygon fill="#cb713d" stroke="#cb713d" points="372.37,-117.899 379.132,-109.266 373.567,-113.044 374.763,-108.189 374.763,-108.189 374.763,-108.189 373.567,-113.044 370.394,-107.112 372.37,-117.899 372.37,-117.899"/>
</g>
<!-- User -->
<g id="node6" class="node"><title>User</title>
<ellipse fill="none" stroke="black" cx="284" cy="-162" rx="28.9087" ry="18"/>
<text text-anchor="middle" x="284" y="-156.4" font-family="Times,serif" font-size="14.00">User</text>
</g>
<!-- Game&#45;&gt;User -->
<g id="edge7" class="edge"><title>Game&#45;&gt;User</title>
<path fill="none" stroke="#dcf04f" d="M323.686,-209.301C317.249,-201.79 310.145,-193.502 303.748,-186.039"/>
<polygon fill="#dcf04f" stroke="#dcf04f" points="323.877,-209.523 326.968,-220.044 327.131,-213.32 330.385,-217.116 330.385,-217.116 330.385,-217.116 327.131,-213.32 333.802,-214.187 323.877,-209.523 323.877,-209.523"/>
<polygon fill="#dcf04f" stroke="#dcf04f" points="303.657,-185.933 300.565,-175.412 300.403,-182.136 297.149,-178.34 297.149,-178.34 297.149,-178.34 300.403,-182.136 293.732,-181.269 303.657,-185.933 303.657,-185.933"/>
</g>
<!-- Hand&#45;&gt;WhiteCard -->
<g id="edge9" class="edge"><title>Hand&#45;&gt;WhiteCard</title>
<path fill="none" stroke="#8fae17" d="M379,-63.6398C379,-58.0629 379,-52.1319 379,-46.4761"/>
<ellipse fill="none" stroke="#8fae17" cx="379" cy="-67.6966" rx="4" ry="4"/>
<polygon fill="#8fae17" stroke="#8fae17" points="379,-46.1043 383.5,-36.1043 379,-41.1043 379,-36.1043 379,-36.1043 379,-36.1043 379,-41.1043 374.5,-36.1044 379,-46.1043 379,-46.1043"/>
</g>
<!-- User&#45;&gt;Deck -->
<g id="edge12" class="edge"><title>User&#45;&gt;Deck</title>
<path fill="none" stroke="#1a50e7" d="M284,-135.64C284,-130.063 284,-124.132 284,-118.476"/>
<ellipse fill="none" stroke="#1a50e7" cx="284" cy="-139.697" rx="4" ry="4"/>
<polygon fill="#1a50e7" stroke="#1a50e7" points="284,-118.104 288.5,-108.104 284,-113.104 284,-108.104 284,-108.104 284,-108.104 284,-113.104 279.5,-108.104 284,-118.104 284,-118.104"/>
</g>
<!-- User&#45;&gt;Hand -->
<g id="edge11" class="edge"><title>User&#45;&gt;Hand</title>
<path fill="none" stroke="#eeeda8" d="M308.923,-142.635C322.283,-132.791 338.749,-120.659 352.361,-110.629"/>
<ellipse fill="none" stroke="#eeeda8" cx="305.537" cy="-145.13" rx="4.00002" ry="4.00002"/>
<polygon fill="#eeeda8" stroke="#eeeda8" points="352.365,-110.626 363.085,-108.317 356.39,-107.66 360.415,-104.694 360.415,-104.694 360.415,-104.694 356.39,-107.66 357.746,-101.071 352.365,-110.626 352.365,-110.626"/>
</g>
<!-- ActiveRecord::Base -->
<g id="node8" class="node"><title>ActiveRecord::Base</title>
<ellipse fill="none" stroke="black" cx="313" cy="-331" rx="88.2033" ry="18"/>
<text text-anchor="middle" x="313" y="-325.4" font-family="Times,serif" font-size="14.00">ActiveRecord::Base</text>
</g>
<!-- ActiveRecord::Base&#45;&gt;BlackCard -->
<g id="edge1" class="edge"><title>ActiveRecord::Base&#45;&gt;BlackCard</title>
<path fill="none" stroke="black" d="M296.354,-313.266C282.579,-298.427 263.61,-275.515 253,-252 220.648,-180.302 219.44,-84.4777 220.818,-41.5076"/>
<polyline fill="none" stroke="black" points="221.006,-36.2902 220.825,-41.2869 "/>
</g>
<!-- ActiveRecord::Base&#45;&gt;Deck -->
<g id="edge4" class="edge"><title>ActiveRecord::Base&#45;&gt;Deck</title>
<path fill="none" stroke="black" d="M302.418,-312.817C286.443,-285.763 256.882,-231.047 246,-180 242.664,-164.352 241.104,-159.232 246,-144 250.002,-131.55 258.128,-119.546 265.842,-110.12"/>
<polyline fill="none" stroke="black" points="269.109,-106.244 265.887,-110.066 "/>
</g>
<!-- ActiveRecord::Base&#45;&gt;Game -->
<g id="edge8" class="edge"><title>ActiveRecord::Base&#45;&gt;Game</title>
<path fill="none" stroke="black" d="M318.542,-313.016C323.656,-297.345 331.277,-273.99 336.848,-256.918"/>
<polyline fill="none" stroke="black" points="338.506,-251.837 336.955,-256.59 "/>
</g>
<!-- ActiveRecord::Base&#45;&gt;Hand -->
<g id="edge10" class="edge"><title>ActiveRecord::Base&#45;&gt;Hand</title>
<path fill="none" stroke="black" d="M336.293,-313.481C353.943,-299.422 376.834,-277.487 387,-252 405.602,-205.366 394.203,-145.025 385.716,-113.091"/>
<polyline fill="none" stroke="black" points="384.384,-108.216 385.702,-113.039 "/>
</g>
<!-- ActiveRecord::Base&#45;&gt;User -->
<g id="edge13" class="edge"><title>ActiveRecord::Base&#45;&gt;User</title>
<path fill="none" stroke="black" d="M310.006,-312.757C304.731,-282.381 293.786,-219.355 287.918,-185.562"/>
<polyline fill="none" stroke="black" points="287.021,-180.399 287.877,-185.326 "/>
</g>
<!-- ActiveRecord::Base&#45;&gt;WhiteCard -->
<g id="edge14" class="edge"><title>ActiveRecord::Base&#45;&gt;WhiteCard</title>
<path fill="none" stroke="black" d="M341.948,-313.896C363.274,-300.351 390.919,-278.9 405,-252 442.213,-180.909 444.489,-148.086 419,-72 414.963,-59.9488 406.984,-48.4477 399.208,-39.258"/>
<polyline fill="none" stroke="black" points="395.899,-35.4662 399.186,-39.2337 "/>
</g>
</g>
</svg>
