<?xml version="1.0" encoding="UTF-8" standalone="no"?>
<!DOCTYPE svg PUBLIC "-//W3C//DTD SVG 1.1//EN"
 "http://www.w3.org/Graphics/SVG/1.1/DTD/svg11.dtd">
<!-- Generated by graphviz version 2.34.0 (20131105.2002)
 -->
<!-- Title: models_diagram Pages: 1 -->
<svg width="411pt" height="382pt"
 viewBox="0.00 0.00 411.00 382.00" xmlns="http://www.w3.org/2000/svg" xmlns:xlink="http://www.w3.org/1999/xlink">
<g id="graph0" class="graph" transform="scale(1 1) rotate(0) translate(4 378)">
<title>models_diagram</title>
<polygon fill="white" stroke="white" points="-4,4 -4,-378 407,-378 407,4 -4,4"/>
<!-- _diagram_info -->
<g id="node1" class="node"><title>_diagram_info</title>
<text text-anchor="start" x="7.2644" y="-357" font-family="Times,serif" font-size="13.00">Models diagram</text>
<text text-anchor="start" x="7.2644" y="-341.4" font-family="Times,serif" font-size="13.00">Date: Nov 21 2013 &#45; 17:29</text>
<text text-anchor="start" x="7.2644" y="-325.8" font-family="Times,serif" font-size="13.00">Migration version: 20131119201115</text>
<text text-anchor="start" x="7.2644" y="-310.2" font-family="Times,serif" font-size="13.00">Generated by RailRoady 1.1.1</text>
<text text-anchor="start" x="7.2644" y="-294.6" font-family="Times,serif" font-size="13.00">http://railroady.prestonlee.com</text>
</g>
<!-- BlackCard -->
<g id="node2" class="node"><title>BlackCard</title>
<ellipse fill="none" stroke="black" cx="210" cy="-18" rx="52.0008" ry="18"/>
<text text-anchor="middle" x="210" y="-12.4" font-family="Times,serif" font-size="14.00">BlackCard</text>
</g>
<!-- Deck -->
<g id="node3" class="node"><title>Deck</title>
<ellipse fill="none" stroke="black" cx="269" cy="-90" rx="31.1178" ry="18"/>
<text text-anchor="middle" x="269" y="-84.4" font-family="Times,serif" font-size="14.00">Deck</text>
</g>
<!-- Deck&#45;&gt;BlackCard -->
<g id="edge3" class="edge"><title>Deck&#45;&gt;BlackCard</title>
<path fill="none" stroke="#a4509d" d="M250.742,-67.3382C244.381,-59.7913 237.2,-51.2713 230.658,-43.5097"/>
<ellipse fill="none" stroke="#a4509d" cx="253.328" cy="-70.4062" rx="4.00002" ry="4.00002"/>
<polygon fill="#a4509d" stroke="#a4509d" points="230.324,-43.1135 227.32,-32.567 227.102,-39.2903 223.879,-35.4672 223.879,-35.4672 223.879,-35.4672 227.102,-39.2903 220.439,-38.3673 230.324,-43.1135 230.324,-43.1135"/>
</g>
<!-- WhiteCard -->
<g id="node7" class="node"><title>WhiteCard</title>
<ellipse fill="none" stroke="black" cx="350" cy="-18" rx="53.1058" ry="18"/>
<text text-anchor="middle" x="350" y="-12.4" font-family="Times,serif" font-size="14.00">WhiteCard</text>
</g>
<!-- Deck&#45;&gt;WhiteCard -->
<g id="edge2" class="edge"><title>Deck&#45;&gt;WhiteCard</title>
<path fill="none" stroke="#1700d0" d="M292.044,-69.0859C301.918,-60.5522 313.505,-50.5388 323.712,-41.7176"/>
<ellipse fill="none" stroke="#1700d0" cx="288.81" cy="-71.8805" rx="4.00002" ry="4.00002"/>
<polygon fill="#1700d0" stroke="#1700d0" points="323.978,-41.4884 334.486,-38.3545 327.761,-38.2191 331.544,-34.9498 331.544,-34.9498 331.544,-34.9498 327.761,-38.2191 328.601,-31.545 323.978,-41.4884 323.978,-41.4884"/>
</g>
<!-- Game -->
<g id="node4" class="node"><title>Game</title>
<ellipse fill="none" stroke="black" cx="281" cy="-234" rx="34.1417" ry="18"/>
<text text-anchor="middle" x="281" y="-228.4" font-family="Times,serif" font-size="14.00">Game</text>
</g>
<!-- Game&#45;&gt;BlackCard -->
<g id="edge5" class="edge"><title>Game&#45;&gt;BlackCard</title>
<path fill="none" stroke="#5fd2dc" d="M269.403,-208.882C257.844,-184.062 240.238,-144.04 229,-108 222.452,-87.0013 217.407,-62.5206 214.166,-44.5553"/>
<ellipse fill="none" stroke="#5fd2dc" cx="271.227" cy="-212.762" rx="4.00002" ry="4.00002"/>
<ellipse fill="#5fd2dc" stroke="#5fd2dc" cx="213.412" cy="-40.2432" rx="4.00001" ry="4.00001"/>
</g>
<!-- Game&#45;&gt;Deck -->
<g id="edge6" class="edge"><title>Game&#45;&gt;Deck</title>
<path fill="none" stroke="#47611d" d="M276.025,-207.891C274.473,-199.104 272.927,-189.148 272,-180 269.831,-158.586 269.134,-134.142 268.949,-116.296"/>
<ellipse fill="none" stroke="#47611d" cx="276.772" cy="-211.96" rx="4.00001" ry="4.00001"/>
<ellipse fill="#47611d" stroke="#47611d" cx="268.922" cy="-112.108" rx="4" ry="4"/>
</g>
<!-- Hand -->
<g id="node5" class="node"><title>Hand</title>
<ellipse fill="none" stroke="black" cx="350" cy="-90" rx="31.4312" ry="18"/>
<text text-anchor="middle" x="350" y="-84.4" font-family="Times,serif" font-size="14.00">Hand</text>
</g>
<!-- Game&#45;&gt;Hand -->
<g id="edge7" class="edge"><title>Game&#45;&gt;Hand</title>
<path fill="none" stroke="#483310" d="M284.736,-207.825C288.185,-189.379 294.416,-164.149 305,-144 310.818,-132.925 319.3,-122.13 327.337,-113.205"/>
<ellipse fill="none" stroke="#483310" cx="284.033" cy="-211.841" rx="4.00001" ry="4.00001"/>
<polygon fill="#483310" stroke="#483310" points="327.364,-113.175 337.488,-108.96 330.785,-109.529 334.206,-105.882 334.206,-105.882 334.206,-105.882 330.785,-109.529 330.924,-102.803 327.364,-113.175 327.364,-113.175"/>
</g>
<!-- User -->
<g id="node6" class="node"><title>User</title>
<ellipse fill="none" stroke="black" cx="343" cy="-162" rx="28.9087" ry="18"/>
<text text-anchor="middle" x="343" y="-156.4" font-family="Times,serif" font-size="14.00">User</text>
</g>
<!-- Game&#45;&gt;User -->
<g id="edge8" class="edge"><title>Game&#45;&gt;User</title>
<path fill="none" stroke="#822593" d="M301.417,-209.948C308.131,-202.368 315.598,-193.937 322.331,-186.336"/>
<polygon fill="#822593" stroke="#822593" points="301.39,-209.979 291.391,-214.481 298.075,-213.722 294.76,-217.465 294.76,-217.465 294.76,-217.465 298.075,-213.722 298.128,-220.448 301.39,-209.979 301.39,-209.979"/>
<polygon fill="#822593" stroke="#822593" points="322.648,-185.978 332.647,-181.476 325.963,-182.235 329.279,-178.492 329.279,-178.492 329.279,-178.492 325.963,-182.235 325.91,-175.508 322.648,-185.978 322.648,-185.978"/>
</g>
<!-- Hand&#45;&gt;WhiteCard -->
<g id="edge10" class="edge"><title>Hand&#45;&gt;WhiteCard</title>
<path fill="none" stroke="#037119" d="M350,-63.6398C350,-58.0629 350,-52.1319 350,-46.4761"/>
<ellipse fill="none" stroke="#037119" cx="350" cy="-67.6966" rx="4" ry="4"/>
<polygon fill="#037119" stroke="#037119" points="350,-46.1043 354.5,-36.1043 350,-41.1043 350,-36.1043 350,-36.1043 350,-36.1043 350,-41.1043 345.5,-36.1044 350,-46.1043 350,-46.1043"/>
</g>
<!-- User&#45;&gt;Deck -->
<g id="edge13" class="edge"><title>User&#45;&gt;Deck</title>
<path fill="none" stroke="#26ea15" d="M321.74,-140.889C312.381,-132.036 301.37,-121.62 291.837,-112.602"/>
<ellipse fill="none" stroke="#26ea15" cx="324.761" cy="-143.747" rx="4.00002" ry="4.00002"/>
<polygon fill="#26ea15" stroke="#26ea15" points="291.833,-112.598 287.66,-102.457 288.2,-109.162 284.568,-105.726 284.568,-105.726 284.568,-105.726 288.2,-109.162 281.475,-108.995 291.833,-112.598 291.833,-112.598"/>
</g>
<!-- User&#45;&gt;Hand -->
<g id="edge12" class="edge"><title>User&#45;&gt;Hand</title>
<path fill="none" stroke="#761c52" d="M345.536,-135.64C346.094,-130.063 346.687,-124.132 347.252,-118.476"/>
<ellipse fill="none" stroke="#761c52" cx="345.128" cy="-139.716" rx="4" ry="4"/>
<polygon fill="#761c52" stroke="#761c52" points="347.294,-118.055 352.767,-108.552 347.792,-113.08 348.29,-108.104 348.29,-108.104 348.29,-108.104 347.792,-113.08 343.812,-107.657 347.294,-118.055 347.294,-118.055"/>
</g>
<!-- ActiveRecord::Base -->
<g id="node8" class="node"><title>ActiveRecord::Base</title>
<ellipse fill="none" stroke="black" cx="312" cy="-331" rx="88.2033" ry="18"/>
<text text-anchor="middle" x="312" y="-325.4" font-family="Times,serif" font-size="14.00">ActiveRecord::Base</text>
</g>
<!-- ActiveRecord::Base&#45;&gt;BlackCard -->
<g id="edge1" class="edge"><title>ActiveRecord::Base&#45;&gt;BlackCard</title>
<path fill="none" stroke="black" d="M285.841,-313.644C266.245,-299.823 240.711,-278.128 228,-252 193.633,-181.357 200.956,-84.2818 206.565,-41.1728"/>
<polyline fill="none" stroke="black" points="207.237,-36.1885 206.569,-41.1436 "/>
</g>
<!-- ActiveRecord::Base&#45;&gt;Deck -->
<g id="edge4" class="edge"><title>ActiveRecord::Base&#45;&gt;Deck</title>
<path fill="none" stroke="black" d="M288.707,-313.481C271.057,-299.422 248.166,-277.487 238,-252 218.98,-204.317 242.145,-143.912 257.496,-112.376"/>
<polyline fill="none" stroke="black" points="259.885,-107.569 257.66,-112.047 "/>
</g>
<!-- ActiveRecord::Base&#45;&gt;Game -->
<g id="edge9" class="edge"><title>ActiveRecord::Base&#45;&gt;Game</title>
<path fill="none" stroke="black" d="M306.458,-313.016C301.344,-297.345 293.723,-273.99 288.152,-256.918"/>
<polyline fill="none" stroke="black" points="286.494,-251.837 288.045,-256.59 "/>
</g>
<!-- ActiveRecord::Base&#45;&gt;Hand -->
<g id="edge11" class="edge"><title>ActiveRecord::Base&#45;&gt;Hand</title>
<path fill="none" stroke="black" d="M322.895,-312.865C339.342,-285.874 369.779,-231.242 381,-180 384.422,-164.37 385.185,-159.443 381,-144 377.809,-132.223 371.273,-120.381 365.022,-110.887"/>
<polyline fill="none" stroke="black" points="362.183,-106.699 364.989,-110.838 "/>
</g>
<!-- ActiveRecord::Base&#45;&gt;User -->
<g id="edge14" class="edge"><title>ActiveRecord::Base&#45;&gt;User</title>
<path fill="none" stroke="black" d="M315.201,-312.757C320.869,-282.223 332.661,-218.698 338.909,-185.037"/>
<polyline fill="none" stroke="black" points="339.863,-179.9 338.95,-184.816 "/>
</g>
<!-- ActiveRecord::Base&#45;&gt;WhiteCard -->
<g id="edge15" class="edge"><title>ActiveRecord::Base&#45;&gt;WhiteCard</title>
<path fill="none" stroke="black" d="M329.675,-313.336C344.373,-298.541 364.794,-275.654 377,-252 392.176,-222.589 391.742,-212.82 396,-180 402.185,-132.325 407.152,-116.91 390,-72 385.393,-59.9386 377.161,-48.2864 369.358,-38.9939"/>
<polyline fill="none" stroke="black" points="366.052,-35.1616 369.318,-38.9474 "/>
</g>
</g>
</svg>
