<?xml version="1.0" encoding="UTF-8" standalone="no"?>
<!DOCTYPE svg PUBLIC "-//W3C//DTD SVG 1.1//EN"
 "http://www.w3.org/Graphics/SVG/1.1/DTD/svg11.dtd">
<!-- Generated by graphviz version 2.34.0 (20131105.2002)
 -->
<!-- Title: models_diagram Pages: 1 -->
<svg width="503pt" height="382pt"
 viewBox="0.00 0.00 503.44 382.00" xmlns="http://www.w3.org/2000/svg" xmlns:xlink="http://www.w3.org/1999/xlink">
<g id="graph0" class="graph" transform="scale(1 1) rotate(0) translate(4 378)">
<title>models_diagram</title>
<polygon fill="white" stroke="white" points="-4,4 -4,-378 499.439,-378 499.439,4 -4,4"/>
<!-- _diagram_info -->
<g id="node1" class="node"><title>_diagram_info</title>
<text text-anchor="start" x="7.55029" y="-357" font-family="Times,serif" font-size="13.00">Models diagram</text>
<text text-anchor="start" x="7.55029" y="-341.4" font-family="Times,serif" font-size="13.00">Date: Jan 14 2014 &#45; 23:21</text>
<text text-anchor="start" x="7.55029" y="-325.8" font-family="Times,serif" font-size="13.00">Migration version: 20140114042053</text>
<text text-anchor="start" x="7.55029" y="-310.2" font-family="Times,serif" font-size="13.00">Generated by RailRoady 1.1.1</text>
<text text-anchor="start" x="7.55029" y="-294.6" font-family="Times,serif" font-size="13.00">http://railroady.prestonlee.com</text>
</g>
<!-- BlackCard -->
<g id="node2" class="node"><title>BlackCard</title>
<ellipse fill="none" stroke="black" cx="168" cy="-18" rx="52.0008" ry="18"/>
<text text-anchor="middle" x="168" y="-12.4" font-family="Times,serif" font-size="14.00">BlackCard</text>
</g>
<!-- Deck -->
<g id="node3" class="node"><title>Deck</title>
<ellipse fill="none" stroke="black" cx="227" cy="-90" rx="31.1178" ry="18"/>
<text text-anchor="middle" x="227" y="-84.4" font-family="Times,serif" font-size="14.00">Deck</text>
</g>
<!-- Deck&#45;&gt;BlackCard -->
<g id="edge3" class="edge"><title>Deck&#45;&gt;BlackCard</title>
<path fill="none" stroke="#969daf" d="M208.742,-67.3382C202.381,-59.7913 195.2,-51.2713 188.658,-43.5097"/>
<ellipse fill="none" stroke="#969daf" cx="211.328" cy="-70.4062" rx="4.00002" ry="4.00002"/>
<polygon fill="#969daf" stroke="#969daf" points="188.324,-43.1135 185.32,-32.567 185.102,-39.2903 181.879,-35.4672 181.879,-35.4672 181.879,-35.4672 185.102,-39.2903 178.439,-38.3673 188.324,-43.1135 188.324,-43.1135"/>
</g>
<!-- WhiteCard -->
<g id="node8" class="node"><title>WhiteCard</title>
<ellipse fill="none" stroke="black" cx="308" cy="-18" rx="53.1058" ry="18"/>
<text text-anchor="middle" x="308" y="-12.4" font-family="Times,serif" font-size="14.00">WhiteCard</text>
</g>
<!-- Deck&#45;&gt;WhiteCard -->
<g id="edge2" class="edge"><title>Deck&#45;&gt;WhiteCard</title>
<path fill="none" stroke="#dc1383" d="M250.044,-69.0859C259.918,-60.5522 271.505,-50.5388 281.712,-41.7176"/>
<ellipse fill="none" stroke="#dc1383" cx="246.81" cy="-71.8805" rx="4.00002" ry="4.00002"/>
<polygon fill="#dc1383" stroke="#dc1383" points="281.978,-41.4884 292.486,-38.3545 285.761,-38.2191 289.544,-34.9498 289.544,-34.9498 289.544,-34.9498 285.761,-38.2191 286.601,-31.545 281.978,-41.4884 281.978,-41.4884"/>
</g>
<!-- Game -->
<g id="node4" class="node"><title>Game</title>
<ellipse fill="none" stroke="black" cx="251" cy="-234" rx="34.1417" ry="18"/>
<text text-anchor="middle" x="251" y="-228.4" font-family="Times,serif" font-size="14.00">Game</text>
</g>
<!-- Game&#45;&gt;BlackCard -->
<g id="edge5" class="edge"><title>Game&#45;&gt;BlackCard</title>
<path fill="none" stroke="#7f7066" d="M236.62,-209.556C222.162,-185.043 200.181,-145.054 187,-108 179.583,-87.1483 174.594,-62.4687 171.597,-44.3935"/>
<ellipse fill="none" stroke="#7f7066" cx="238.799" cy="-213.21" rx="4.00002" ry="4.00002"/>
<ellipse fill="#7f7066" stroke="#7f7066" cx="170.909" cy="-40.0472" rx="4.00001" ry="4.00001"/>
</g>
<!-- Game&#45;&gt;Deck -->
<g id="edge6" class="edge"><title>Game&#45;&gt;Deck</title>
<path fill="none" stroke="#186d08" d="M243.657,-208.239C241.247,-199.393 238.743,-189.311 237,-180 233.017,-158.723 230.408,-134.267 228.858,-116.382"/>
<ellipse fill="none" stroke="#186d08" cx="244.74" cy="-212.107" rx="4.00001" ry="4.00001"/>
<ellipse fill="#186d08" stroke="#186d08" cx="228.509" cy="-112.159" rx="4" ry="4"/>
</g>
<!-- Hand -->
<g id="node5" class="node"><title>Hand</title>
<ellipse fill="none" stroke="black" cx="308" cy="-90" rx="31.4312" ry="18"/>
<text text-anchor="middle" x="308" y="-84.4" font-family="Times,serif" font-size="14.00">Hand</text>
</g>
<!-- Game&#45;&gt;Hand -->
<g id="edge7" class="edge"><title>Game&#45;&gt;Hand</title>
<path fill="none" stroke="#fa3492" d="M253.609,-207.567C256.149,-189.283 260.998,-164.367 270,-144 274.579,-133.641 281.381,-123.285 287.97,-114.512"/>
<ellipse fill="none" stroke="#fa3492" cx="253.045" cy="-211.993" rx="4.00001" ry="4.00001"/>
<polygon fill="#fa3492" stroke="#fa3492" points="287.974,-114.507 297.685,-109.413 291.058,-110.572 294.143,-106.637 294.143,-106.637 294.143,-106.637 291.058,-110.572 290.601,-103.861 287.974,-114.507 287.974,-114.507"/>
</g>
<!-- Submission -->
<g id="node6" class="node"><title>Submission</title>
<ellipse fill="none" stroke="black" cx="414" cy="-90" rx="56.1724" ry="18"/>
<text text-anchor="middle" x="414" y="-84.4" font-family="Times,serif" font-size="14.00">Submission</text>
</g>
<!-- Game&#45;&gt;Submission -->
<g id="edge9" class="edge"><title>Game&#45;&gt;Submission</title>
<path fill="none" stroke="#22167c" d="M284.394,-218.561C303.644,-209.258 327.597,-195.934 346,-180 367.32,-161.54 386.308,-135.431 398.764,-116.265"/>
<ellipse fill="none" stroke="#22167c" cx="280.618" cy="-220.343" rx="4.00002" ry="4.00002"/>
<polygon fill="#22167c" stroke="#22167c" points="398.816,-116.183 407.973,-110.15 401.495,-111.961 404.174,-107.739 404.174,-107.739 404.174,-107.739 401.495,-111.961 400.374,-105.328 398.816,-116.183 398.816,-116.183"/>
</g>
<!-- User -->
<g id="node7" class="node"><title>User</title>
<ellipse fill="none" stroke="black" cx="308" cy="-162" rx="28.9087" ry="18"/>
<text text-anchor="middle" x="308" y="-156.4" font-family="Times,serif" font-size="14.00">User</text>
</g>
<!-- Game&#45;&gt;User -->
<g id="edge8" class="edge"><title>Game&#45;&gt;User</title>
<path fill="none" stroke="#532b84" d="M270.298,-209.301C276.284,-201.95 282.876,-193.855 288.851,-186.517"/>
<polygon fill="#532b84" stroke="#532b84" points="270.248,-209.362 260.445,-214.274 267.091,-213.239 263.934,-217.116 263.934,-217.116 263.934,-217.116 267.091,-213.239 267.424,-219.957 270.248,-209.362 270.248,-209.362"/>
<polygon fill="#532b84" stroke="#532b84" points="289.194,-186.095 298.998,-181.182 292.352,-182.217 295.509,-178.34 295.509,-178.34 295.509,-178.34 292.352,-182.217 292.019,-175.499 289.194,-186.095 289.194,-186.095"/>
</g>
<!-- Hand&#45;&gt;WhiteCard -->
<g id="edge11" class="edge"><title>Hand&#45;&gt;WhiteCard</title>
<path fill="none" stroke="#bb17c6" d="M308,-63.6398C308,-58.0629 308,-52.1319 308,-46.4761"/>
<ellipse fill="none" stroke="#bb17c6" cx="308" cy="-67.6966" rx="4" ry="4"/>
<polygon fill="#bb17c6" stroke="#bb17c6" points="308,-46.1043 312.5,-36.1043 308,-41.1043 308,-36.1043 308,-36.1043 308,-36.1043 308,-41.1043 303.5,-36.1044 308,-46.1043 308,-46.1043"/>
</g>
<!-- User&#45;&gt;Deck -->
<g id="edge16" class="edge"><title>User&#45;&gt;Deck</title>
<path fill="none" stroke="#66b17c" d="M285.396,-141.465C274.839,-132.343 262.253,-121.466 251.473,-112.15"/>
<ellipse fill="none" stroke="#66b17c" cx="288.582" cy="-144.219" rx="4.00002" ry="4.00002"/>
<polygon fill="#66b17c" stroke="#66b17c" points="251.211,-111.923 246.588,-101.98 247.428,-108.654 243.645,-105.385 243.645,-105.385 243.645,-105.385 247.428,-108.654 240.703,-108.79 251.211,-111.923 251.211,-111.923"/>
</g>
<!-- User&#45;&gt;Hand -->
<g id="edge14" class="edge"><title>User&#45;&gt;Hand</title>
<path fill="none" stroke="#27b42f" d="M308,-135.64C308,-130.063 308,-124.132 308,-118.476"/>
<ellipse fill="none" stroke="#27b42f" cx="308" cy="-139.697" rx="4" ry="4"/>
<polygon fill="#27b42f" stroke="#27b42f" points="308,-118.104 312.5,-108.104 308,-113.104 308,-108.104 308,-108.104 308,-108.104 308,-113.104 303.5,-108.104 308,-118.104 308,-118.104"/>
</g>
<!-- User&#45;&gt;Submission -->
<g id="edge15" class="edge"><title>User&#45;&gt;Submission</title>
<path fill="none" stroke="#715f42" d="M334.492,-143.505C348.908,-133.986 366.846,-122.139 382.034,-112.11"/>
<ellipse fill="none" stroke="#715f42" cx="330.78" cy="-145.957" rx="4.00002" ry="4.00002"/>
<polygon fill="#715f42" stroke="#715f42" points="382.266,-111.956 393.091,-110.201 386.438,-109.201 390.611,-106.446 390.611,-106.446 390.611,-106.446 386.438,-109.201 388.131,-102.691 382.266,-111.956 382.266,-111.956"/>
</g>
<!-- ActiveRecord::Base -->
<g id="node9" class="node"><title>ActiveRecord::Base</title>
<ellipse fill="none" stroke="black" cx="313" cy="-331" rx="88.2033" ry="18"/>
<text text-anchor="middle" x="313" y="-325.4" font-family="Times,serif" font-size="14.00">ActiveRecord::Base</text>
</g>
<!-- ActiveRecord::Base&#45;&gt;BlackCard -->
<g id="edge1" class="edge"><title>ActiveRecord::Base&#45;&gt;BlackCard</title>
<path fill="none" stroke="black" d="M274.478,-314.752C247.714,-302.07 213.627,-281.334 195,-252 152.522,-185.106 159.02,-85.2846 164.583,-41.2427"/>
<polyline fill="none" stroke="black" points="165.253,-36.1542 164.6,-41.1114 "/>
</g>
<!-- ActiveRecord::Base&#45;&gt;Deck -->
<g id="edge4" class="edge"><title>ActiveRecord::Base&#45;&gt;Deck</title>
<path fill="none" stroke="black" d="M277.439,-314.375C252.993,-301.51 222.436,-280.707 208,-252 185.075,-206.412 204.151,-144.645 217.235,-112.48"/>
<polyline fill="none" stroke="black" points="219.276,-107.579 217.354,-112.194 "/>
</g>
<!-- ActiveRecord::Base&#45;&gt;Game -->
<g id="edge10" class="edge"><title>ActiveRecord::Base&#45;&gt;Game</title>
<path fill="none" stroke="black" d="M301.916,-313.016C291.384,-296.878 275.533,-272.591 264.32,-255.409"/>
<polyline fill="none" stroke="black" points="261.575,-251.203 264.307,-255.39 "/>
</g>
<!-- ActiveRecord::Base&#45;&gt;Hand -->
<g id="edge12" class="edge"><title>ActiveRecord::Base&#45;&gt;Hand</title>
<path fill="none" stroke="black" d="M321.413,-312.957C336.629,-279.766 365.42,-204.416 346,-144 341.998,-131.55 333.872,-119.546 326.158,-110.12"/>
<polyline fill="none" stroke="black" points="322.891,-106.244 326.113,-110.066 "/>
</g>
<!-- ActiveRecord::Base&#45;&gt;Submission -->
<g id="edge13" class="edge"><title>ActiveRecord::Base&#45;&gt;Submission</title>
<path fill="none" stroke="black" d="M325.081,-312.995C335.608,-297.615 350.752,-274.064 361,-252 383.031,-204.57 400.016,-145.402 408.343,-113.651"/>
<polyline fill="none" stroke="black" points="409.701,-108.424 408.444,-113.263 "/>
</g>
<!-- ActiveRecord::Base&#45;&gt;User -->
<g id="edge17" class="edge"><title>ActiveRecord::Base&#45;&gt;User</title>
<path fill="none" stroke="black" d="M312.484,-312.757C311.574,-282.381 309.687,-219.355 308.676,-185.562"/>
<polyline fill="none" stroke="black" points="308.521,-180.399 308.671,-185.397 "/>
</g>
<!-- ActiveRecord::Base&#45;&gt;WhiteCard -->
<g id="edge18" class="edge"><title>ActiveRecord::Base&#45;&gt;WhiteCard</title>
<path fill="none" stroke="black" d="M338.297,-313.523C399.071,-271.915 543.62,-159.681 479,-72 453.323,-37.1602 404.986,-24.5407 366.237,-20.2766"/>
<polyline fill="none" stroke="black" points="361.079,-19.7516 366.053,-20.258 "/>
</g>
</g>
</svg>
