<?xml version="1.0" encoding="UTF-8" standalone="no"?>
<!DOCTYPE svg PUBLIC "-//W3C//DTD SVG 1.1//EN"
 "http://www.w3.org/Graphics/SVG/1.1/DTD/svg11.dtd">
<!-- Generated by graphviz version 2.34.0 (20131105.2002)
 -->
<!-- Title: models_diagram Pages: 1 -->
<svg width="666pt" height="826pt"
 viewBox="0.00 0.00 666.00 826.00" xmlns="http://www.w3.org/2000/svg" xmlns:xlink="http://www.w3.org/1999/xlink">
<g id="graph0" class="graph" transform="scale(1 1) rotate(0) translate(4 822)">
<title>models_diagram</title>
<polygon fill="white" stroke="white" points="-4,4 -4,-822 662,-822 662,4 -4,4"/>
<!-- _diagram_info -->
<g id="node1" class="node"><title>_diagram_info</title>
<text text-anchor="start" x="33.5503" y="-801" font-family="Times,serif" font-size="13.00">Models diagram</text>
<text text-anchor="start" x="33.5503" y="-785.4" font-family="Times,serif" font-size="13.00">Date: Nov 05 2013 &#45; 15:14</text>
<text text-anchor="start" x="33.5503" y="-769.8" font-family="Times,serif" font-size="13.00">Migration version: 20131105201342</text>
<text text-anchor="start" x="33.5503" y="-754.2" font-family="Times,serif" font-size="13.00">Generated by RailRoady 1.1.1</text>
<text text-anchor="start" x="33.5503" y="-738.6" font-family="Times,serif" font-size="13.00">http://railroady.prestonlee.com</text>
</g>
<!-- BlackCard -->
<g id="node2" class="node"><title>BlackCard</title>
<path fill="none" stroke="black" d="M11.4946,-578.4C11.4946,-578.4 120.505,-578.4 120.505,-578.4 126.505,-578.4 132.505,-584.4 132.505,-590.4 132.505,-590.4 132.505,-649.6 132.505,-649.6 132.505,-655.6 126.505,-661.6 120.505,-661.6 120.505,-661.6 11.4946,-661.6 11.4946,-661.6 5.49463,-661.6 -0.505371,-655.6 -0.505371,-649.6 -0.505371,-649.6 -0.505371,-590.4 -0.505371,-590.4 -0.505371,-584.4 5.49463,-578.4 11.4946,-578.4"/>
<text text-anchor="middle" x="66" y="-643.6" font-family="Times,serif" font-size="14.00">BlackCard</text>
<polyline fill="none" stroke="black" points="-0.505371,-636.8 132.505,-636.8 "/>
<text text-anchor="start" x="7.49463" y="-618.8" font-family="Times,serif" font-size="14.00">id :integer</text>
<text text-anchor="start" x="7.49463" y="-602" font-family="Times,serif" font-size="14.00">created_at :datetime</text>
<text text-anchor="start" x="7.49463" y="-585.2" font-family="Times,serif" font-size="14.00">updated_at :datetime</text>
</g>
<!-- Deck -->
<g id="node3" class="node"><title>Deck</title>
<path fill="none" stroke="black" d="M222.105,-0.4C222.105,-0.4 359.895,-0.4 359.895,-0.4 365.895,-0.4 371.895,-6.4 371.895,-12.4 371.895,-12.4 371.895,-155.6 371.895,-155.6 371.895,-161.6 365.895,-167.6 359.895,-167.6 359.895,-167.6 222.105,-167.6 222.105,-167.6 216.105,-167.6 210.105,-161.6 210.105,-155.6 210.105,-155.6 210.105,-12.4 210.105,-12.4 210.105,-6.4 216.105,-0.4 222.105,-0.4"/>
<text text-anchor="middle" x="291" y="-149.6" font-family="Times,serif" font-size="14.00">Deck</text>
<polyline fill="none" stroke="black" points="210.105,-142.8 371.895,-142.8 "/>
<text text-anchor="start" x="218.105" y="-124.8" font-family="Times,serif" font-size="14.00">id :integer</text>
<text text-anchor="start" x="218.105" y="-108" font-family="Times,serif" font-size="14.00">name :string</text>
<text text-anchor="start" x="218.105" y="-91.2" font-family="Times,serif" font-size="14.00">created_at :datetime</text>
<text text-anchor="start" x="218.105" y="-74.4" font-family="Times,serif" font-size="14.00">updated_at :datetime</text>
<text text-anchor="start" x="218.105" y="-57.6" font-family="Times,serif" font-size="14.00">user_id :integer</text>
<text text-anchor="start" x="218.105" y="-40.8" font-family="Times,serif" font-size="14.00">num_white_cards :integer</text>
<text text-anchor="start" x="218.105" y="-24" font-family="Times,serif" font-size="14.00">num_black_cards :integer</text>
<text text-anchor="start" x="218.105" y="-7.2" font-family="Times,serif" font-size="14.00">game_id :integer</text>
</g>
<!-- Game -->
<g id="node4" class="node"><title>Game</title>
<path fill="none" stroke="black" d="M331.105,-544.8C331.105,-544.8 440.895,-544.8 440.895,-544.8 446.895,-544.8 452.895,-550.8 452.895,-556.8 452.895,-556.8 452.895,-683.2 452.895,-683.2 452.895,-689.2 446.895,-695.2 440.895,-695.2 440.895,-695.2 331.105,-695.2 331.105,-695.2 325.105,-695.2 319.105,-689.2 319.105,-683.2 319.105,-683.2 319.105,-556.8 319.105,-556.8 319.105,-550.8 325.105,-544.8 331.105,-544.8"/>
<text text-anchor="middle" x="386" y="-677.2" font-family="Times,serif" font-size="14.00">Game</text>
<polyline fill="none" stroke="black" points="319.105,-670.4 452.895,-670.4 "/>
<text text-anchor="start" x="327.105" y="-652.4" font-family="Times,serif" font-size="14.00">id :integer</text>
<text text-anchor="start" x="327.105" y="-635.6" font-family="Times,serif" font-size="14.00">players :integer</text>
<text text-anchor="start" x="327.105" y="-618.8" font-family="Times,serif" font-size="14.00">created_at :datetime</text>
<text text-anchor="start" x="327.105" y="-602" font-family="Times,serif" font-size="14.00">updated_at :datetime</text>
<text text-anchor="start" x="327.105" y="-585.2" font-family="Times,serif" font-size="14.00">name :string</text>
<text text-anchor="start" x="327.105" y="-568.4" font-family="Times,serif" font-size="14.00">max_players :integer</text>
<text text-anchor="start" x="327.105" y="-551.6" font-family="Times,serif" font-size="14.00">finished :boolean</text>
</g>
<!-- Game&#45;&gt;Deck -->
<g id="edge3" class="edge"><title>Game&#45;&gt;Deck</title>
<path fill="none" stroke="#c8f488" d="M408.056,-536.872C426.942,-450.723 444.93,-312.963 402,-204 396.082,-188.978 387.274,-174.733 377.162,-161.666"/>
<ellipse fill="none" stroke="#c8f488" cx="407.16" cy="-540.883" rx="4.00001" ry="4.00001"/>
<ellipse fill="#c8f488" stroke="#c8f488" cx="374.601" cy="-158.47" rx="4.00002" ry="4.00002"/>
</g>
<!-- Hand -->
<g id="node5" class="node"><title>Hand</title>
<path fill="none" stroke="black" d="M404.495,-25.6C404.495,-25.6 513.505,-25.6 513.505,-25.6 519.505,-25.6 525.505,-31.6 525.505,-37.6 525.505,-37.6 525.505,-130.4 525.505,-130.4 525.505,-136.4 519.505,-142.4 513.505,-142.4 513.505,-142.4 404.495,-142.4 404.495,-142.4 398.495,-142.4 392.495,-136.4 392.495,-130.4 392.495,-130.4 392.495,-37.6 392.495,-37.6 392.495,-31.6 398.495,-25.6 404.495,-25.6"/>
<text text-anchor="middle" x="459" y="-124.4" font-family="Times,serif" font-size="14.00">Hand</text>
<polyline fill="none" stroke="black" points="392.495,-117.6 525.505,-117.6 "/>
<text text-anchor="start" x="400.495" y="-99.6" font-family="Times,serif" font-size="14.00">id :integer</text>
<text text-anchor="start" x="400.495" y="-82.8" font-family="Times,serif" font-size="14.00">created_at :datetime</text>
<text text-anchor="start" x="400.495" y="-66" font-family="Times,serif" font-size="14.00">updated_at :datetime</text>
<text text-anchor="start" x="400.495" y="-49.2" font-family="Times,serif" font-size="14.00">user_id :integer</text>
<text text-anchor="start" x="400.495" y="-32.4" font-family="Times,serif" font-size="14.00">game_id :integer</text>
</g>
<!-- Game&#45;&gt;Hand -->
<g id="edge5" class="edge"><title>Game&#45;&gt;Hand</title>
<path fill="none" stroke="#8e1142" d="M426.657,-535.348C429.939,-526.271 432.823,-517.044 435,-508 464.494,-385.46 465.257,-237.448 462.537,-152.965"/>
<polygon fill="#8e1142" stroke="#8e1142" points="426.643,-535.386 418.896,-543.148 424.874,-540.063 423.105,-544.74 423.105,-544.74 423.105,-544.74 424.874,-540.063 427.315,-546.332 426.643,-535.386 426.643,-535.386"/>
<polygon fill="#8e1142" stroke="#8e1142" points="462.529,-152.726 466.678,-142.575 462.355,-147.729 462.181,-142.732 462.181,-142.732 462.181,-142.732 462.355,-147.729 457.683,-142.889 462.529,-152.726 462.529,-152.726"/>
</g>
<!-- User -->
<g id="node6" class="node"><title>User</title>
<path fill="none" stroke="black" d="M200.722,-205.2C200.722,-205.2 381.278,-205.2 381.278,-205.2 387.278,-205.2 393.278,-211.2 393.278,-217.2 393.278,-217.2 393.278,-494.8 393.278,-494.8 393.278,-500.8 387.278,-506.8 381.278,-506.8 381.278,-506.8 200.722,-506.8 200.722,-506.8 194.722,-506.8 188.722,-500.8 188.722,-494.8 188.722,-494.8 188.722,-217.2 188.722,-217.2 188.722,-211.2 194.722,-205.2 200.722,-205.2"/>
<text text-anchor="middle" x="291" y="-488.8" font-family="Times,serif" font-size="14.00">User</text>
<polyline fill="none" stroke="black" points="188.722,-482 393.278,-482 "/>
<text text-anchor="start" x="196.722" y="-464" font-family="Times,serif" font-size="14.00">id :integer</text>
<text text-anchor="start" x="196.722" y="-447.2" font-family="Times,serif" font-size="14.00">email :string</text>
<text text-anchor="start" x="196.722" y="-430.4" font-family="Times,serif" font-size="14.00">encrypted_password :string</text>
<text text-anchor="start" x="196.722" y="-413.6" font-family="Times,serif" font-size="14.00">reset_password_token :string</text>
<text text-anchor="start" x="196.722" y="-396.8" font-family="Times,serif" font-size="14.00">reset_password_sent_at :datetime</text>
<text text-anchor="start" x="196.722" y="-380" font-family="Times,serif" font-size="14.00">remember_created_at :datetime</text>
<text text-anchor="start" x="196.722" y="-363.2" font-family="Times,serif" font-size="14.00">sign_in_count :integer</text>
<text text-anchor="start" x="196.722" y="-346.4" font-family="Times,serif" font-size="14.00">current_sign_in_at :datetime</text>
<text text-anchor="start" x="196.722" y="-329.6" font-family="Times,serif" font-size="14.00">last_sign_in_at :datetime</text>
<text text-anchor="start" x="196.722" y="-312.8" font-family="Times,serif" font-size="14.00">current_sign_in_ip :string</text>
<text text-anchor="start" x="196.722" y="-296" font-family="Times,serif" font-size="14.00">last_sign_in_ip :string</text>
<text text-anchor="start" x="196.722" y="-279.2" font-family="Times,serif" font-size="14.00">created_at :datetime</text>
<text text-anchor="start" x="196.722" y="-262.4" font-family="Times,serif" font-size="14.00">updated_at :datetime</text>
<text text-anchor="start" x="196.722" y="-245.6" font-family="Times,serif" font-size="14.00">game_id :integer</text>
<text text-anchor="start" x="196.722" y="-228.8" font-family="Times,serif" font-size="14.00">wins :integer</text>
<text text-anchor="start" x="196.722" y="-212" font-family="Times,serif" font-size="14.00">points :integer</text>
</g>
<!-- Game&#45;&gt;User -->
<g id="edge4" class="edge"><title>Game&#45;&gt;User</title>
<path fill="none" stroke="#06ef3c" d="M349.94,-536.96C347.405,-530.311 344.825,-523.465 342.231,-516.507"/>
<ellipse fill="none" stroke="#06ef3c" cx="351.445" cy="-540.887" rx="4.00001" ry="4.00001"/>
<polygon fill="#06ef3c" stroke="#06ef3c" points="342.166,-516.332 342.906,-505.391 340.426,-511.644 338.687,-506.956 338.687,-506.956 338.687,-506.956 340.426,-511.644 334.468,-508.522 342.166,-516.332 342.166,-516.332"/>
</g>
<!-- User&#45;&gt;Deck -->
<g id="edge10" class="edge"><title>User&#45;&gt;Deck</title>
<path fill="none" stroke="#71f45d" d="M291,-196.962C291,-190.568 291,-184.246 291,-178.054"/>
<ellipse fill="none" stroke="#71f45d" cx="291" cy="-200.998" rx="4" ry="4"/>
<polygon fill="#71f45d" stroke="#71f45d" points="291,-177.768 295.5,-167.768 291,-172.768 291,-167.768 291,-167.768 291,-167.768 291,-172.768 286.5,-167.768 291,-177.768 291,-177.768"/>
</g>
<!-- User&#45;&gt;Game -->
<g id="edge9" class="edge"><title>User&#45;&gt;Game</title>
<path fill="none" stroke="#9ef3eb" d="M355.522,-516.732C357.699,-522.912 359.822,-529.002 361.87,-534.943"/>
<polygon fill="#9ef3eb" stroke="#9ef3eb" points="355.398,-516.383 356.302,-505.454 353.729,-511.669 352.06,-506.956 352.06,-506.956 352.06,-506.956 353.729,-511.669 347.818,-508.458 355.398,-516.383 355.398,-516.383"/>
<polygon fill="#9ef3eb" stroke="#9ef3eb" points="361.945,-535.162 360.929,-546.08 363.566,-539.892 365.186,-544.622 365.186,-544.622 365.186,-544.622 363.566,-539.892 369.443,-543.164 361.945,-535.162 361.945,-535.162"/>
</g>
<!-- User&#45;&gt;Hand -->
<g id="edge8" class="edge"><title>User&#45;&gt;Hand</title>
<path fill="none" stroke="#5ca877" d="M388.694,-197.991C398.867,-181.643 408.764,-165.737 417.767,-151.267"/>
<ellipse fill="none" stroke="#5ca877" cx="386.448" cy="-201.602" rx="4.00002" ry="4.00002"/>
<polygon fill="#5ca877" stroke="#5ca877" points="417.969,-150.943 427.073,-144.83 420.61,-146.698 423.252,-142.452 423.252,-142.452 423.252,-142.452 420.61,-146.698 419.431,-140.075 417.969,-150.943 417.969,-150.943"/>
</g>
<!-- WhiteCard -->
<g id="node7" class="node"><title>WhiteCard</title>
<path fill="none" stroke="black" d="M537.495,-578.4C537.495,-578.4 646.505,-578.4 646.505,-578.4 652.505,-578.4 658.505,-584.4 658.505,-590.4 658.505,-590.4 658.505,-649.6 658.505,-649.6 658.505,-655.6 652.505,-661.6 646.505,-661.6 646.505,-661.6 537.495,-661.6 537.495,-661.6 531.495,-661.6 525.495,-655.6 525.495,-649.6 525.495,-649.6 525.495,-590.4 525.495,-590.4 525.495,-584.4 531.495,-578.4 537.495,-578.4"/>
<text text-anchor="middle" x="592" y="-643.6" font-family="Times,serif" font-size="14.00">WhiteCard</text>
<polyline fill="none" stroke="black" points="525.495,-636.8 658.505,-636.8 "/>
<text text-anchor="start" x="533.495" y="-618.8" font-family="Times,serif" font-size="14.00">id :integer</text>
<text text-anchor="start" x="533.495" y="-602" font-family="Times,serif" font-size="14.00">created_at :datetime</text>
<text text-anchor="start" x="533.495" y="-585.2" font-family="Times,serif" font-size="14.00">updated_at :datetime</text>
</g>
<!-- ActiveRecord::Base -->
<g id="node8" class="node"><title>ActiveRecord::Base</title>
<ellipse fill="none" stroke="black" cx="339" cy="-775" rx="88.2033" ry="18"/>
<text text-anchor="middle" x="339" y="-769.4" font-family="Times,serif" font-size="14.00">ActiveRecord::Base</text>
</g>
<!-- ActiveRecord::Base&#45;&gt;BlackCard -->
<g id="edge1" class="edge"><title>ActiveRecord::Base&#45;&gt;BlackCard</title>
<path fill="none" stroke="black" d="M303.3,-758.302C284.784,-750.262 261.756,-740.418 241,-732 199.543,-715.185 184.99,-719.625 147,-696 133.136,-687.378 119.53,-676.19 107.545,-665.097"/>
<polyline fill="none" stroke="black" points="103.879,-661.661 107.527,-665.08 "/>
</g>
<!-- ActiveRecord::Base&#45;&gt;Deck -->
<g id="edge2" class="edge"><title>ActiveRecord::Base&#45;&gt;Deck</title>
<path fill="none" stroke="black" d="M324.249,-757.208C290.406,-717.397 207.945,-612.747 180,-508 145.172,-377.455 130.473,-329.706 180,-204 186.241,-188.159 195.696,-173.181 206.504,-159.538"/>
<polyline fill="none" stroke="black" points="209.9,-155.348 206.752,-159.232 "/>
</g>
<!-- ActiveRecord::Base&#45;&gt;Game -->
<g id="edge6" class="edge"><title>ActiveRecord::Base&#45;&gt;Game</title>
<path fill="none" stroke="black" d="M344.3,-756.746C348.63,-742.651 355.084,-721.642 361.628,-700.338"/>
<polyline fill="none" stroke="black" points="363.114,-695.502 361.645,-700.282 "/>
</g>
<!-- ActiveRecord::Base&#45;&gt;Hand -->
<g id="edge7" class="edge"><title>ActiveRecord::Base&#45;&gt;Hand</title>
<path fill="none" stroke="black" d="M381.537,-759.165C409.543,-746.929 444.054,-726.56 461,-696 559.587,-518.207 509.441,-264.18 478.003,-147.707"/>
<polyline fill="none" stroke="black" points="476.614,-142.604 477.927,-147.429 "/>
</g>
<!-- ActiveRecord::Base&#45;&gt;User -->
<g id="edge11" class="edge"><title>ActiveRecord::Base&#45;&gt;User</title>
<path fill="none" stroke="black" d="M330.89,-756.788C323.996,-741.272 314.521,-717.637 310,-696 297.625,-636.769 292.119,-570.533 289.963,-512.432"/>
<polyline fill="none" stroke="black" points="289.777,-507.194 289.955,-512.191 "/>
</g>
<!-- ActiveRecord::Base&#45;&gt;WhiteCard -->
<g id="edge12" class="edge"><title>ActiveRecord::Base&#45;&gt;WhiteCard</title>
<path fill="none" stroke="black" d="M381.615,-759.089C417.676,-745.463 469.896,-723.305 511,-696 524.195,-687.235 537.313,-676.311 549.029,-665.536"/>
<polyline fill="none" stroke="black" points="552.947,-661.891 549.286,-665.297 "/>
</g>
</g>
</svg>
