<?xml version="1.0" encoding="UTF-8" standalone="no"?>
<!DOCTYPE svg PUBLIC "-//W3C//DTD SVG 1.1//EN"
 "http://www.w3.org/Graphics/SVG/1.1/DTD/svg11.dtd">
<!-- Generated by graphviz version 2.34.0 (20131105.2002)
 -->
<!-- Title: models_diagram Pages: 1 -->
<svg width="638pt" height="1014pt"
 viewBox="0.00 0.00 637.63 1014.00" xmlns="http://www.w3.org/2000/svg" xmlns:xlink="http://www.w3.org/1999/xlink">
<g id="graph0" class="graph" transform="scale(1 1) rotate(0) translate(4 1010)">
<title>models_diagram</title>
<polygon fill="white" stroke="white" points="-4,4 -4,-1010 633.634,-1010 633.634,4 -4,4"/>
<!-- _diagram_info -->
<g id="node1" class="node"><title>_diagram_info</title>
<text text-anchor="start" x="61.4024" y="-989" font-family="Times,serif" font-size="13.00">Models diagram</text>
<text text-anchor="start" x="61.4024" y="-973.4" font-family="Times,serif" font-size="13.00">Date: Jan 14 2014 &#45; 23:21</text>
<text text-anchor="start" x="61.4024" y="-957.8" font-family="Times,serif" font-size="13.00">Migration version: 20140114042053</text>
<text text-anchor="start" x="61.4024" y="-942.2" font-family="Times,serif" font-size="13.00">Generated by RailRoady 1.1.1</text>
<text text-anchor="start" x="61.4024" y="-926.6" font-family="Times,serif" font-size="13.00">http://railroady.prestonlee.com</text>
</g>
<!-- BlackCard -->
<g id="node2" class="node"><title>BlackCard</title>
<path fill="none" stroke="black" d="M61.3467,-0.8C61.3467,-0.8 170.357,-0.8 170.357,-0.8 176.357,-0.8 182.357,-6.8 182.357,-12.8 182.357,-12.8 182.357,-139.2 182.357,-139.2 182.357,-145.2 176.357,-151.2 170.357,-151.2 170.357,-151.2 61.3467,-151.2 61.3467,-151.2 55.3467,-151.2 49.3467,-145.2 49.3467,-139.2 49.3467,-139.2 49.3467,-12.8 49.3467,-12.8 49.3467,-6.8 55.3467,-0.8 61.3467,-0.8"/>
<text text-anchor="middle" x="115.852" y="-133.2" font-family="Times,serif" font-size="14.00">BlackCard</text>
<polyline fill="none" stroke="black" points="49.3467,-126.4 182.357,-126.4 "/>
<text text-anchor="start" x="57.3467" y="-108.4" font-family="Times,serif" font-size="14.00">id :integer</text>
<text text-anchor="start" x="57.3467" y="-91.6" font-family="Times,serif" font-size="14.00">created_at :datetime</text>
<text text-anchor="start" x="57.3467" y="-74.8" font-family="Times,serif" font-size="14.00">updated_at :datetime</text>
<text text-anchor="start" x="57.3467" y="-58" font-family="Times,serif" font-size="14.00">num_blanks :integer</text>
<text text-anchor="start" x="57.3467" y="-41.2" font-family="Times,serif" font-size="14.00">content :string</text>
<text text-anchor="start" x="57.3467" y="-24.4" font-family="Times,serif" font-size="14.00">deck_id :integer</text>
<text text-anchor="start" x="57.3467" y="-7.6" font-family="Times,serif" font-size="14.00">game_id :integer</text>
</g>
<!-- Deck -->
<g id="node3" class="node"><title>Deck</title>
<path fill="none" stroke="black" d="M156.347,-205.6C156.347,-205.6 265.357,-205.6 265.357,-205.6 271.357,-205.6 277.357,-211.6 277.357,-217.6 277.357,-217.6 277.357,-310.4 277.357,-310.4 277.357,-316.4 271.357,-322.4 265.357,-322.4 265.357,-322.4 156.347,-322.4 156.347,-322.4 150.347,-322.4 144.347,-316.4 144.347,-310.4 144.347,-310.4 144.347,-217.6 144.347,-217.6 144.347,-211.6 150.347,-205.6 156.347,-205.6"/>
<text text-anchor="middle" x="210.852" y="-304.4" font-family="Times,serif" font-size="14.00">Deck</text>
<polyline fill="none" stroke="black" points="144.347,-297.6 277.357,-297.6 "/>
<text text-anchor="start" x="152.347" y="-279.6" font-family="Times,serif" font-size="14.00">id :integer</text>
<text text-anchor="start" x="152.347" y="-262.8" font-family="Times,serif" font-size="14.00">name :string</text>
<text text-anchor="start" x="152.347" y="-246" font-family="Times,serif" font-size="14.00">created_at :datetime</text>
<text text-anchor="start" x="152.347" y="-229.2" font-family="Times,serif" font-size="14.00">updated_at :datetime</text>
<text text-anchor="start" x="152.347" y="-212.4" font-family="Times,serif" font-size="14.00">game_id :integer</text>
</g>
<!-- Deck&#45;&gt;BlackCard -->
<g id="edge3" class="edge"><title>Deck&#45;&gt;BlackCard</title>
<path fill="none" stroke="#a43f72" d="M177.713,-198.117C171.518,-185.987 164.962,-173.153 158.526,-160.552"/>
<ellipse fill="none" stroke="#a43f72" cx="179.625" cy="-201.86" rx="4.00002" ry="4.00002"/>
<polygon fill="#a43f72" stroke="#a43f72" points="158.417,-160.337 157.876,-149.384 156.142,-155.884 153.868,-151.431 153.868,-151.431 153.868,-151.431 156.142,-155.884 149.86,-153.478 158.417,-160.337 158.417,-160.337"/>
</g>
<!-- WhiteCard -->
<g id="node8" class="node"><title>WhiteCard</title>
<path fill="none" stroke="black" d="M319.347,-9.2C319.347,-9.2 428.357,-9.2 428.357,-9.2 434.357,-9.2 440.357,-15.2 440.357,-21.2 440.357,-21.2 440.357,-130.8 440.357,-130.8 440.357,-136.8 434.357,-142.8 428.357,-142.8 428.357,-142.8 319.347,-142.8 319.347,-142.8 313.347,-142.8 307.347,-136.8 307.347,-130.8 307.347,-130.8 307.347,-21.2 307.347,-21.2 307.347,-15.2 313.347,-9.2 319.347,-9.2"/>
<text text-anchor="middle" x="373.852" y="-124.8" font-family="Times,serif" font-size="14.00">WhiteCard</text>
<polyline fill="none" stroke="black" points="307.347,-118 440.357,-118 "/>
<text text-anchor="start" x="315.347" y="-100" font-family="Times,serif" font-size="14.00">id :integer</text>
<text text-anchor="start" x="315.347" y="-83.2" font-family="Times,serif" font-size="14.00">created_at :datetime</text>
<text text-anchor="start" x="315.347" y="-66.4" font-family="Times,serif" font-size="14.00">updated_at :datetime</text>
<text text-anchor="start" x="315.347" y="-49.6" font-family="Times,serif" font-size="14.00">content :string</text>
<text text-anchor="start" x="315.347" y="-32.8" font-family="Times,serif" font-size="14.00">deck_id :integer</text>
<text text-anchor="start" x="315.347" y="-16" font-family="Times,serif" font-size="14.00">hand_id :integer</text>
</g>
<!-- Deck&#45;&gt;WhiteCard -->
<g id="edge2" class="edge"><title>Deck&#45;&gt;WhiteCard</title>
<path fill="none" stroke="#470355" d="M266.644,-199.335C280.313,-183.738 295.056,-166.915 309.105,-150.883"/>
<ellipse fill="none" stroke="#470355" cx="263.946" cy="-202.414" rx="4.00002" ry="4.00002"/>
<polygon fill="#470355" stroke="#470355" points="309.348,-150.606 319.323,-146.051 312.643,-146.846 315.938,-143.086 315.938,-143.086 315.938,-143.086 312.643,-146.846 312.554,-140.12 309.348,-150.606 309.348,-150.606"/>
</g>
<!-- Game -->
<g id="node4" class="node"><title>Game</title>
<path fill="none" stroke="black" d="M181.288,-682.6C181.288,-682.6 314.416,-682.6 314.416,-682.6 320.416,-682.6 326.416,-688.6 326.416,-694.6 326.416,-694.6 326.416,-871.4 326.416,-871.4 326.416,-877.4 320.416,-883.4 314.416,-883.4 314.416,-883.4 181.288,-883.4 181.288,-883.4 175.288,-883.4 169.288,-877.4 169.288,-871.4 169.288,-871.4 169.288,-694.6 169.288,-694.6 169.288,-688.6 175.288,-682.6 181.288,-682.6"/>
<text text-anchor="middle" x="247.852" y="-865.4" font-family="Times,serif" font-size="14.00">Game</text>
<polyline fill="none" stroke="black" points="169.288,-858.6 326.416,-858.6 "/>
<text text-anchor="start" x="177.288" y="-840.6" font-family="Times,serif" font-size="14.00">id :integer</text>
<text text-anchor="start" x="177.288" y="-823.8" font-family="Times,serif" font-size="14.00">created_at :datetime</text>
<text text-anchor="start" x="177.288" y="-807" font-family="Times,serif" font-size="14.00">updated_at :datetime</text>
<text text-anchor="start" x="177.288" y="-790.2" font-family="Times,serif" font-size="14.00">name :string</text>
<text text-anchor="start" x="177.288" y="-773.4" font-family="Times,serif" font-size="14.00">max_players :integer</text>
<text text-anchor="start" x="177.288" y="-756.6" font-family="Times,serif" font-size="14.00">finished :boolean</text>
<text text-anchor="start" x="177.288" y="-739.8" font-family="Times,serif" font-size="14.00">original_deck_id :integer</text>
<text text-anchor="start" x="177.288" y="-723" font-family="Times,serif" font-size="14.00">czar_id :integer</text>
<text text-anchor="start" x="177.288" y="-706.2" font-family="Times,serif" font-size="14.00">max_score :integer</text>
<text text-anchor="start" x="177.288" y="-689.4" font-family="Times,serif" font-size="14.00">winning_card_id :integer</text>
</g>
<!-- Game&#45;&gt;BlackCard -->
<g id="edge5" class="edge"><title>Game&#45;&gt;BlackCard</title>
<path fill="none" stroke="#38744c" d="M214.798,-674.575C212.034,-664.934 209.346,-655.304 206.852,-646 170.671,-511.052 155.952,-478.111 134.852,-340 125.681,-279.97 120.913,-211.534 118.447,-159.524"/>
<ellipse fill="none" stroke="#38744c" cx="215.919" cy="-678.46" rx="4.00001" ry="4.00001"/>
<ellipse fill="#38744c" stroke="#38744c" cx="118.254" cy="-155.317" rx="4" ry="4"/>
</g>
<!-- Game&#45;&gt;Deck -->
<g id="edge6" class="edge"><title>Game&#45;&gt;Deck</title>
<path fill="none" stroke="#a9328c" d="M226.528,-674.331C225.1,-664.777 223.84,-655.231 222.852,-646 211.061,-535.846 209.559,-406.839 209.932,-330.737"/>
<ellipse fill="none" stroke="#a9328c" cx="227.154" cy="-678.399" rx="4.00001" ry="4.00001"/>
<ellipse fill="#a9328c" stroke="#a9328c" cx="209.956" cy="-326.632" rx="4" ry="4"/>
</g>
<!-- Hand -->
<g id="node5" class="node"><title>Hand</title>
<path fill="none" stroke="black" d="M307.664,-188.8C307.664,-188.8 440.04,-188.8 440.04,-188.8 446.04,-188.8 452.04,-194.8 452.04,-200.8 452.04,-200.8 452.04,-327.2 452.04,-327.2 452.04,-333.2 446.04,-339.2 440.04,-339.2 440.04,-339.2 307.664,-339.2 307.664,-339.2 301.664,-339.2 295.664,-333.2 295.664,-327.2 295.664,-327.2 295.664,-200.8 295.664,-200.8 295.664,-194.8 301.664,-188.8 307.664,-188.8"/>
<text text-anchor="middle" x="373.852" y="-321.2" font-family="Times,serif" font-size="14.00">Hand</text>
<polyline fill="none" stroke="black" points="295.664,-314.4 452.04,-314.4 "/>
<text text-anchor="start" x="303.664" y="-296.4" font-family="Times,serif" font-size="14.00">id :integer</text>
<text text-anchor="start" x="303.664" y="-279.6" font-family="Times,serif" font-size="14.00">created_at :datetime</text>
<text text-anchor="start" x="303.664" y="-262.8" font-family="Times,serif" font-size="14.00">updated_at :datetime</text>
<text text-anchor="start" x="303.664" y="-246" font-family="Times,serif" font-size="14.00">user_id :integer</text>
<text text-anchor="start" x="303.664" y="-229.2" font-family="Times,serif" font-size="14.00">game_id :integer</text>
<text text-anchor="start" x="303.664" y="-212.4" font-family="Times,serif" font-size="14.00">score :integer</text>
<text text-anchor="start" x="303.664" y="-195.6" font-family="Times,serif" font-size="14.00">submissions_left :integer</text>
</g>
<!-- Game&#45;&gt;Hand -->
<g id="edge7" class="edge"><title>Game&#45;&gt;Hand</title>
<path fill="none" stroke="#2773a3" d="M240.674,-674.198C235.545,-572.222 233.048,-427.365 255.852,-376 258.211,-370.686 271.357,-357.225 288.075,-341.433"/>
<ellipse fill="none" stroke="#2773a3" cx="240.89" cy="-678.391" rx="4" ry="4"/>
<polygon fill="#2773a3" stroke="#2773a3" points="288.138,-341.374 298.514,-337.825 291.788,-337.957 295.438,-334.54 295.438,-334.54 295.438,-334.54 291.788,-337.957 292.362,-331.255 288.138,-341.374 288.138,-341.374"/>
</g>
<!-- Submission -->
<g id="node6" class="node"><title>Submission</title>
<path fill="none" stroke="black" d="M482.347,-197.2C482.347,-197.2 591.357,-197.2 591.357,-197.2 597.357,-197.2 603.357,-203.2 603.357,-209.2 603.357,-209.2 603.357,-318.8 603.357,-318.8 603.357,-324.8 597.357,-330.8 591.357,-330.8 591.357,-330.8 482.347,-330.8 482.347,-330.8 476.347,-330.8 470.347,-324.8 470.347,-318.8 470.347,-318.8 470.347,-209.2 470.347,-209.2 470.347,-203.2 476.347,-197.2 482.347,-197.2"/>
<text text-anchor="middle" x="536.852" y="-312.8" font-family="Times,serif" font-size="14.00">Submission</text>
<polyline fill="none" stroke="black" points="470.347,-306 603.357,-306 "/>
<text text-anchor="start" x="478.347" y="-288" font-family="Times,serif" font-size="14.00">id :integer</text>
<text text-anchor="start" x="478.347" y="-271.2" font-family="Times,serif" font-size="14.00">user_id :integer</text>
<text text-anchor="start" x="478.347" y="-254.4" font-family="Times,serif" font-size="14.00">game_id :integer</text>
<text text-anchor="start" x="478.347" y="-237.6" font-family="Times,serif" font-size="14.00">content :string</text>
<text text-anchor="start" x="478.347" y="-220.8" font-family="Times,serif" font-size="14.00">created_at :datetime</text>
<text text-anchor="start" x="478.347" y="-204" font-family="Times,serif" font-size="14.00">updated_at :datetime</text>
</g>
<!-- Game&#45;&gt;Submission -->
<g id="edge9" class="edge"><title>Game&#45;&gt;Submission</title>
<path fill="none" stroke="#25308d" d="M334.14,-752.511C384.114,-730.889 443.711,-696.419 477.852,-646 539.638,-554.755 546.356,-423.296 543.281,-341.084"/>
<ellipse fill="none" stroke="#25308d" cx="330.208" cy="-754.178" rx="4.00002" ry="4.00002"/>
<polygon fill="#25308d" stroke="#25308d" points="543.28,-341.051 547.344,-330.866 543.064,-336.056 542.848,-331.06 542.848,-331.06 542.848,-331.06 543.064,-336.056 538.353,-331.254 543.28,-341.051 543.28,-341.051"/>
</g>
<!-- User -->
<g id="node7" class="node"><title>User</title>
<path fill="none" stroke="black" d="M276.574,-377C276.574,-377 457.13,-377 457.13,-377 463.13,-377 469.13,-383 469.13,-389 469.13,-389 469.13,-633 469.13,-633 469.13,-639 463.13,-645 457.13,-645 457.13,-645 276.574,-645 276.574,-645 270.574,-645 264.574,-639 264.574,-633 264.574,-633 264.574,-389 264.574,-389 264.574,-383 270.574,-377 276.574,-377"/>
<text text-anchor="middle" x="366.852" y="-627" font-family="Times,serif" font-size="14.00">User</text>
<polyline fill="none" stroke="black" points="264.574,-620.2 469.13,-620.2 "/>
<text text-anchor="start" x="272.574" y="-602.2" font-family="Times,serif" font-size="14.00">id :integer</text>
<text text-anchor="start" x="272.574" y="-585.4" font-family="Times,serif" font-size="14.00">email :string</text>
<text text-anchor="start" x="272.574" y="-568.6" font-family="Times,serif" font-size="14.00">encrypted_password :string</text>
<text text-anchor="start" x="272.574" y="-551.8" font-family="Times,serif" font-size="14.00">reset_password_token :string</text>
<text text-anchor="start" x="272.574" y="-535" font-family="Times,serif" font-size="14.00">reset_password_sent_at :datetime</text>
<text text-anchor="start" x="272.574" y="-518.2" font-family="Times,serif" font-size="14.00">remember_created_at :datetime</text>
<text text-anchor="start" x="272.574" y="-501.4" font-family="Times,serif" font-size="14.00">sign_in_count :integer</text>
<text text-anchor="start" x="272.574" y="-484.6" font-family="Times,serif" font-size="14.00">current_sign_in_at :datetime</text>
<text text-anchor="start" x="272.574" y="-467.8" font-family="Times,serif" font-size="14.00">last_sign_in_at :datetime</text>
<text text-anchor="start" x="272.574" y="-451" font-family="Times,serif" font-size="14.00">current_sign_in_ip :string</text>
<text text-anchor="start" x="272.574" y="-434.2" font-family="Times,serif" font-size="14.00">last_sign_in_ip :string</text>
<text text-anchor="start" x="272.574" y="-417.4" font-family="Times,serif" font-size="14.00">created_at :datetime</text>
<text text-anchor="start" x="272.574" y="-400.6" font-family="Times,serif" font-size="14.00">updated_at :datetime</text>
<text text-anchor="start" x="272.574" y="-383.8" font-family="Times,serif" font-size="14.00">wins :integer</text>
</g>
<!-- Game&#45;&gt;User -->
<g id="edge8" class="edge"><title>Game&#45;&gt;User</title>
<path fill="none" stroke="#dafb03" d="M295.954,-672.861C298.572,-666.921 301.221,-660.911 303.879,-654.881"/>
<polygon fill="#dafb03" stroke="#dafb03" points="295.858,-673.078 287.707,-680.414 293.842,-677.654 291.825,-682.229 291.825,-682.229 291.825,-682.229 293.842,-677.654 295.943,-684.044 295.858,-673.078 295.858,-673.078"/>
<polygon fill="#dafb03" stroke="#dafb03" points="304.027,-654.544 312.178,-647.208 306.044,-649.969 308.06,-645.393 308.06,-645.393 308.06,-645.393 306.044,-649.969 303.942,-643.578 304.027,-654.544 304.027,-654.544"/>
</g>
<!-- Hand&#45;&gt;WhiteCard -->
<g id="edge11" class="edge"><title>Hand&#45;&gt;WhiteCard</title>
<path fill="none" stroke="#d84fa6" d="M373.852,-180.502C373.852,-171.402 373.852,-162.166 373.852,-153.148"/>
<ellipse fill="none" stroke="#d84fa6" cx="373.852" cy="-184.686" rx="4" ry="4"/>
<polygon fill="#d84fa6" stroke="#d84fa6" points="373.852,-153.079 378.352,-143.079 373.852,-148.079 373.852,-143.079 373.852,-143.079 373.852,-143.079 373.852,-148.079 369.352,-143.079 373.852,-153.079 373.852,-153.079"/>
</g>
<!-- User&#45;&gt;Deck -->
<g id="edge16" class="edge"><title>User&#45;&gt;Deck</title>
<path fill="none" stroke="#02f444" d="M277.462,-369.611C268.96,-356.259 260.643,-343.197 252.926,-331.078"/>
<ellipse fill="none" stroke="#02f444" cx="279.856" cy="-373.372" rx="4.00002" ry="4.00002"/>
<polygon fill="#02f444" stroke="#02f444" points="252.79,-330.865 251.215,-320.013 250.105,-326.647 247.419,-322.43 247.419,-322.43 247.419,-322.43 250.105,-326.647 243.624,-324.846 252.79,-330.865 252.79,-330.865"/>
</g>
<!-- User&#45;&gt;Hand -->
<g id="edge14" class="edge"><title>User&#45;&gt;Hand</title>
<path fill="none" stroke="#31b2a8" d="M370.89,-368.676C371.073,-362.254 371.255,-355.904 371.432,-349.697"/>
<ellipse fill="none" stroke="#31b2a8" cx="370.774" cy="-372.747" rx="4" ry="4"/>
<polygon fill="#31b2a8" stroke="#31b2a8" points="371.441,-349.395 376.225,-339.528 371.584,-344.397 371.726,-339.399 371.726,-339.399 371.726,-339.399 371.584,-344.397 367.228,-339.271 371.441,-349.395 371.441,-349.395"/>
</g>
<!-- User&#45;&gt;Submission -->
<g id="edge15" class="edge"><title>User&#45;&gt;Submission</title>
<path fill="none" stroke="#57038d" d="M463.935,-370.087C471.192,-359.628 478.33,-349.341 485.13,-339.541"/>
<ellipse fill="none" stroke="#57038d" cx="461.595" cy="-373.459" rx="4.00002" ry="4.00002"/>
<polygon fill="#57038d" stroke="#57038d" points="485.312,-339.278 494.71,-333.628 488.163,-335.17 491.013,-331.062 491.013,-331.062 491.013,-331.062 488.163,-335.17 487.316,-328.497 485.312,-339.278 485.312,-339.278"/>
</g>
<!-- ActiveRecord::Base -->
<g id="node9" class="node"><title>ActiveRecord::Base</title>
<ellipse fill="none" stroke="black" cx="366.852" cy="-963" rx="88.2033" ry="18"/>
<text text-anchor="middle" x="366.852" y="-957.4" font-family="Times,serif" font-size="14.00">ActiveRecord::Base</text>
</g>
<!-- ActiveRecord::Base&#45;&gt;BlackCard -->
<g id="edge1" class="edge"><title>ActiveRecord::Base&#45;&gt;BlackCard</title>
<path fill="none" stroke="black" d="M334.359,-946.132C315.569,-937.452 291.275,-927.06 268.852,-920 193.941,-896.414 145.407,-944.928 95.8521,-884 -76.5932,-671.976 25.2864,-314.7 83.6211,-156.492"/>
<polyline fill="none" stroke="black" points="85.5057,-151.409 83.7675,-156.097 "/>
</g>
<!-- ActiveRecord::Base&#45;&gt;Deck -->
<g id="edge4" class="edge"><title>ActiveRecord::Base&#45;&gt;Deck</title>
<path fill="none" stroke="black" d="M332.224,-946.298C313.6,-938.073 290.145,-928.062 268.852,-920 221.139,-901.935 189.74,-925.347 159.852,-884 37.7328,-715.06 129.136,-448.28 181.215,-327.769"/>
<polyline fill="none" stroke="black" points="183.357,-322.843 181.363,-327.428 "/>
</g>
<!-- ActiveRecord::Base&#45;&gt;Game -->
<g id="edge10" class="edge"><title>ActiveRecord::Base&#45;&gt;Game</title>
<path fill="none" stroke="black" d="M355.442,-944.933C346.132,-931.007 332.13,-910.063 317.279,-887.849"/>
<polyline fill="none" stroke="black" points="314.497,-883.688 317.276,-887.844 "/>
</g>
<!-- ActiveRecord::Base&#45;&gt;Hand -->
<g id="edge12" class="edge"><title>ActiveRecord::Base&#45;&gt;Hand</title>
<path fill="none" stroke="black" d="M375.111,-945.079C397.242,-898.674 457.57,-764.939 477.852,-646 498.024,-527.708 521.964,-487.598 477.852,-376 472.445,-362.32 464.467,-349.338 455.293,-337.398"/>
<polyline fill="none" stroke="black" points="452.137,-333.389 455.23,-337.318 "/>
</g>
<!-- ActiveRecord::Base&#45;&gt;Submission -->
<g id="edge13" class="edge"><title>ActiveRecord::Base&#45;&gt;Submission</title>
<path fill="none" stroke="black" d="M390.943,-945.629C409.846,-931.502 435.316,-909.401 449.852,-884 550.897,-707.43 550.608,-457.53 543.211,-336.378"/>
<polyline fill="none" stroke="black" points="542.877,-331.061 543.191,-336.051 "/>
</g>
<!-- ActiveRecord::Base&#45;&gt;User -->
<g id="edge17" class="edge"><title>ActiveRecord::Base&#45;&gt;User</title>
<path fill="none" stroke="black" d="M366.852,-944.909C366.852,-897.025 366.852,-758.016 366.852,-650.303"/>
<polyline fill="none" stroke="black" points="366.852,-645.198 366.852,-650.198 "/>
</g>
<!-- ActiveRecord::Base&#45;&gt;WhiteCard -->
<g id="edge18" class="edge"><title>ActiveRecord::Base&#45;&gt;WhiteCard</title>
<path fill="none" stroke="black" d="M409.832,-947.201C439.317,-934.84 476.937,-914.305 498.852,-884 514.875,-861.843 608.161,-377.4 611.852,-340 618.488,-272.771 648.148,-244.977 611.852,-188 575.531,-130.984 501.442,-102.778 445.52,-89.1355"/>
<polyline fill="none" stroke="black" points="440.508,-87.9397 445.372,-89.1001 "/>
</g>
</g>
</svg>
