<?xml version="1.0" encoding="UTF-8" standalone="no"?>
<!DOCTYPE svg PUBLIC "-//W3C//DTD SVG 1.1//EN"
 "http://www.w3.org/Graphics/SVG/1.1/DTD/svg11.dtd">
<!-- Generated by graphviz version 2.34.0 (20131105.2002)
 -->
<!-- Title: models_diagram Pages: 1 -->
<svg width="412pt" height="382pt"
 viewBox="0.00 0.00 412.00 382.00" xmlns="http://www.w3.org/2000/svg" xmlns:xlink="http://www.w3.org/1999/xlink">
<g id="graph0" class="graph" transform="scale(1 1) rotate(0) translate(4 378)">
<title>models_diagram</title>
<polygon fill="white" stroke="white" points="-4,4 -4,-378 408,-378 408,4 -4,4"/>
<!-- _diagram_info -->
<g id="node1" class="node"><title>_diagram_info</title>
<text text-anchor="start" x="7.55029" y="-357" font-family="Times,serif" font-size="13.00">Models diagram</text>
<text text-anchor="start" x="7.55029" y="-341.4" font-family="Times,serif" font-size="13.00">Date: Nov 24 2013 &#45; 02:57</text>
<text text-anchor="start" x="7.55029" y="-325.8" font-family="Times,serif" font-size="13.00">Migration version: 20131124045350</text>
<text text-anchor="start" x="7.55029" y="-310.2" font-family="Times,serif" font-size="13.00">Generated by RailRoady 1.1.1</text>
<text text-anchor="start" x="7.55029" y="-294.6" font-family="Times,serif" font-size="13.00">http://railroady.prestonlee.com</text>
</g>
<!-- BlackCard -->
<g id="node2" class="node"><title>BlackCard</title>
<ellipse fill="none" stroke="black" cx="211" cy="-18" rx="52.0008" ry="18"/>
<text text-anchor="middle" x="211" y="-12.4" font-family="Times,serif" font-size="14.00">BlackCard</text>
</g>
<!-- Deck -->
<g id="node3" class="node"><title>Deck</title>
<ellipse fill="none" stroke="black" cx="270" cy="-90" rx="31.1178" ry="18"/>
<text text-anchor="middle" x="270" y="-84.4" font-family="Times,serif" font-size="14.00">Deck</text>
</g>
<!-- Deck&#45;&gt;BlackCard -->
<g id="edge3" class="edge"><title>Deck&#45;&gt;BlackCard</title>
<path fill="none" stroke="#89b70a" d="M251.742,-67.3382C245.381,-59.7913 238.2,-51.2713 231.658,-43.5097"/>
<ellipse fill="none" stroke="#89b70a" cx="254.328" cy="-70.4062" rx="4.00002" ry="4.00002"/>
<polygon fill="#89b70a" stroke="#89b70a" points="231.324,-43.1135 228.32,-32.567 228.102,-39.2903 224.879,-35.4672 224.879,-35.4672 224.879,-35.4672 228.102,-39.2903 221.439,-38.3673 231.324,-43.1135 231.324,-43.1135"/>
</g>
<!-- WhiteCard -->
<g id="node7" class="node"><title>WhiteCard</title>
<ellipse fill="none" stroke="black" cx="351" cy="-18" rx="53.1058" ry="18"/>
<text text-anchor="middle" x="351" y="-12.4" font-family="Times,serif" font-size="14.00">WhiteCard</text>
</g>
<!-- Deck&#45;&gt;WhiteCard -->
<g id="edge2" class="edge"><title>Deck&#45;&gt;WhiteCard</title>
<path fill="none" stroke="#ed4ee2" d="M293.044,-69.0859C302.918,-60.5522 314.505,-50.5388 324.712,-41.7176"/>
<ellipse fill="none" stroke="#ed4ee2" cx="289.81" cy="-71.8805" rx="4.00002" ry="4.00002"/>
<polygon fill="#ed4ee2" stroke="#ed4ee2" points="324.978,-41.4884 335.486,-38.3545 328.761,-38.2191 332.544,-34.9498 332.544,-34.9498 332.544,-34.9498 328.761,-38.2191 329.601,-31.545 324.978,-41.4884 324.978,-41.4884"/>
</g>
<!-- Game -->
<g id="node4" class="node"><title>Game</title>
<ellipse fill="none" stroke="black" cx="282" cy="-234" rx="34.1417" ry="18"/>
<text text-anchor="middle" x="282" y="-228.4" font-family="Times,serif" font-size="14.00">Game</text>
</g>
<!-- Game&#45;&gt;BlackCard -->
<g id="edge5" class="edge"><title>Game&#45;&gt;BlackCard</title>
<path fill="none" stroke="#f27413" d="M270.403,-208.882C258.844,-184.062 241.238,-144.04 230,-108 223.452,-87.0013 218.407,-62.5206 215.166,-44.5553"/>
<ellipse fill="none" stroke="#f27413" cx="272.227" cy="-212.762" rx="4.00002" ry="4.00002"/>
<ellipse fill="#f27413" stroke="#f27413" cx="214.412" cy="-40.2432" rx="4.00001" ry="4.00001"/>
</g>
<!-- Game&#45;&gt;Deck -->
<g id="edge6" class="edge"><title>Game&#45;&gt;Deck</title>
<path fill="none" stroke="#aee0e9" d="M277.025,-207.891C275.473,-199.104 273.927,-189.148 273,-180 270.831,-158.586 270.134,-134.142 269.949,-116.296"/>
<ellipse fill="none" stroke="#aee0e9" cx="277.772" cy="-211.96" rx="4.00001" ry="4.00001"/>
<ellipse fill="#aee0e9" stroke="#aee0e9" cx="269.922" cy="-112.108" rx="4" ry="4"/>
</g>
<!-- Hand -->
<g id="node5" class="node"><title>Hand</title>
<ellipse fill="none" stroke="black" cx="351" cy="-90" rx="31.4312" ry="18"/>
<text text-anchor="middle" x="351" y="-84.4" font-family="Times,serif" font-size="14.00">Hand</text>
</g>
<!-- Game&#45;&gt;Hand -->
<g id="edge7" class="edge"><title>Game&#45;&gt;Hand</title>
<path fill="none" stroke="#ecd81f" d="M285.736,-207.825C289.185,-189.379 295.416,-164.149 306,-144 311.818,-132.925 320.3,-122.13 328.337,-113.205"/>
<ellipse fill="none" stroke="#ecd81f" cx="285.033" cy="-211.841" rx="4.00001" ry="4.00001"/>
<polygon fill="#ecd81f" stroke="#ecd81f" points="328.364,-113.175 338.488,-108.96 331.785,-109.529 335.206,-105.882 335.206,-105.882 335.206,-105.882 331.785,-109.529 331.924,-102.803 328.364,-113.175 328.364,-113.175"/>
</g>
<!-- User -->
<g id="node6" class="node"><title>User</title>
<ellipse fill="none" stroke="black" cx="344" cy="-162" rx="28.9087" ry="18"/>
<text text-anchor="middle" x="344" y="-156.4" font-family="Times,serif" font-size="14.00">User</text>
</g>
<!-- Game&#45;&gt;User -->
<g id="edge8" class="edge"><title>Game&#45;&gt;User</title>
<path fill="none" stroke="#eda5bd" d="M302.417,-209.948C309.131,-202.368 316.598,-193.937 323.331,-186.336"/>
<polygon fill="#eda5bd" stroke="#eda5bd" points="302.39,-209.979 292.391,-214.481 299.075,-213.722 295.76,-217.465 295.76,-217.465 295.76,-217.465 299.075,-213.722 299.128,-220.448 302.39,-209.979 302.39,-209.979"/>
<polygon fill="#eda5bd" stroke="#eda5bd" points="323.648,-185.978 333.647,-181.476 326.963,-182.235 330.279,-178.492 330.279,-178.492 330.279,-178.492 326.963,-182.235 326.91,-175.508 323.648,-185.978 323.648,-185.978"/>
</g>
<!-- Hand&#45;&gt;WhiteCard -->
<g id="edge10" class="edge"><title>Hand&#45;&gt;WhiteCard</title>
<path fill="none" stroke="#7d3e05" d="M351,-63.6398C351,-58.0629 351,-52.1319 351,-46.4761"/>
<ellipse fill="none" stroke="#7d3e05" cx="351" cy="-67.6966" rx="4" ry="4"/>
<polygon fill="#7d3e05" stroke="#7d3e05" points="351,-46.1043 355.5,-36.1043 351,-41.1043 351,-36.1043 351,-36.1043 351,-36.1043 351,-41.1043 346.5,-36.1044 351,-46.1043 351,-46.1043"/>
</g>
<!-- User&#45;&gt;Deck -->
<g id="edge13" class="edge"><title>User&#45;&gt;Deck</title>
<path fill="none" stroke="#baf55b" d="M322.74,-140.889C313.381,-132.036 302.37,-121.62 292.837,-112.602"/>
<ellipse fill="none" stroke="#baf55b" cx="325.761" cy="-143.747" rx="4.00002" ry="4.00002"/>
<polygon fill="#baf55b" stroke="#baf55b" points="292.833,-112.598 288.66,-102.457 289.2,-109.162 285.568,-105.726 285.568,-105.726 285.568,-105.726 289.2,-109.162 282.475,-108.995 292.833,-112.598 292.833,-112.598"/>
</g>
<!-- User&#45;&gt;Hand -->
<g id="edge12" class="edge"><title>User&#45;&gt;Hand</title>
<path fill="none" stroke="#1166f1" d="M346.536,-135.64C347.094,-130.063 347.687,-124.132 348.252,-118.476"/>
<ellipse fill="none" stroke="#1166f1" cx="346.128" cy="-139.716" rx="4" ry="4"/>
<polygon fill="#1166f1" stroke="#1166f1" points="348.294,-118.055 353.767,-108.552 348.792,-113.08 349.29,-108.104 349.29,-108.104 349.29,-108.104 348.792,-113.08 344.812,-107.657 348.294,-118.055 348.294,-118.055"/>
</g>
<!-- ActiveRecord::Base -->
<g id="node8" class="node"><title>ActiveRecord::Base</title>
<ellipse fill="none" stroke="black" cx="313" cy="-331" rx="88.2033" ry="18"/>
<text text-anchor="middle" x="313" y="-325.4" font-family="Times,serif" font-size="14.00">ActiveRecord::Base</text>
</g>
<!-- ActiveRecord::Base&#45;&gt;BlackCard -->
<g id="edge1" class="edge"><title>ActiveRecord::Base&#45;&gt;BlackCard</title>
<path fill="none" stroke="black" d="M286.841,-313.644C267.245,-299.823 241.711,-278.128 229,-252 194.633,-181.357 201.956,-84.2818 207.565,-41.1728"/>
<polyline fill="none" stroke="black" points="208.237,-36.1885 207.569,-41.1436 "/>
</g>
<!-- ActiveRecord::Base&#45;&gt;Deck -->
<g id="edge4" class="edge"><title>ActiveRecord::Base&#45;&gt;Deck</title>
<path fill="none" stroke="black" d="M289.707,-313.481C272.057,-299.422 249.166,-277.487 239,-252 219.98,-204.317 243.145,-143.912 258.496,-112.376"/>
<polyline fill="none" stroke="black" points="260.885,-107.569 258.66,-112.047 "/>
</g>
<!-- ActiveRecord::Base&#45;&gt;Game -->
<g id="edge9" class="edge"><title>ActiveRecord::Base&#45;&gt;Game</title>
<path fill="none" stroke="black" d="M307.458,-313.016C302.344,-297.345 294.723,-273.99 289.152,-256.918"/>
<polyline fill="none" stroke="black" points="287.494,-251.837 289.045,-256.59 "/>
</g>
<!-- ActiveRecord::Base&#45;&gt;Hand -->
<g id="edge11" class="edge"><title>ActiveRecord::Base&#45;&gt;Hand</title>
<path fill="none" stroke="black" d="M323.895,-312.865C340.342,-285.874 370.779,-231.242 382,-180 385.422,-164.37 386.185,-159.443 382,-144 378.809,-132.223 372.273,-120.381 366.022,-110.887"/>
<polyline fill="none" stroke="black" points="363.183,-106.699 365.989,-110.838 "/>
</g>
<!-- ActiveRecord::Base&#45;&gt;User -->
<g id="edge14" class="edge"><title>ActiveRecord::Base&#45;&gt;User</title>
<path fill="none" stroke="black" d="M316.201,-312.757C321.869,-282.223 333.661,-218.698 339.909,-185.037"/>
<polyline fill="none" stroke="black" points="340.863,-179.9 339.95,-184.816 "/>
</g>
<!-- ActiveRecord::Base&#45;&gt;WhiteCard -->
<g id="edge15" class="edge"><title>ActiveRecord::Base&#45;&gt;WhiteCard</title>
<path fill="none" stroke="black" d="M330.675,-313.336C345.373,-298.541 365.794,-275.654 378,-252 393.176,-222.589 392.742,-212.82 397,-180 403.185,-132.325 408.152,-116.91 391,-72 386.393,-59.9386 378.161,-48.2864 370.358,-38.9939"/>
<polyline fill="none" stroke="black" points="367.052,-35.1616 370.318,-38.9474 "/>
</g>
</g>
</svg>
