<?xml version="1.0" encoding="UTF-8" standalone="no"?>
<!DOCTYPE svg PUBLIC "-//W3C//DTD SVG 1.1//EN"
 "http://www.w3.org/Graphics/SVG/1.1/DTD/svg11.dtd">
<!-- Generated by graphviz version 2.34.0 (20131105.2002)
 -->
<!-- Title: models_diagram Pages: 1 -->
<svg width="581pt" height="948pt"
 viewBox="0.00 0.00 581.35 948.00" xmlns="http://www.w3.org/2000/svg" xmlns:xlink="http://www.w3.org/1999/xlink">
<g id="graph0" class="graph" transform="scale(1 1) rotate(0) translate(4 944)">
<title>models_diagram</title>
<polygon fill="white" stroke="white" points="-4,4 -4,-944 577.348,-944 577.348,4 -4,4"/>
<!-- _diagram_info -->
<g id="node1" class="node"><title>_diagram_info</title>
<text text-anchor="start" x="7.78833" y="-923" font-family="Times,serif" font-size="13.00">Models diagram</text>
<text text-anchor="start" x="7.78833" y="-907.4" font-family="Times,serif" font-size="13.00">Date: Nov 06 2013 &#45; 13:32</text>
<text text-anchor="start" x="7.78833" y="-891.8" font-family="Times,serif" font-size="13.00">Migration version: 20131106182811</text>
<text text-anchor="start" x="7.78833" y="-876.2" font-family="Times,serif" font-size="13.00">Generated by RailRoady 1.1.1</text>
<text text-anchor="start" x="7.78833" y="-860.6" font-family="Times,serif" font-size="13.00">http://railroady.prestonlee.com</text>
</g>
<!-- BlackCard -->
<g id="node2" class="node"><title>BlackCard</title>
<path fill="none" stroke="black" d="M125.495,-1.2C125.495,-1.2 234.505,-1.2 234.505,-1.2 240.505,-1.2 246.505,-7.2 246.505,-13.2 246.505,-13.2 246.505,-122.8 246.505,-122.8 246.505,-128.8 240.505,-134.8 234.505,-134.8 234.505,-134.8 125.495,-134.8 125.495,-134.8 119.495,-134.8 113.495,-128.8 113.495,-122.8 113.495,-122.8 113.495,-13.2 113.495,-13.2 113.495,-7.2 119.495,-1.2 125.495,-1.2"/>
<text text-anchor="middle" x="180" y="-116.8" font-family="Times,serif" font-size="14.00">BlackCard</text>
<polyline fill="none" stroke="black" points="113.495,-110 246.505,-110 "/>
<text text-anchor="start" x="121.495" y="-92" font-family="Times,serif" font-size="14.00">id :integer</text>
<text text-anchor="start" x="121.495" y="-75.2" font-family="Times,serif" font-size="14.00">created_at :datetime</text>
<text text-anchor="start" x="121.495" y="-58.4" font-family="Times,serif" font-size="14.00">updated_at :datetime</text>
<text text-anchor="start" x="121.495" y="-41.6" font-family="Times,serif" font-size="14.00">num_blanks :integer</text>
<text text-anchor="start" x="121.495" y="-24.8" font-family="Times,serif" font-size="14.00">content :string</text>
<text text-anchor="start" x="121.495" y="-8" font-family="Times,serif" font-size="14.00">deck_id :integer</text>
</g>
<!-- Deck -->
<g id="node3" class="node"><title>Deck</title>
<path fill="none" stroke="black" d="M209.495,-172.6C209.495,-172.6 318.505,-172.6 318.505,-172.6 324.505,-172.6 330.505,-178.6 330.505,-184.6 330.505,-184.6 330.505,-277.4 330.505,-277.4 330.505,-283.4 324.505,-289.4 318.505,-289.4 318.505,-289.4 209.495,-289.4 209.495,-289.4 203.495,-289.4 197.495,-283.4 197.495,-277.4 197.495,-277.4 197.495,-184.6 197.495,-184.6 197.495,-178.6 203.495,-172.6 209.495,-172.6"/>
<text text-anchor="middle" x="264" y="-271.4" font-family="Times,serif" font-size="14.00">Deck</text>
<polyline fill="none" stroke="black" points="197.495,-264.6 330.505,-264.6 "/>
<text text-anchor="start" x="205.495" y="-246.6" font-family="Times,serif" font-size="14.00">id :integer</text>
<text text-anchor="start" x="205.495" y="-229.8" font-family="Times,serif" font-size="14.00">name :string</text>
<text text-anchor="start" x="205.495" y="-213" font-family="Times,serif" font-size="14.00">created_at :datetime</text>
<text text-anchor="start" x="205.495" y="-196.2" font-family="Times,serif" font-size="14.00">updated_at :datetime</text>
<text text-anchor="start" x="205.495" y="-179.4" font-family="Times,serif" font-size="14.00">game_id :integer</text>
</g>
<!-- Deck&#45;&gt;BlackCard -->
<g id="edge3" class="edge"><title>Deck&#45;&gt;BlackCard</title>
<path fill="none" stroke="#388640" d="M230.175,-165.169C226.533,-158.189 222.806,-151.045 219.109,-143.959"/>
<ellipse fill="none" stroke="#388640" cx="232.061" cy="-168.784" rx="4.00002" ry="4.00002"/>
<polygon fill="#388640" stroke="#388640" points="219.077,-143.897 218.441,-132.95 216.764,-139.464 214.451,-135.031 214.451,-135.031 214.451,-135.031 216.764,-139.464 210.461,-137.113 219.077,-143.897 219.077,-143.897"/>
</g>
<!-- WhiteCard -->
<g id="node7" class="node"><title>WhiteCard</title>
<path fill="none" stroke="black" d="M360.495,-1.2C360.495,-1.2 469.505,-1.2 469.505,-1.2 475.505,-1.2 481.505,-7.2 481.505,-13.2 481.505,-13.2 481.505,-122.8 481.505,-122.8 481.505,-128.8 475.505,-134.8 469.505,-134.8 469.505,-134.8 360.495,-134.8 360.495,-134.8 354.495,-134.8 348.495,-128.8 348.495,-122.8 348.495,-122.8 348.495,-13.2 348.495,-13.2 348.495,-7.2 354.495,-1.2 360.495,-1.2"/>
<text text-anchor="middle" x="415" y="-116.8" font-family="Times,serif" font-size="14.00">WhiteCard</text>
<polyline fill="none" stroke="black" points="348.495,-110 481.505,-110 "/>
<text text-anchor="start" x="356.495" y="-92" font-family="Times,serif" font-size="14.00">id :integer</text>
<text text-anchor="start" x="356.495" y="-75.2" font-family="Times,serif" font-size="14.00">created_at :datetime</text>
<text text-anchor="start" x="356.495" y="-58.4" font-family="Times,serif" font-size="14.00">updated_at :datetime</text>
<text text-anchor="start" x="356.495" y="-41.6" font-family="Times,serif" font-size="14.00">content :string</text>
<text text-anchor="start" x="356.495" y="-24.8" font-family="Times,serif" font-size="14.00">deck_id :integer</text>
<text text-anchor="start" x="356.495" y="-8" font-family="Times,serif" font-size="14.00">hand_id :integer</text>
</g>
<!-- Deck&#45;&gt;WhiteCard -->
<g id="edge2" class="edge"><title>Deck&#45;&gt;WhiteCard</title>
<path fill="none" stroke="#4b920f" d="M323.721,-166.324C331.106,-158.45 338.703,-150.35 346.21,-142.346"/>
<ellipse fill="none" stroke="#4b920f" cx="320.824" cy="-169.412" rx="4.00002" ry="4.00002"/>
<polygon fill="#4b920f" stroke="#4b920f" points="346.229,-142.325 356.353,-138.11 349.65,-138.678 353.07,-135.031 353.07,-135.031 353.07,-135.031 349.65,-138.678 349.788,-131.953 346.229,-142.325 346.229,-142.325"/>
</g>
<!-- Game -->
<g id="node4" class="node"><title>Game</title>
<path fill="none" stroke="black" d="M305.105,-666.8C305.105,-666.8 414.895,-666.8 414.895,-666.8 420.895,-666.8 426.895,-672.8 426.895,-678.8 426.895,-678.8 426.895,-805.2 426.895,-805.2 426.895,-811.2 420.895,-817.2 414.895,-817.2 414.895,-817.2 305.105,-817.2 305.105,-817.2 299.105,-817.2 293.105,-811.2 293.105,-805.2 293.105,-805.2 293.105,-678.8 293.105,-678.8 293.105,-672.8 299.105,-666.8 305.105,-666.8"/>
<text text-anchor="middle" x="360" y="-799.2" font-family="Times,serif" font-size="14.00">Game</text>
<polyline fill="none" stroke="black" points="293.105,-792.4 426.895,-792.4 "/>
<text text-anchor="start" x="301.105" y="-774.4" font-family="Times,serif" font-size="14.00">id :integer</text>
<text text-anchor="start" x="301.105" y="-757.6" font-family="Times,serif" font-size="14.00">players :integer</text>
<text text-anchor="start" x="301.105" y="-740.8" font-family="Times,serif" font-size="14.00">created_at :datetime</text>
<text text-anchor="start" x="301.105" y="-724" font-family="Times,serif" font-size="14.00">updated_at :datetime</text>
<text text-anchor="start" x="301.105" y="-707.2" font-family="Times,serif" font-size="14.00">name :string</text>
<text text-anchor="start" x="301.105" y="-690.4" font-family="Times,serif" font-size="14.00">max_players :integer</text>
<text text-anchor="start" x="301.105" y="-673.6" font-family="Times,serif" font-size="14.00">finished :boolean</text>
</g>
<!-- Game&#45;&gt;Deck -->
<g id="edge5" class="edge"><title>Game&#45;&gt;Deck</title>
<path fill="none" stroke="#fae98b" d="M384.497,-658.521C405.618,-571.491 425.637,-432.462 376,-326 373.4,-320.422 356.7,-305.583 336.955,-289.299"/>
<ellipse fill="none" stroke="#fae98b" cx="383.478" cy="-662.635" rx="4.00001" ry="4.00001"/>
<ellipse fill="#fae98b" stroke="#fae98b" cx="333.835" cy="-286.743" rx="4.00002" ry="4.00002"/>
</g>
<!-- Hand -->
<g id="node5" class="node"><title>Hand</title>
<path fill="none" stroke="black" d="M360.495,-172.6C360.495,-172.6 469.505,-172.6 469.505,-172.6 475.505,-172.6 481.505,-178.6 481.505,-184.6 481.505,-184.6 481.505,-277.4 481.505,-277.4 481.505,-283.4 475.505,-289.4 469.505,-289.4 469.505,-289.4 360.495,-289.4 360.495,-289.4 354.495,-289.4 348.495,-283.4 348.495,-277.4 348.495,-277.4 348.495,-184.6 348.495,-184.6 348.495,-178.6 354.495,-172.6 360.495,-172.6"/>
<text text-anchor="middle" x="415" y="-271.4" font-family="Times,serif" font-size="14.00">Hand</text>
<polyline fill="none" stroke="black" points="348.495,-264.6 481.505,-264.6 "/>
<text text-anchor="start" x="356.495" y="-246.6" font-family="Times,serif" font-size="14.00">id :integer</text>
<text text-anchor="start" x="356.495" y="-229.8" font-family="Times,serif" font-size="14.00">created_at :datetime</text>
<text text-anchor="start" x="356.495" y="-213" font-family="Times,serif" font-size="14.00">updated_at :datetime</text>
<text text-anchor="start" x="356.495" y="-196.2" font-family="Times,serif" font-size="14.00">user_id :integer</text>
<text text-anchor="start" x="356.495" y="-179.4" font-family="Times,serif" font-size="14.00">game_id :integer</text>
</g>
<!-- Game&#45;&gt;Hand -->
<g id="edge7" class="edge"><title>Game&#45;&gt;Hand</title>
<path fill="none" stroke="#4b08be" d="M401.225,-656.923C404.355,-647.994 407.049,-638.916 409,-630 433.878,-516.291 428.616,-379.915 422.106,-299.927"/>
<polygon fill="#4b08be" stroke="#4b08be" points="401.138,-657.159 393.451,-664.98 399.405,-661.849 397.673,-666.539 397.673,-666.539 397.673,-666.539 399.405,-661.849 401.894,-668.099 401.138,-657.159 401.138,-657.159"/>
<polygon fill="#4b08be" stroke="#4b08be" points="422.067,-299.465 425.708,-289.121 421.646,-294.483 421.224,-289.501 421.224,-289.501 421.224,-289.501 421.646,-294.483 416.74,-289.88 422.067,-299.465 422.067,-299.465"/>
</g>
<!-- User -->
<g id="node6" class="node"><title>User</title>
<path fill="none" stroke="black" d="M174.722,-327.2C174.722,-327.2 355.278,-327.2 355.278,-327.2 361.278,-327.2 367.278,-333.2 367.278,-339.2 367.278,-339.2 367.278,-616.8 367.278,-616.8 367.278,-622.8 361.278,-628.8 355.278,-628.8 355.278,-628.8 174.722,-628.8 174.722,-628.8 168.722,-628.8 162.722,-622.8 162.722,-616.8 162.722,-616.8 162.722,-339.2 162.722,-339.2 162.722,-333.2 168.722,-327.2 174.722,-327.2"/>
<text text-anchor="middle" x="265" y="-610.8" font-family="Times,serif" font-size="14.00">User</text>
<polyline fill="none" stroke="black" points="162.722,-604 367.278,-604 "/>
<text text-anchor="start" x="170.722" y="-586" font-family="Times,serif" font-size="14.00">id :integer</text>
<text text-anchor="start" x="170.722" y="-569.2" font-family="Times,serif" font-size="14.00">email :string</text>
<text text-anchor="start" x="170.722" y="-552.4" font-family="Times,serif" font-size="14.00">encrypted_password :string</text>
<text text-anchor="start" x="170.722" y="-535.6" font-family="Times,serif" font-size="14.00">reset_password_token :string</text>
<text text-anchor="start" x="170.722" y="-518.8" font-family="Times,serif" font-size="14.00">reset_password_sent_at :datetime</text>
<text text-anchor="start" x="170.722" y="-502" font-family="Times,serif" font-size="14.00">remember_created_at :datetime</text>
<text text-anchor="start" x="170.722" y="-485.2" font-family="Times,serif" font-size="14.00">sign_in_count :integer</text>
<text text-anchor="start" x="170.722" y="-468.4" font-family="Times,serif" font-size="14.00">current_sign_in_at :datetime</text>
<text text-anchor="start" x="170.722" y="-451.6" font-family="Times,serif" font-size="14.00">last_sign_in_at :datetime</text>
<text text-anchor="start" x="170.722" y="-434.8" font-family="Times,serif" font-size="14.00">current_sign_in_ip :string</text>
<text text-anchor="start" x="170.722" y="-418" font-family="Times,serif" font-size="14.00">last_sign_in_ip :string</text>
<text text-anchor="start" x="170.722" y="-401.2" font-family="Times,serif" font-size="14.00">created_at :datetime</text>
<text text-anchor="start" x="170.722" y="-384.4" font-family="Times,serif" font-size="14.00">updated_at :datetime</text>
<text text-anchor="start" x="170.722" y="-367.6" font-family="Times,serif" font-size="14.00">game_id :integer</text>
<text text-anchor="start" x="170.722" y="-350.8" font-family="Times,serif" font-size="14.00">wins :integer</text>
<text text-anchor="start" x="170.722" y="-334" font-family="Times,serif" font-size="14.00">points :integer</text>
</g>
<!-- Game&#45;&gt;User -->
<g id="edge6" class="edge"><title>Game&#45;&gt;User</title>
<path fill="none" stroke="#a75319" d="M323.94,-658.96C321.405,-652.311 318.825,-645.465 316.231,-638.507"/>
<ellipse fill="none" stroke="#a75319" cx="325.445" cy="-662.887" rx="4.00001" ry="4.00001"/>
<polygon fill="#a75319" stroke="#a75319" points="316.166,-638.332 316.906,-627.391 314.426,-633.644 312.687,-628.956 312.687,-628.956 312.687,-628.956 314.426,-633.644 308.468,-630.522 316.166,-638.332 316.166,-638.332"/>
</g>
<!-- Hand&#45;&gt;WhiteCard -->
<g id="edge9" class="edge"><title>Hand&#45;&gt;WhiteCard</title>
<path fill="none" stroke="#8af075" d="M415,-164.301C415,-157.964 415,-151.5 415,-145.074"/>
<ellipse fill="none" stroke="#8af075" cx="415" cy="-168.33" rx="4" ry="4"/>
<polygon fill="#8af075" stroke="#8af075" points="415,-145.031 419.5,-135.031 415,-140.031 415,-135.031 415,-135.031 415,-135.031 415,-140.031 410.5,-135.031 415,-145.031 415,-145.031"/>
</g>
<!-- User&#45;&gt;Deck -->
<g id="edge13" class="edge"><title>User&#45;&gt;Deck</title>
<path fill="none" stroke="#95b9bc" d="M264.354,-318.779C264.327,-312.211 264.301,-305.793 264.276,-299.61"/>
<ellipse fill="none" stroke="#95b9bc" cx="264.372" cy="-323.074" rx="4" ry="4"/>
<polygon fill="#95b9bc" stroke="#95b9bc" points="264.275,-299.442 268.734,-289.424 264.255,-294.442 264.234,-289.442 264.234,-289.442 264.234,-289.442 264.255,-294.442 259.734,-289.461 264.275,-299.442 264.275,-299.442"/>
</g>
<!-- User&#45;&gt;Game -->
<g id="edge12" class="edge"><title>User&#45;&gt;Game</title>
<path fill="none" stroke="#0d4d5a" d="M329.522,-638.732C331.699,-644.912 333.822,-651.002 335.87,-656.943"/>
<polygon fill="#0d4d5a" stroke="#0d4d5a" points="329.398,-638.383 330.302,-627.454 327.729,-633.669 326.06,-628.956 326.06,-628.956 326.06,-628.956 327.729,-633.669 321.818,-630.458 329.398,-638.383 329.398,-638.383"/>
<polygon fill="#0d4d5a" stroke="#0d4d5a" points="335.945,-657.162 334.929,-668.08 337.566,-661.892 339.186,-666.622 339.186,-666.622 339.186,-666.622 337.566,-661.892 343.443,-665.164 335.945,-657.162 335.945,-657.162"/>
</g>
<!-- User&#45;&gt;Hand -->
<g id="edge11" class="edge"><title>User&#45;&gt;Hand</title>
<path fill="none" stroke="#20f6d5" d="M361.123,-319.999C365.724,-312.484 370.21,-305.157 374.503,-298.146"/>
<ellipse fill="none" stroke="#20f6d5" cx="358.88" cy="-323.663" rx="4.00002" ry="4.00002"/>
<polygon fill="#20f6d5" stroke="#20f6d5" points="374.61,-297.971 383.669,-291.792 377.221,-293.706 379.831,-289.442 379.831,-289.442 379.831,-289.442 377.221,-293.706 375.993,-287.093 374.61,-297.971 374.61,-297.971"/>
</g>
<!-- ActiveRecord::Base -->
<g id="node8" class="node"><title>ActiveRecord::Base</title>
<ellipse fill="none" stroke="black" cx="313" cy="-897" rx="88.2033" ry="18"/>
<text text-anchor="middle" x="313" y="-891.4" font-family="Times,serif" font-size="14.00">ActiveRecord::Base</text>
</g>
<!-- ActiveRecord::Base&#45;&gt;BlackCard -->
<g id="edge1" class="edge"><title>ActiveRecord::Base&#45;&gt;BlackCard</title>
<path fill="none" stroke="black" d="M275.568,-880.601C236.522,-863.834 178.945,-836.892 164,-818 110.499,-750.367 126.751,-715.563 116,-630 99.1565,-495.943 99.5531,-460.106 116,-326 123.849,-262.002 142.302,-191.005 157.387,-139.878"/>
<polyline fill="none" stroke="black" points="158.836,-134.993 157.414,-139.787 "/>
</g>
<!-- ActiveRecord::Base&#45;&gt;Deck -->
<g id="edge4" class="edge"><title>ActiveRecord::Base&#45;&gt;Deck</title>
<path fill="none" stroke="black" d="M298.249,-879.208C264.406,-839.397 181.945,-734.747 154,-630 119.172,-499.455 97.4509,-448.708 154,-326 162.772,-306.966 177.509,-290.355 193.392,-276.609"/>
<polyline fill="none" stroke="black" points="197.452,-273.176 193.634,-276.404 "/>
</g>
<!-- ActiveRecord::Base&#45;&gt;Game -->
<g id="edge8" class="edge"><title>ActiveRecord::Base&#45;&gt;Game</title>
<path fill="none" stroke="black" d="M318.3,-878.746C322.63,-864.651 329.084,-843.642 335.628,-822.338"/>
<polyline fill="none" stroke="black" points="337.114,-817.502 335.645,-822.282 "/>
</g>
<!-- ActiveRecord::Base&#45;&gt;Hand -->
<g id="edge10" class="edge"><title>ActiveRecord::Base&#45;&gt;Hand</title>
<path fill="none" stroke="black" d="M355.639,-881.221C383.692,-869.011 418.217,-848.65 435,-818 527.976,-648.202 471.778,-407.296 436.73,-294.631"/>
<polyline fill="none" stroke="black" points="435.181,-289.692 436.677,-294.463 "/>
</g>
<!-- ActiveRecord::Base&#45;&gt;User -->
<g id="edge14" class="edge"><title>ActiveRecord::Base&#45;&gt;User</title>
<path fill="none" stroke="black" d="M304.89,-878.788C297.996,-863.272 288.521,-839.637 284,-818 271.625,-758.769 266.119,-692.533 263.963,-634.432"/>
<polyline fill="none" stroke="black" points="263.777,-629.194 263.955,-634.191 "/>
</g>
<!-- ActiveRecord::Base&#45;&gt;WhiteCard -->
<g id="edge15" class="edge"><title>ActiveRecord::Base&#45;&gt;WhiteCard</title>
<path fill="none" stroke="black" d="M370.75,-883.225C405.982,-872.199 448.451,-852.416 471,-818 628.419,-577.743 578.905,-445.13 490,-172 486.346,-160.773 480.955,-149.75 474.71,-139.334"/>
<polyline fill="none" stroke="black" points="471.985,-134.909 474.607,-139.166 "/>
</g>
</g>
</svg>
