<?xml version="1.0" encoding="UTF-8" standalone="no"?>
<!DOCTYPE svg PUBLIC "-//W3C//DTD SVG 1.1//EN"
 "http://www.w3.org/Graphics/SVG/1.1/DTD/svg11.dtd">
<!-- Generated by graphviz version 2.34.0 (20131105.2002)
 -->
<!-- Title: models_diagram Pages: 1 -->
<svg width="594pt" height="998pt"
 viewBox="0.00 0.00 594.14 998.00" xmlns="http://www.w3.org/2000/svg" xmlns:xlink="http://www.w3.org/1999/xlink">
<g id="graph0" class="graph" transform="scale(1 1) rotate(0) translate(4 994)">
<title>models_diagram</title>
<polygon fill="white" stroke="white" points="-4,4 -4,-994 590.138,-994 590.138,4 -4,4"/>
<!-- _diagram_info -->
<g id="node1" class="node"><title>_diagram_info</title>
<text text-anchor="start" x="7.55029" y="-973" font-family="Times,serif" font-size="13.00">Models diagram</text>
<text text-anchor="start" x="7.55029" y="-957.4" font-family="Times,serif" font-size="13.00">Date: Nov 05 2013 &#45; 15:30</text>
<text text-anchor="start" x="7.55029" y="-941.8" font-family="Times,serif" font-size="13.00">Migration version: 20131105202051</text>
<text text-anchor="start" x="7.55029" y="-926.2" font-family="Times,serif" font-size="13.00">Generated by RailRoady 1.1.1</text>
<text text-anchor="start" x="7.55029" y="-910.6" font-family="Times,serif" font-size="13.00">http://railroady.prestonlee.com</text>
</g>
<!-- BlackCard -->
<g id="node2" class="node"><title>BlackCard</title>
<path fill="none" stroke="black" d="M118.495,-1.2C118.495,-1.2 227.505,-1.2 227.505,-1.2 233.505,-1.2 239.505,-7.2 239.505,-13.2 239.505,-13.2 239.505,-122.8 239.505,-122.8 239.505,-128.8 233.505,-134.8 227.505,-134.8 227.505,-134.8 118.495,-134.8 118.495,-134.8 112.495,-134.8 106.495,-128.8 106.495,-122.8 106.495,-122.8 106.495,-13.2 106.495,-13.2 106.495,-7.2 112.495,-1.2 118.495,-1.2"/>
<text text-anchor="middle" x="173" y="-116.8" font-family="Times,serif" font-size="14.00">BlackCard</text>
<polyline fill="none" stroke="black" points="106.495,-110 239.505,-110 "/>
<text text-anchor="start" x="114.495" y="-92" font-family="Times,serif" font-size="14.00">id :integer</text>
<text text-anchor="start" x="114.495" y="-75.2" font-family="Times,serif" font-size="14.00">created_at :datetime</text>
<text text-anchor="start" x="114.495" y="-58.4" font-family="Times,serif" font-size="14.00">updated_at :datetime</text>
<text text-anchor="start" x="114.495" y="-41.6" font-family="Times,serif" font-size="14.00">num_blanks :integer</text>
<text text-anchor="start" x="114.495" y="-24.8" font-family="Times,serif" font-size="14.00">content :string</text>
<text text-anchor="start" x="114.495" y="-8" font-family="Times,serif" font-size="14.00">deck_id :integer</text>
</g>
<!-- Deck -->
<g id="node3" class="node"><title>Deck</title>
<path fill="none" stroke="black" d="M188.105,-172.4C188.105,-172.4 325.895,-172.4 325.895,-172.4 331.895,-172.4 337.895,-178.4 337.895,-184.4 337.895,-184.4 337.895,-327.6 337.895,-327.6 337.895,-333.6 331.895,-339.6 325.895,-339.6 325.895,-339.6 188.105,-339.6 188.105,-339.6 182.105,-339.6 176.105,-333.6 176.105,-327.6 176.105,-327.6 176.105,-184.4 176.105,-184.4 176.105,-178.4 182.105,-172.4 188.105,-172.4"/>
<text text-anchor="middle" x="257" y="-321.6" font-family="Times,serif" font-size="14.00">Deck</text>
<polyline fill="none" stroke="black" points="176.105,-314.8 337.895,-314.8 "/>
<text text-anchor="start" x="184.105" y="-296.8" font-family="Times,serif" font-size="14.00">id :integer</text>
<text text-anchor="start" x="184.105" y="-280" font-family="Times,serif" font-size="14.00">name :string</text>
<text text-anchor="start" x="184.105" y="-263.2" font-family="Times,serif" font-size="14.00">created_at :datetime</text>
<text text-anchor="start" x="184.105" y="-246.4" font-family="Times,serif" font-size="14.00">updated_at :datetime</text>
<text text-anchor="start" x="184.105" y="-229.6" font-family="Times,serif" font-size="14.00">user_id :integer</text>
<text text-anchor="start" x="184.105" y="-212.8" font-family="Times,serif" font-size="14.00">num_white_cards :integer</text>
<text text-anchor="start" x="184.105" y="-196" font-family="Times,serif" font-size="14.00">num_black_cards :integer</text>
<text text-anchor="start" x="184.105" y="-179.2" font-family="Times,serif" font-size="14.00">game_id :integer</text>
</g>
<!-- Deck&#45;&gt;BlackCard -->
<g id="edge3" class="edge"><title>Deck&#45;&gt;BlackCard</title>
<path fill="none" stroke="#870d49" d="M216.345,-164.979C213.202,-158.02 210.049,-151.038 206.957,-144.19"/>
<ellipse fill="none" stroke="#870d49" cx="218.021" cy="-168.689" rx="4.00002" ry="4.00002"/>
<polygon fill="#870d49" stroke="#870d49" points="206.9,-144.064 206.885,-133.098 204.842,-139.507 202.784,-134.95 202.784,-134.95 202.784,-134.95 204.842,-139.507 198.683,-136.802 206.9,-144.064 206.9,-144.064"/>
</g>
<!-- WhiteCard -->
<g id="node7" class="node"><title>WhiteCard</title>
<path fill="none" stroke="black" d="M367.495,-1.2C367.495,-1.2 476.505,-1.2 476.505,-1.2 482.505,-1.2 488.505,-7.2 488.505,-13.2 488.505,-13.2 488.505,-122.8 488.505,-122.8 488.505,-128.8 482.505,-134.8 476.505,-134.8 476.505,-134.8 367.495,-134.8 367.495,-134.8 361.495,-134.8 355.495,-128.8 355.495,-122.8 355.495,-122.8 355.495,-13.2 355.495,-13.2 355.495,-7.2 361.495,-1.2 367.495,-1.2"/>
<text text-anchor="middle" x="422" y="-116.8" font-family="Times,serif" font-size="14.00">WhiteCard</text>
<polyline fill="none" stroke="black" points="355.495,-110 488.505,-110 "/>
<text text-anchor="start" x="363.495" y="-92" font-family="Times,serif" font-size="14.00">id :integer</text>
<text text-anchor="start" x="363.495" y="-75.2" font-family="Times,serif" font-size="14.00">created_at :datetime</text>
<text text-anchor="start" x="363.495" y="-58.4" font-family="Times,serif" font-size="14.00">updated_at :datetime</text>
<text text-anchor="start" x="363.495" y="-41.6" font-family="Times,serif" font-size="14.00">content :string</text>
<text text-anchor="start" x="363.495" y="-24.8" font-family="Times,serif" font-size="14.00">deck_id :integer</text>
<text text-anchor="start" x="363.495" y="-8" font-family="Times,serif" font-size="14.00">hand_id :integer</text>
</g>
<!-- Deck&#45;&gt;WhiteCard -->
<g id="edge2" class="edge"><title>Deck&#45;&gt;WhiteCard</title>
<path fill="none" stroke="#3e7fae" d="M335.812,-166.158C342.805,-158.275 349.834,-150.351 356.696,-142.615"/>
<ellipse fill="none" stroke="#3e7fae" cx="332.987" cy="-169.342" rx="4.00002" ry="4.00002"/>
<polygon fill="#3e7fae" stroke="#3e7fae" points="356.86,-142.431 366.862,-137.936 360.178,-138.69 363.496,-134.95 363.496,-134.95 363.496,-134.95 360.178,-138.69 360.13,-131.964 356.86,-142.431 356.86,-142.431"/>
</g>
<!-- Game -->
<g id="node4" class="node"><title>Game</title>
<path fill="none" stroke="black" d="M305.105,-716.8C305.105,-716.8 414.895,-716.8 414.895,-716.8 420.895,-716.8 426.895,-722.8 426.895,-728.8 426.895,-728.8 426.895,-855.2 426.895,-855.2 426.895,-861.2 420.895,-867.2 414.895,-867.2 414.895,-867.2 305.105,-867.2 305.105,-867.2 299.105,-867.2 293.105,-861.2 293.105,-855.2 293.105,-855.2 293.105,-728.8 293.105,-728.8 293.105,-722.8 299.105,-716.8 305.105,-716.8"/>
<text text-anchor="middle" x="360" y="-849.2" font-family="Times,serif" font-size="14.00">Game</text>
<polyline fill="none" stroke="black" points="293.105,-842.4 426.895,-842.4 "/>
<text text-anchor="start" x="301.105" y="-824.4" font-family="Times,serif" font-size="14.00">id :integer</text>
<text text-anchor="start" x="301.105" y="-807.6" font-family="Times,serif" font-size="14.00">players :integer</text>
<text text-anchor="start" x="301.105" y="-790.8" font-family="Times,serif" font-size="14.00">created_at :datetime</text>
<text text-anchor="start" x="301.105" y="-774" font-family="Times,serif" font-size="14.00">updated_at :datetime</text>
<text text-anchor="start" x="301.105" y="-757.2" font-family="Times,serif" font-size="14.00">name :string</text>
<text text-anchor="start" x="301.105" y="-740.4" font-family="Times,serif" font-size="14.00">max_players :integer</text>
<text text-anchor="start" x="301.105" y="-723.6" font-family="Times,serif" font-size="14.00">finished :boolean</text>
</g>
<!-- Game&#45;&gt;Deck -->
<g id="edge5" class="edge"><title>Game&#45;&gt;Deck</title>
<path fill="none" stroke="#57b2b4" d="M382.813,-708.566C402.322,-622.166 420.818,-484.2 376,-376 373.702,-370.452 360.609,-356.197 343.891,-339.397"/>
<ellipse fill="none" stroke="#57b2b4" cx="381.882" cy="-712.607" rx="4.00001" ry="4.00001"/>
<ellipse fill="#57b2b4" stroke="#57b2b4" cx="340.924" cy="-336.437" rx="4.00002" ry="4.00002"/>
</g>
<!-- Hand -->
<g id="node5" class="node"><title>Hand</title>
<path fill="none" stroke="black" d="M367.495,-197.6C367.495,-197.6 476.505,-197.6 476.505,-197.6 482.505,-197.6 488.505,-203.6 488.505,-209.6 488.505,-209.6 488.505,-302.4 488.505,-302.4 488.505,-308.4 482.505,-314.4 476.505,-314.4 476.505,-314.4 367.495,-314.4 367.495,-314.4 361.495,-314.4 355.495,-308.4 355.495,-302.4 355.495,-302.4 355.495,-209.6 355.495,-209.6 355.495,-203.6 361.495,-197.6 367.495,-197.6"/>
<text text-anchor="middle" x="422" y="-296.4" font-family="Times,serif" font-size="14.00">Hand</text>
<polyline fill="none" stroke="black" points="355.495,-289.6 488.505,-289.6 "/>
<text text-anchor="start" x="363.495" y="-271.6" font-family="Times,serif" font-size="14.00">id :integer</text>
<text text-anchor="start" x="363.495" y="-254.8" font-family="Times,serif" font-size="14.00">created_at :datetime</text>
<text text-anchor="start" x="363.495" y="-238" font-family="Times,serif" font-size="14.00">updated_at :datetime</text>
<text text-anchor="start" x="363.495" y="-221.2" font-family="Times,serif" font-size="14.00">user_id :integer</text>
<text text-anchor="start" x="363.495" y="-204.4" font-family="Times,serif" font-size="14.00">game_id :integer</text>
</g>
<!-- Game&#45;&gt;Hand -->
<g id="edge7" class="edge"><title>Game&#45;&gt;Hand</title>
<path fill="none" stroke="#8029b6" d="M401.081,-706.891C404.239,-697.968 406.98,-688.901 409,-680 436.87,-557.227 433.255,-409.294 427.817,-324.889"/>
<polygon fill="#8029b6" stroke="#8029b6" points="400.992,-707.13 393.287,-714.932 399.248,-711.816 397.504,-716.502 397.504,-716.502 397.504,-716.502 399.248,-711.816 401.721,-718.071 400.992,-707.13 400.992,-707.13"/>
<polygon fill="#8029b6" stroke="#8029b6" points="427.801,-324.643 431.619,-314.363 427.465,-319.654 427.129,-314.665 427.129,-314.665 427.129,-314.665 427.465,-319.654 422.639,-314.967 427.801,-324.643 427.801,-324.643"/>
</g>
<!-- User -->
<g id="node6" class="node"><title>User</title>
<path fill="none" stroke="black" d="M174.722,-377.2C174.722,-377.2 355.278,-377.2 355.278,-377.2 361.278,-377.2 367.278,-383.2 367.278,-389.2 367.278,-389.2 367.278,-666.8 367.278,-666.8 367.278,-672.8 361.278,-678.8 355.278,-678.8 355.278,-678.8 174.722,-678.8 174.722,-678.8 168.722,-678.8 162.722,-672.8 162.722,-666.8 162.722,-666.8 162.722,-389.2 162.722,-389.2 162.722,-383.2 168.722,-377.2 174.722,-377.2"/>
<text text-anchor="middle" x="265" y="-660.8" font-family="Times,serif" font-size="14.00">User</text>
<polyline fill="none" stroke="black" points="162.722,-654 367.278,-654 "/>
<text text-anchor="start" x="170.722" y="-636" font-family="Times,serif" font-size="14.00">id :integer</text>
<text text-anchor="start" x="170.722" y="-619.2" font-family="Times,serif" font-size="14.00">email :string</text>
<text text-anchor="start" x="170.722" y="-602.4" font-family="Times,serif" font-size="14.00">encrypted_password :string</text>
<text text-anchor="start" x="170.722" y="-585.6" font-family="Times,serif" font-size="14.00">reset_password_token :string</text>
<text text-anchor="start" x="170.722" y="-568.8" font-family="Times,serif" font-size="14.00">reset_password_sent_at :datetime</text>
<text text-anchor="start" x="170.722" y="-552" font-family="Times,serif" font-size="14.00">remember_created_at :datetime</text>
<text text-anchor="start" x="170.722" y="-535.2" font-family="Times,serif" font-size="14.00">sign_in_count :integer</text>
<text text-anchor="start" x="170.722" y="-518.4" font-family="Times,serif" font-size="14.00">current_sign_in_at :datetime</text>
<text text-anchor="start" x="170.722" y="-501.6" font-family="Times,serif" font-size="14.00">last_sign_in_at :datetime</text>
<text text-anchor="start" x="170.722" y="-484.8" font-family="Times,serif" font-size="14.00">current_sign_in_ip :string</text>
<text text-anchor="start" x="170.722" y="-468" font-family="Times,serif" font-size="14.00">last_sign_in_ip :string</text>
<text text-anchor="start" x="170.722" y="-451.2" font-family="Times,serif" font-size="14.00">created_at :datetime</text>
<text text-anchor="start" x="170.722" y="-434.4" font-family="Times,serif" font-size="14.00">updated_at :datetime</text>
<text text-anchor="start" x="170.722" y="-417.6" font-family="Times,serif" font-size="14.00">game_id :integer</text>
<text text-anchor="start" x="170.722" y="-400.8" font-family="Times,serif" font-size="14.00">wins :integer</text>
<text text-anchor="start" x="170.722" y="-384" font-family="Times,serif" font-size="14.00">points :integer</text>
</g>
<!-- Game&#45;&gt;User -->
<g id="edge6" class="edge"><title>Game&#45;&gt;User</title>
<path fill="none" stroke="#787d48" d="M323.94,-708.96C321.405,-702.311 318.825,-695.465 316.231,-688.507"/>
<ellipse fill="none" stroke="#787d48" cx="325.445" cy="-712.887" rx="4.00001" ry="4.00001"/>
<polygon fill="#787d48" stroke="#787d48" points="316.166,-688.332 316.906,-677.391 314.426,-683.644 312.687,-678.956 312.687,-678.956 312.687,-678.956 314.426,-683.644 308.468,-680.522 316.166,-688.332 316.166,-688.332"/>
</g>
<!-- Hand&#45;&gt;WhiteCard -->
<g id="edge9" class="edge"><title>Hand&#45;&gt;WhiteCard</title>
<path fill="none" stroke="#cee799" d="M422,-188.959C422,-174.883 422,-159.905 422,-145.475"/>
<ellipse fill="none" stroke="#cee799" cx="422" cy="-193.422" rx="4" ry="4"/>
<polygon fill="#cee799" stroke="#cee799" points="422,-145.086 426.5,-135.085 422,-140.086 422,-135.086 422,-135.086 422,-135.086 422,-140.086 417.5,-135.086 422,-145.086 422,-145.086"/>
</g>
<!-- User&#45;&gt;Deck -->
<g id="edge13" class="edge"><title>User&#45;&gt;Deck</title>
<path fill="none" stroke="#61efc1" d="M260.317,-368.962C260.128,-362.568 259.941,-356.246 259.757,-350.054"/>
<ellipse fill="none" stroke="#61efc1" cx="260.437" cy="-373" rx="4" ry="4"/>
<polygon fill="#61efc1" stroke="#61efc1" points="259.749,-349.763 263.95,-339.634 259.601,-344.765 259.452,-339.768 259.452,-339.768 259.452,-339.768 259.601,-344.765 254.954,-339.901 259.749,-349.763 259.749,-349.763"/>
</g>
<!-- User&#45;&gt;Game -->
<g id="edge12" class="edge"><title>User&#45;&gt;Game</title>
<path fill="none" stroke="#a6af6c" d="M329.522,-688.732C331.699,-694.912 333.822,-701.002 335.87,-706.943"/>
<polygon fill="#a6af6c" stroke="#a6af6c" points="329.398,-688.383 330.302,-677.454 327.729,-683.669 326.06,-678.956 326.06,-678.956 326.06,-678.956 327.729,-683.669 321.818,-680.458 329.398,-688.383 329.398,-688.383"/>
<polygon fill="#a6af6c" stroke="#a6af6c" points="335.945,-707.162 334.929,-718.08 337.566,-711.892 339.186,-716.622 339.186,-716.622 339.186,-716.622 337.566,-711.892 343.443,-715.164 335.945,-707.162 335.945,-707.162"/>
</g>
<!-- User&#45;&gt;Hand -->
<g id="edge11" class="edge"><title>User&#45;&gt;Hand</title>
<path fill="none" stroke="#3aa2b5" d="M356.298,-369.991C365.804,-353.643 375.053,-337.737 383.467,-323.267"/>
<ellipse fill="none" stroke="#3aa2b5" cx="354.234" cy="-373.54" rx="4.00002" ry="4.00002"/>
<polygon fill="#3aa2b5" stroke="#3aa2b5" points="383.566,-323.097 392.483,-316.714 386.079,-318.775 388.593,-314.452 388.593,-314.452 388.593,-314.452 386.079,-318.775 384.702,-312.19 383.566,-323.097 383.566,-323.097"/>
</g>
<!-- ActiveRecord::Base -->
<g id="node8" class="node"><title>ActiveRecord::Base</title>
<ellipse fill="none" stroke="black" cx="313" cy="-947" rx="88.2033" ry="18"/>
<text text-anchor="middle" x="313" y="-941.4" font-family="Times,serif" font-size="14.00">ActiveRecord::Base</text>
</g>
<!-- ActiveRecord::Base&#45;&gt;BlackCard -->
<g id="edge1" class="edge"><title>ActiveRecord::Base&#45;&gt;BlackCard</title>
<path fill="none" stroke="black" d="M275.496,-930.657C236.387,-913.94 178.754,-887.041 164,-868 111.439,-800.167 129.843,-765.247 120,-680 104.503,-545.781 108.465,-510.618 120,-376 126.984,-294.493 144.216,-202.135 157.148,-140.199"/>
<polyline fill="none" stroke="black" points="158.228,-135.049 157.202,-139.943 "/>
</g>
<!-- ActiveRecord::Base&#45;&gt;Deck -->
<g id="edge4" class="edge"><title>ActiveRecord::Base&#45;&gt;Deck</title>
<path fill="none" stroke="black" d="M298.249,-929.208C264.406,-889.397 181.945,-784.747 154,-680 119.172,-549.455 106.818,-502.605 154,-376 158.674,-363.458 165.33,-351.359 173.039,-339.992"/>
<polyline fill="none" stroke="black" points="175.925,-335.838 173.073,-339.945 "/>
</g>
<!-- ActiveRecord::Base&#45;&gt;Game -->
<g id="edge8" class="edge"><title>ActiveRecord::Base&#45;&gt;Game</title>
<path fill="none" stroke="black" d="M318.3,-928.746C322.63,-914.651 329.084,-893.642 335.628,-872.338"/>
<polyline fill="none" stroke="black" points="337.114,-867.502 335.645,-872.282 "/>
</g>
<!-- ActiveRecord::Base&#45;&gt;Hand -->
<g id="edge10" class="edge"><title>ActiveRecord::Base&#45;&gt;Hand</title>
<path fill="none" stroke="black" d="M355.639,-931.221C383.692,-919.011 418.217,-898.65 435,-868 532.661,-689.645 476.811,-435.897 442.563,-319.601"/>
<polyline fill="none" stroke="black" points="441.051,-314.506 442.474,-319.299 "/>
</g>
<!-- ActiveRecord::Base&#45;&gt;User -->
<g id="edge14" class="edge"><title>ActiveRecord::Base&#45;&gt;User</title>
<path fill="none" stroke="black" d="M304.89,-928.788C297.996,-913.272 288.521,-889.637 284,-868 271.625,-808.769 266.119,-742.533 263.963,-684.432"/>
<polyline fill="none" stroke="black" points="263.777,-679.194 263.955,-684.191 "/>
</g>
<!-- ActiveRecord::Base&#45;&gt;WhiteCard -->
<g id="edge15" class="edge"><title>ActiveRecord::Base&#45;&gt;WhiteCard</title>
<path fill="none" stroke="black" d="M370.342,-933.201C405.72,-922.138 448.66,-902.324 472,-868 646.052,-612.038 592.806,-466.333 497,-172 493.346,-160.773 487.955,-149.75 481.71,-139.334"/>
<polyline fill="none" stroke="black" points="478.985,-134.909 481.607,-139.166 "/>
</g>
</g>
</svg>
