<?xml version="1.0" encoding="UTF-8" standalone="no"?>
<!DOCTYPE svg PUBLIC "-//W3C//DTD SVG 1.1//EN"
 "http://www.w3.org/Graphics/SVG/1.1/DTD/svg11.dtd">
<!-- Generated by graphviz version 2.34.0 (20131105.2002)
 -->
<!-- Title: models_diagram Pages: 1 -->
<svg width="421pt" height="310pt"
 viewBox="0.00 0.00 421.00 310.00" xmlns="http://www.w3.org/2000/svg" xmlns:xlink="http://www.w3.org/1999/xlink">
<g id="graph0" class="graph" transform="scale(1 1) rotate(0) translate(4 306)">
<title>models_diagram</title>
<polygon fill="white" stroke="white" points="-4,4 -4,-306 417,-306 417,4 -4,4"/>
<!-- _diagram_info -->
<g id="node1" class="node"><title>_diagram_info</title>
<text text-anchor="start" x="7.55029" y="-285" font-family="Times,serif" font-size="13.00">Models diagram</text>
<text text-anchor="start" x="7.55029" y="-269.4" font-family="Times,serif" font-size="13.00">Date: Nov 05 2013 &#45; 15:05</text>
<text text-anchor="start" x="7.55029" y="-253.8" font-family="Times,serif" font-size="13.00">Migration version: 20131105192756</text>
<text text-anchor="start" x="7.55029" y="-238.2" font-family="Times,serif" font-size="13.00">Generated by RailRoady 1.1.1</text>
<text text-anchor="start" x="7.55029" y="-222.6" font-family="Times,serif" font-size="13.00">http://railroady.prestonlee.com</text>
</g>
<!-- Deck -->
<g id="node2" class="node"><title>Deck</title>
<ellipse fill="none" stroke="black" cx="287" cy="-18" rx="31.1178" ry="18"/>
<text text-anchor="middle" x="287" y="-12.4" font-family="Times,serif" font-size="14.00">Deck</text>
</g>
<!-- Game -->
<g id="node3" class="node"><title>Game</title>
<ellipse fill="none" stroke="black" cx="344" cy="-162" rx="34.1417" ry="18"/>
<text text-anchor="middle" x="344" y="-156.4" font-family="Times,serif" font-size="14.00">Game</text>
</g>
<!-- Game&#45;&gt;Deck -->
<g id="edge2" class="edge"><title>Game&#45;&gt;Deck</title>
<path fill="none" stroke="#bbb065" d="M341.391,-135.567C338.851,-117.283 334.002,-92.3668 325,-72 320.185,-61.1072 312.912,-50.2179 306.013,-41.1682"/>
<ellipse fill="none" stroke="#bbb065" cx="341.955" cy="-139.993" rx="4.00001" ry="4.00001"/>
<ellipse fill="#bbb065" stroke="#bbb065" cx="303.336" cy="-37.7766" rx="4.00002" ry="4.00002"/>
</g>
<!-- Hand -->
<g id="node4" class="node"><title>Hand</title>
<ellipse fill="none" stroke="black" cx="382" cy="-18" rx="31.4312" ry="18"/>
<text text-anchor="middle" x="382" y="-12.4" font-family="Times,serif" font-size="14.00">Hand</text>
</g>
<!-- Game&#45;&gt;Hand -->
<g id="edge4" class="edge"><title>Game&#45;&gt;Hand</title>
<path fill="none" stroke="#c25039" d="M351.143,-134.309C357.943,-108.897 368.119,-70.8704 374.904,-45.5167"/>
<polygon fill="#c25039" stroke="#c25039" points="351.093,-134.493 344.161,-142.99 349.801,-139.323 348.508,-144.153 348.508,-144.153 348.508,-144.153 349.801,-139.323 352.855,-145.316 351.093,-134.493 351.093,-134.493"/>
<polygon fill="#c25039" stroke="#c25039" points="374.912,-45.4851 381.845,-36.9883 376.205,-40.655 377.498,-35.825 377.498,-35.825 377.498,-35.825 376.205,-40.655 373.151,-34.6616 374.912,-45.4851 374.912,-45.4851"/>
</g>
<!-- User -->
<g id="node5" class="node"><title>User</title>
<ellipse fill="none" stroke="black" cx="287" cy="-90" rx="28.9087" ry="18"/>
<text text-anchor="middle" x="287" y="-84.4" font-family="Times,serif" font-size="14.00">User</text>
</g>
<!-- Game&#45;&gt;User -->
<g id="edge3" class="edge"><title>Game&#45;&gt;User</title>
<path fill="none" stroke="#c5cb79" d="M321.168,-140.576C314.174,-132.753 306.749,-123.748 300.536,-115.577"/>
<ellipse fill="none" stroke="#c5cb79" cx="323.894" cy="-143.548" rx="4.00002" ry="4.00002"/>
<polygon fill="#c5cb79" stroke="#c5cb79" points="300.486,-115.509 298.196,-104.785 297.528,-111.478 294.569,-107.448 294.569,-107.448 294.569,-107.448 297.528,-111.478 290.941,-110.111 300.486,-115.509 300.486,-115.509"/>
</g>
<!-- User&#45;&gt;Deck -->
<g id="edge9" class="edge"><title>User&#45;&gt;Deck</title>
<path fill="none" stroke="#5be57c" d="M287,-63.6398C287,-58.0629 287,-52.1319 287,-46.4761"/>
<ellipse fill="none" stroke="#5be57c" cx="287" cy="-67.6966" rx="4" ry="4"/>
<polygon fill="#5be57c" stroke="#5be57c" points="287,-46.1043 291.5,-36.1043 287,-41.1043 287,-36.1043 287,-36.1043 287,-36.1043 287,-41.1043 282.5,-36.1044 287,-46.1043 287,-46.1043"/>
</g>
<!-- User&#45;&gt;Game -->
<g id="edge8" class="edge"><title>User&#45;&gt;Game</title>
<path fill="none" stroke="#be3278" d="M310.964,-112.697C317.521,-120.1 324.375,-128.435 330.196,-136.072"/>
<polygon fill="#be3278" stroke="#be3278" points="310.775,-112.49 307.351,-102.072 307.402,-108.799 304.029,-105.108 304.029,-105.108 304.029,-105.108 307.402,-108.799 300.707,-108.143 310.775,-112.49 310.775,-112.49"/>
<polygon fill="#be3278" stroke="#be3278" points="330.406,-136.356 332.707,-147.078 333.369,-140.384 336.332,-144.411 336.332,-144.411 336.332,-144.411 333.369,-140.384 339.956,-141.744 330.406,-136.356 330.406,-136.356"/>
</g>
<!-- User&#45;&gt;Hand -->
<g id="edge7" class="edge"><title>User&#45;&gt;Hand</title>
<path fill="none" stroke="#027f3b" d="M311.923,-70.6355C325.283,-60.7912 341.749,-48.659 355.361,-38.6286"/>
<ellipse fill="none" stroke="#027f3b" cx="308.537" cy="-73.1305" rx="4.00002" ry="4.00002"/>
<polygon fill="#027f3b" stroke="#027f3b" points="355.365,-38.6261 366.085,-36.3169 359.39,-35.6601 363.415,-32.6941 363.415,-32.6941 363.415,-32.6941 359.39,-35.6601 360.746,-29.0714 355.365,-38.6261 355.365,-38.6261"/>
</g>
<!-- ActiveRecord::Base -->
<g id="node6" class="node"><title>ActiveRecord::Base</title>
<ellipse fill="none" stroke="black" cx="313" cy="-259" rx="88.2033" ry="18"/>
<text text-anchor="middle" x="313" y="-253.4" font-family="Times,serif" font-size="14.00">ActiveRecord::Base</text>
</g>
<!-- ActiveRecord::Base&#45;&gt;Deck -->
<g id="edge1" class="edge"><title>ActiveRecord::Base&#45;&gt;Deck</title>
<path fill="none" stroke="black" d="M302.887,-240.748C287.622,-213.601 259.377,-158.763 249,-108 245.796,-92.3242 244.104,-87.2324 249,-72 253.002,-59.5504 261.128,-47.5462 268.842,-38.1196"/>
<polyline fill="none" stroke="black" points="272.109,-34.2437 268.887,-38.0665 "/>
</g>
<!-- ActiveRecord::Base&#45;&gt;Game -->
<g id="edge5" class="edge"><title>ActiveRecord::Base&#45;&gt;Game</title>
<path fill="none" stroke="black" d="M318.542,-241.016C323.656,-225.345 331.277,-201.99 336.848,-184.918"/>
<polyline fill="none" stroke="black" points="338.506,-179.837 336.955,-184.59 "/>
</g>
<!-- ActiveRecord::Base&#45;&gt;Hand -->
<g id="edge6" class="edge"><title>ActiveRecord::Base&#45;&gt;Hand</title>
<path fill="none" stroke="black" d="M336.293,-241.481C353.943,-227.422 376.834,-205.487 387,-180 405.588,-133.401 395.668,-73.0459 388.067,-41.1002"/>
<polyline fill="none" stroke="black" points="386.872,-36.2235 388.062,-41.0798 "/>
</g>
<!-- ActiveRecord::Base&#45;&gt;User -->
<g id="edge10" class="edge"><title>ActiveRecord::Base&#45;&gt;User</title>
<path fill="none" stroke="black" d="M310.315,-240.757C305.586,-210.381 295.774,-147.355 290.513,-113.562"/>
<polyline fill="none" stroke="black" points="289.709,-108.399 290.478,-113.34 "/>
</g>
</g>
</svg>
