<?xml version="1.0" encoding="UTF-8" standalone="no"?>
<!DOCTYPE svg PUBLIC "-//W3C//DTD SVG 1.1//EN"
 "http://www.w3.org/Graphics/SVG/1.1/DTD/svg11.dtd">
<!-- Generated by graphviz version 2.34.0 (20131105.2002)
 -->
<!-- Title: models_diagram Pages: 1 -->
<svg width="447pt" height="382pt"
 viewBox="0.00 0.00 446.67 382.00" xmlns="http://www.w3.org/2000/svg" xmlns:xlink="http://www.w3.org/1999/xlink">
<g id="graph0" class="graph" transform="scale(1 1) rotate(0) translate(4 378)">
<title>models_diagram</title>
<polygon fill="white" stroke="white" points="-4,4 -4,-378 442.667,-378 442.667,4 -4,4"/>
<!-- _diagram_info -->
<g id="node1" class="node"><title>_diagram_info</title>
<text text-anchor="start" x="7.55029" y="-357" font-family="Times,serif" font-size="13.00">Models diagram</text>
<text text-anchor="start" x="7.55029" y="-341.4" font-family="Times,serif" font-size="13.00">Date: Nov 05 2013 &#45; 15:30</text>
<text text-anchor="start" x="7.55029" y="-325.8" font-family="Times,serif" font-size="13.00">Migration version: 20131105202051</text>
<text text-anchor="start" x="7.55029" y="-310.2" font-family="Times,serif" font-size="13.00">Generated by RailRoady 1.1.1</text>
<text text-anchor="start" x="7.55029" y="-294.6" font-family="Times,serif" font-size="13.00">http://railroady.prestonlee.com</text>
</g>
<!-- BlackCard -->
<g id="node2" class="node"><title>BlackCard</title>
<ellipse fill="none" stroke="black" cx="225" cy="-18" rx="52.0008" ry="18"/>
<text text-anchor="middle" x="225" y="-12.4" font-family="Times,serif" font-size="14.00">BlackCard</text>
</g>
<!-- Deck -->
<g id="node3" class="node"><title>Deck</title>
<ellipse fill="none" stroke="black" cx="287" cy="-90" rx="31.1178" ry="18"/>
<text text-anchor="middle" x="287" y="-84.4" font-family="Times,serif" font-size="14.00">Deck</text>
</g>
<!-- Deck&#45;&gt;BlackCard -->
<g id="edge3" class="edge"><title>Deck&#45;&gt;BlackCard</title>
<path fill="none" stroke="#841f32" d="M267.814,-67.3382C260.987,-59.6307 253.262,-50.9083 246.271,-43.0154"/>
<ellipse fill="none" stroke="#841f32" cx="270.588" cy="-70.4704" rx="4.00002" ry="4.00002"/>
<polygon fill="#841f32" stroke="#841f32" points="246.216,-42.9531 242.954,-32.4835 242.9,-39.2101 239.585,-35.4672 239.585,-35.4672 239.585,-35.4672 242.9,-39.2101 236.217,-38.4509 246.216,-42.9531 246.216,-42.9531"/>
</g>
<!-- WhiteCard -->
<g id="node7" class="node"><title>WhiteCard</title>
<ellipse fill="none" stroke="black" cx="382" cy="-18" rx="53.1058" ry="18"/>
<text text-anchor="middle" x="382" y="-12.4" font-family="Times,serif" font-size="14.00">WhiteCard</text>
</g>
<!-- Deck&#45;&gt;WhiteCard -->
<g id="edge2" class="edge"><title>Deck&#45;&gt;WhiteCard</title>
<path fill="none" stroke="#11f005" d="M312.389,-70.2923C324.742,-61.1904 339.662,-50.1962 352.516,-40.7248"/>
<ellipse fill="none" stroke="#11f005" cx="308.989" cy="-72.7974" rx="4.00002" ry="4.00002"/>
<polygon fill="#11f005" stroke="#11f005" points="352.567,-40.6877 363.287,-38.3785 356.592,-37.7217 360.617,-34.7557 360.617,-34.7557 360.617,-34.7557 356.592,-37.7217 357.948,-31.133 352.567,-40.6877 352.567,-40.6877"/>
</g>
<!-- Game -->
<g id="node4" class="node"><title>Game</title>
<ellipse fill="none" stroke="black" cx="344" cy="-234" rx="34.1417" ry="18"/>
<text text-anchor="middle" x="344" y="-228.4" font-family="Times,serif" font-size="14.00">Game</text>
</g>
<!-- Game&#45;&gt;Deck -->
<g id="edge5" class="edge"><title>Game&#45;&gt;Deck</title>
<path fill="none" stroke="#c0c0ed" d="M341.391,-207.567C338.851,-189.283 334.002,-164.367 325,-144 320.185,-133.107 312.912,-122.218 306.013,-113.168"/>
<ellipse fill="none" stroke="#c0c0ed" cx="341.955" cy="-211.993" rx="4.00001" ry="4.00001"/>
<ellipse fill="#c0c0ed" stroke="#c0c0ed" cx="303.336" cy="-109.777" rx="4.00002" ry="4.00002"/>
</g>
<!-- Hand -->
<g id="node5" class="node"><title>Hand</title>
<ellipse fill="none" stroke="black" cx="382" cy="-90" rx="31.4312" ry="18"/>
<text text-anchor="middle" x="382" y="-84.4" font-family="Times,serif" font-size="14.00">Hand</text>
</g>
<!-- Game&#45;&gt;Hand -->
<g id="edge7" class="edge"><title>Game&#45;&gt;Hand</title>
<path fill="none" stroke="#1d6f90" d="M351.143,-206.309C357.943,-180.897 368.119,-142.87 374.904,-117.517"/>
<polygon fill="#1d6f90" stroke="#1d6f90" points="351.093,-206.493 344.161,-214.99 349.801,-211.323 348.508,-216.153 348.508,-216.153 348.508,-216.153 349.801,-211.323 352.855,-217.316 351.093,-206.493 351.093,-206.493"/>
<polygon fill="#1d6f90" stroke="#1d6f90" points="374.912,-117.485 381.845,-108.988 376.205,-112.655 377.498,-107.825 377.498,-107.825 377.498,-107.825 376.205,-112.655 373.151,-106.662 374.912,-117.485 374.912,-117.485"/>
</g>
<!-- User -->
<g id="node6" class="node"><title>User</title>
<ellipse fill="none" stroke="black" cx="287" cy="-162" rx="28.9087" ry="18"/>
<text text-anchor="middle" x="287" y="-156.4" font-family="Times,serif" font-size="14.00">User</text>
</g>
<!-- Game&#45;&gt;User -->
<g id="edge6" class="edge"><title>Game&#45;&gt;User</title>
<path fill="none" stroke="#4eba78" d="M321.168,-212.576C314.174,-204.753 306.749,-195.748 300.536,-187.577"/>
<ellipse fill="none" stroke="#4eba78" cx="323.894" cy="-215.548" rx="4.00002" ry="4.00002"/>
<polygon fill="#4eba78" stroke="#4eba78" points="300.486,-187.509 298.196,-176.785 297.528,-183.478 294.569,-179.448 294.569,-179.448 294.569,-179.448 297.528,-183.478 290.941,-182.111 300.486,-187.509 300.486,-187.509"/>
</g>
<!-- Hand&#45;&gt;WhiteCard -->
<g id="edge9" class="edge"><title>Hand&#45;&gt;WhiteCard</title>
<path fill="none" stroke="#b2412d" d="M382,-63.6398C382,-58.0629 382,-52.1319 382,-46.4761"/>
<ellipse fill="none" stroke="#b2412d" cx="382" cy="-67.6966" rx="4" ry="4"/>
<polygon fill="#b2412d" stroke="#b2412d" points="382,-46.1043 386.5,-36.1043 382,-41.1043 382,-36.1043 382,-36.1043 382,-36.1043 382,-41.1043 377.5,-36.1044 382,-46.1043 382,-46.1043"/>
</g>
<!-- User&#45;&gt;Deck -->
<g id="edge13" class="edge"><title>User&#45;&gt;Deck</title>
<path fill="none" stroke="#a00cb0" d="M287,-135.64C287,-130.063 287,-124.132 287,-118.476"/>
<ellipse fill="none" stroke="#a00cb0" cx="287" cy="-139.697" rx="4" ry="4"/>
<polygon fill="#a00cb0" stroke="#a00cb0" points="287,-118.104 291.5,-108.104 287,-113.104 287,-108.104 287,-108.104 287,-108.104 287,-113.104 282.5,-108.104 287,-118.104 287,-118.104"/>
</g>
<!-- User&#45;&gt;Game -->
<g id="edge12" class="edge"><title>User&#45;&gt;Game</title>
<path fill="none" stroke="#41e7f6" d="M310.964,-184.697C317.521,-192.1 324.375,-200.435 330.196,-208.072"/>
<polygon fill="#41e7f6" stroke="#41e7f6" points="310.775,-184.49 307.351,-174.072 307.402,-180.799 304.029,-177.108 304.029,-177.108 304.029,-177.108 307.402,-180.799 300.707,-180.143 310.775,-184.49 310.775,-184.49"/>
<polygon fill="#41e7f6" stroke="#41e7f6" points="330.406,-208.356 332.707,-219.078 333.369,-212.384 336.332,-216.411 336.332,-216.411 336.332,-216.411 333.369,-212.384 339.956,-213.744 330.406,-208.356 330.406,-208.356"/>
</g>
<!-- User&#45;&gt;Hand -->
<g id="edge11" class="edge"><title>User&#45;&gt;Hand</title>
<path fill="none" stroke="#170435" d="M311.923,-142.635C325.283,-132.791 341.749,-120.659 355.361,-110.629"/>
<ellipse fill="none" stroke="#170435" cx="308.537" cy="-145.13" rx="4.00002" ry="4.00002"/>
<polygon fill="#170435" stroke="#170435" points="355.365,-110.626 366.085,-108.317 359.39,-107.66 363.415,-104.694 363.415,-104.694 363.415,-104.694 359.39,-107.66 360.746,-101.071 355.365,-110.626 355.365,-110.626"/>
</g>
<!-- ActiveRecord::Base -->
<g id="node8" class="node"><title>ActiveRecord::Base</title>
<ellipse fill="none" stroke="black" cx="313" cy="-331" rx="88.2033" ry="18"/>
<text text-anchor="middle" x="313" y="-325.4" font-family="Times,serif" font-size="14.00">ActiveRecord::Base</text>
</g>
<!-- ActiveRecord::Base&#45;&gt;BlackCard -->
<g id="edge1" class="edge"><title>ActiveRecord::Base&#45;&gt;BlackCard</title>
<path fill="none" stroke="black" d="M297.212,-313.113C284.142,-298.178 266.131,-275.211 256,-252 224.533,-179.909 222.877,-84.2837 223.98,-41.4357"/>
<polyline fill="none" stroke="black" points="224.134,-36.2335 223.986,-41.2313 "/>
</g>
<!-- ActiveRecord::Base&#45;&gt;Deck -->
<g id="edge4" class="edge"><title>ActiveRecord::Base&#45;&gt;Deck</title>
<path fill="none" stroke="black" d="M302.887,-312.748C287.622,-285.601 259.377,-230.763 249,-180 245.796,-164.324 244.104,-159.232 249,-144 253.002,-131.55 261.128,-119.546 268.842,-110.12"/>
<polyline fill="none" stroke="black" points="272.109,-106.244 268.887,-110.066 "/>
</g>
<!-- ActiveRecord::Base&#45;&gt;Game -->
<g id="edge8" class="edge"><title>ActiveRecord::Base&#45;&gt;Game</title>
<path fill="none" stroke="black" d="M318.542,-313.016C323.656,-297.345 331.277,-273.99 336.848,-256.918"/>
<polyline fill="none" stroke="black" points="338.506,-251.837 336.955,-256.59 "/>
</g>
<!-- ActiveRecord::Base&#45;&gt;Hand -->
<g id="edge10" class="edge"><title>ActiveRecord::Base&#45;&gt;Hand</title>
<path fill="none" stroke="black" d="M336.293,-313.481C353.943,-299.422 376.834,-277.487 387,-252 405.588,-205.401 395.668,-145.046 388.067,-113.1"/>
<polyline fill="none" stroke="black" points="386.872,-108.223 388.062,-113.08 "/>
</g>
<!-- ActiveRecord::Base&#45;&gt;User -->
<g id="edge14" class="edge"><title>ActiveRecord::Base&#45;&gt;User</title>
<path fill="none" stroke="black" d="M310.315,-312.757C305.586,-282.381 295.774,-219.355 290.513,-185.562"/>
<polyline fill="none" stroke="black" points="289.709,-180.399 290.478,-185.34 "/>
</g>
<!-- ActiveRecord::Base&#45;&gt;WhiteCard -->
<g id="edge15" class="edge"><title>ActiveRecord::Base&#45;&gt;WhiteCard</title>
<path fill="none" stroke="black" d="M341.792,-313.813C363.034,-300.224 390.642,-278.754 405,-252 442.997,-181.195 447.526,-148.194 422,-72 417.963,-59.9488 409.984,-48.4477 402.208,-39.258"/>
<polyline fill="none" stroke="black" points="398.899,-35.4662 402.186,-39.2337 "/>
</g>
</g>
</svg>
