<?xml version="1.0" encoding="UTF-8" standalone="no"?>
<!DOCTYPE svg PUBLIC "-//W3C//DTD SVG 1.1//EN"
 "http://www.w3.org/Graphics/SVG/1.1/DTD/svg11.dtd">
<!-- Generated by graphviz version 2.34.0 (20131105.2002)
 -->
<!-- Title: models_diagram Pages: 1 -->
<svg width="586pt" height="980pt"
 viewBox="0.00 0.00 585.99 980.00" xmlns="http://www.w3.org/2000/svg" xmlns:xlink="http://www.w3.org/1999/xlink">
<g id="graph0" class="graph" transform="scale(1 1) rotate(0) translate(4 976)">
<title>models_diagram</title>
<polygon fill="white" stroke="white" points="-4,4 -4,-976 581.992,-976 581.992,4 -4,4"/>
<!-- _diagram_info -->
<g id="node1" class="node"><title>_diagram_info</title>
<text text-anchor="start" x="7.78833" y="-955" font-family="Times,serif" font-size="13.00">Models diagram</text>
<text text-anchor="start" x="7.78833" y="-939.4" font-family="Times,serif" font-size="13.00">Date: Nov 12 2013 &#45; 09:48</text>
<text text-anchor="start" x="7.78833" y="-923.8" font-family="Times,serif" font-size="13.00">Migration version: 20131112144527</text>
<text text-anchor="start" x="7.78833" y="-908.2" font-family="Times,serif" font-size="13.00">Generated by RailRoady 1.1.1</text>
<text text-anchor="start" x="7.78833" y="-892.6" font-family="Times,serif" font-size="13.00">http://railroady.prestonlee.com</text>
</g>
<!-- BlackCard -->
<g id="node2" class="node"><title>BlackCard</title>
<path fill="none" stroke="black" d="M126.495,-0.8C126.495,-0.8 235.505,-0.8 235.505,-0.8 241.505,-0.8 247.505,-6.8 247.505,-12.8 247.505,-12.8 247.505,-139.2 247.505,-139.2 247.505,-145.2 241.505,-151.2 235.505,-151.2 235.505,-151.2 126.495,-151.2 126.495,-151.2 120.495,-151.2 114.495,-145.2 114.495,-139.2 114.495,-139.2 114.495,-12.8 114.495,-12.8 114.495,-6.8 120.495,-0.8 126.495,-0.8"/>
<text text-anchor="middle" x="181" y="-133.2" font-family="Times,serif" font-size="14.00">BlackCard</text>
<polyline fill="none" stroke="black" points="114.495,-126.4 247.505,-126.4 "/>
<text text-anchor="start" x="122.495" y="-108.4" font-family="Times,serif" font-size="14.00">id :integer</text>
<text text-anchor="start" x="122.495" y="-91.6" font-family="Times,serif" font-size="14.00">created_at :datetime</text>
<text text-anchor="start" x="122.495" y="-74.8" font-family="Times,serif" font-size="14.00">updated_at :datetime</text>
<text text-anchor="start" x="122.495" y="-58" font-family="Times,serif" font-size="14.00">num_blanks :integer</text>
<text text-anchor="start" x="122.495" y="-41.2" font-family="Times,serif" font-size="14.00">content :string</text>
<text text-anchor="start" x="122.495" y="-24.4" font-family="Times,serif" font-size="14.00">deck_id :integer</text>
<text text-anchor="start" x="122.495" y="-7.6" font-family="Times,serif" font-size="14.00">game_id :integer</text>
</g>
<!-- Deck -->
<g id="node3" class="node"><title>Deck</title>
<path fill="none" stroke="black" d="M210.495,-188.6C210.495,-188.6 319.505,-188.6 319.505,-188.6 325.505,-188.6 331.505,-194.6 331.505,-200.6 331.505,-200.6 331.505,-293.4 331.505,-293.4 331.505,-299.4 325.505,-305.4 319.505,-305.4 319.505,-305.4 210.495,-305.4 210.495,-305.4 204.495,-305.4 198.495,-299.4 198.495,-293.4 198.495,-293.4 198.495,-200.6 198.495,-200.6 198.495,-194.6 204.495,-188.6 210.495,-188.6"/>
<text text-anchor="middle" x="265" y="-287.4" font-family="Times,serif" font-size="14.00">Deck</text>
<polyline fill="none" stroke="black" points="198.495,-280.6 331.505,-280.6 "/>
<text text-anchor="start" x="206.495" y="-262.6" font-family="Times,serif" font-size="14.00">id :integer</text>
<text text-anchor="start" x="206.495" y="-245.8" font-family="Times,serif" font-size="14.00">name :string</text>
<text text-anchor="start" x="206.495" y="-229" font-family="Times,serif" font-size="14.00">created_at :datetime</text>
<text text-anchor="start" x="206.495" y="-212.2" font-family="Times,serif" font-size="14.00">updated_at :datetime</text>
<text text-anchor="start" x="206.495" y="-195.4" font-family="Times,serif" font-size="14.00">game_id :integer</text>
</g>
<!-- Deck&#45;&gt;BlackCard -->
<g id="edge3" class="edge"><title>Deck&#45;&gt;BlackCard</title>
<path fill="none" stroke="#32fdf8" d="M232.692,-180.999C229.388,-174.352 226,-167.536 222.615,-160.726"/>
<ellipse fill="none" stroke="#32fdf8" cx="234.547" cy="-184.731" rx="4.00002" ry="4.00002"/>
<polygon fill="#32fdf8" stroke="#32fdf8" points="222.461,-160.415 222.039,-149.457 220.235,-155.938 218.01,-151.46 218.01,-151.46 218.01,-151.46 220.235,-155.938 213.98,-153.463 222.461,-160.415 222.461,-160.415"/>
</g>
<!-- WhiteCard -->
<g id="node7" class="node"><title>WhiteCard</title>
<path fill="none" stroke="black" d="M361.495,-9.2C361.495,-9.2 470.505,-9.2 470.505,-9.2 476.505,-9.2 482.505,-15.2 482.505,-21.2 482.505,-21.2 482.505,-130.8 482.505,-130.8 482.505,-136.8 476.505,-142.8 470.505,-142.8 470.505,-142.8 361.495,-142.8 361.495,-142.8 355.495,-142.8 349.495,-136.8 349.495,-130.8 349.495,-130.8 349.495,-21.2 349.495,-21.2 349.495,-15.2 355.495,-9.2 361.495,-9.2"/>
<text text-anchor="middle" x="416" y="-124.8" font-family="Times,serif" font-size="14.00">WhiteCard</text>
<polyline fill="none" stroke="black" points="349.495,-118 482.505,-118 "/>
<text text-anchor="start" x="357.495" y="-100" font-family="Times,serif" font-size="14.00">id :integer</text>
<text text-anchor="start" x="357.495" y="-83.2" font-family="Times,serif" font-size="14.00">created_at :datetime</text>
<text text-anchor="start" x="357.495" y="-66.4" font-family="Times,serif" font-size="14.00">updated_at :datetime</text>
<text text-anchor="start" x="357.495" y="-49.6" font-family="Times,serif" font-size="14.00">content :string</text>
<text text-anchor="start" x="357.495" y="-32.8" font-family="Times,serif" font-size="14.00">deck_id :integer</text>
<text text-anchor="start" x="357.495" y="-16" font-family="Times,serif" font-size="14.00">hand_id :integer</text>
</g>
<!-- Deck&#45;&gt;WhiteCard -->
<g id="edge2" class="edge"><title>Deck&#45;&gt;WhiteCard</title>
<path fill="none" stroke="#0e47f1" d="M322.116,-182.075C331.339,-171.753 340.951,-160.995 350.356,-150.469"/>
<ellipse fill="none" stroke="#0e47f1" cx="319.208" cy="-185.33" rx="4.00002" ry="4.00002"/>
<polygon fill="#0e47f1" stroke="#0e47f1" points="350.496,-150.312 360.515,-145.853 353.828,-146.583 357.159,-142.855 357.159,-142.855 357.159,-142.855 353.828,-146.583 353.804,-139.857 350.496,-150.312 350.496,-150.312"/>
</g>
<!-- Game -->
<g id="node4" class="node"><title>Game</title>
<path fill="none" stroke="black" d="M299.439,-682.4C299.439,-682.4 432.561,-682.4 432.561,-682.4 438.561,-682.4 444.561,-688.4 444.561,-694.4 444.561,-694.4 444.561,-837.6 444.561,-837.6 444.561,-843.6 438.561,-849.6 432.561,-849.6 432.561,-849.6 299.439,-849.6 299.439,-849.6 293.439,-849.6 287.439,-843.6 287.439,-837.6 287.439,-837.6 287.439,-694.4 287.439,-694.4 287.439,-688.4 293.439,-682.4 299.439,-682.4"/>
<text text-anchor="middle" x="366" y="-831.6" font-family="Times,serif" font-size="14.00">Game</text>
<polyline fill="none" stroke="black" points="287.439,-824.8 444.561,-824.8 "/>
<text text-anchor="start" x="295.439" y="-806.8" font-family="Times,serif" font-size="14.00">id :integer</text>
<text text-anchor="start" x="295.439" y="-790" font-family="Times,serif" font-size="14.00">players :integer</text>
<text text-anchor="start" x="295.439" y="-773.2" font-family="Times,serif" font-size="14.00">created_at :datetime</text>
<text text-anchor="start" x="295.439" y="-756.4" font-family="Times,serif" font-size="14.00">updated_at :datetime</text>
<text text-anchor="start" x="295.439" y="-739.6" font-family="Times,serif" font-size="14.00">name :string</text>
<text text-anchor="start" x="295.439" y="-722.8" font-family="Times,serif" font-size="14.00">max_players :integer</text>
<text text-anchor="start" x="295.439" y="-706" font-family="Times,serif" font-size="14.00">finished :boolean</text>
<text text-anchor="start" x="295.439" y="-689.2" font-family="Times,serif" font-size="14.00">original_deck_id :integer</text>
</g>
<!-- Game&#45;&gt;Deck -->
<g id="edge5" class="edge"><title>Game&#45;&gt;Deck</title>
<path fill="none" stroke="#5c128a" d="M390.817,-674.349C410.171,-585.319 426.343,-447.833 377,-342 374.4,-336.422 357.7,-321.583 337.955,-305.299"/>
<ellipse fill="none" stroke="#5c128a" cx="389.925" cy="-678.37" rx="4.00001" ry="4.00001"/>
<ellipse fill="#5c128a" stroke="#5c128a" cx="334.835" cy="-302.743" rx="4.00002" ry="4.00002"/>
</g>
<!-- Hand -->
<g id="node5" class="node"><title>Hand</title>
<path fill="none" stroke="black" d="M361.495,-188.6C361.495,-188.6 470.505,-188.6 470.505,-188.6 476.505,-188.6 482.505,-194.6 482.505,-200.6 482.505,-200.6 482.505,-293.4 482.505,-293.4 482.505,-299.4 476.505,-305.4 470.505,-305.4 470.505,-305.4 361.495,-305.4 361.495,-305.4 355.495,-305.4 349.495,-299.4 349.495,-293.4 349.495,-293.4 349.495,-200.6 349.495,-200.6 349.495,-194.6 355.495,-188.6 361.495,-188.6"/>
<text text-anchor="middle" x="416" y="-287.4" font-family="Times,serif" font-size="14.00">Hand</text>
<polyline fill="none" stroke="black" points="349.495,-280.6 482.505,-280.6 "/>
<text text-anchor="start" x="357.495" y="-262.6" font-family="Times,serif" font-size="14.00">id :integer</text>
<text text-anchor="start" x="357.495" y="-245.8" font-family="Times,serif" font-size="14.00">created_at :datetime</text>
<text text-anchor="start" x="357.495" y="-229" font-family="Times,serif" font-size="14.00">updated_at :datetime</text>
<text text-anchor="start" x="357.495" y="-212.2" font-family="Times,serif" font-size="14.00">user_id :integer</text>
<text text-anchor="start" x="357.495" y="-195.4" font-family="Times,serif" font-size="14.00">game_id :integer</text>
</g>
<!-- Game&#45;&gt;Hand -->
<g id="edge6" class="edge"><title>Game&#45;&gt;Hand</title>
<path fill="none" stroke="#c9f709" d="M403.088,-674.26C405.869,-664.837 408.263,-655.304 410,-646 431.337,-531.742 427.226,-395.815 421.896,-316.017"/>
<ellipse fill="none" stroke="#c9f709" cx="401.841" cy="-678.319" rx="4.00001" ry="4.00001"/>
<polygon fill="#c9f709" stroke="#c9f709" points="421.867,-315.591 425.663,-305.303 421.52,-310.603 421.173,-305.615 421.173,-305.615 421.173,-305.615 421.52,-310.603 416.684,-305.927 421.867,-315.591 421.867,-315.591"/>
</g>
<!-- User -->
<g id="node6" class="node"><title>User</title>
<path fill="none" stroke="black" d="M175.722,-343.2C175.722,-343.2 356.278,-343.2 356.278,-343.2 362.278,-343.2 368.278,-349.2 368.278,-355.2 368.278,-355.2 368.278,-632.8 368.278,-632.8 368.278,-638.8 362.278,-644.8 356.278,-644.8 356.278,-644.8 175.722,-644.8 175.722,-644.8 169.722,-644.8 163.722,-638.8 163.722,-632.8 163.722,-632.8 163.722,-355.2 163.722,-355.2 163.722,-349.2 169.722,-343.2 175.722,-343.2"/>
<text text-anchor="middle" x="266" y="-626.8" font-family="Times,serif" font-size="14.00">User</text>
<polyline fill="none" stroke="black" points="163.722,-620 368.278,-620 "/>
<text text-anchor="start" x="171.722" y="-602" font-family="Times,serif" font-size="14.00">id :integer</text>
<text text-anchor="start" x="171.722" y="-585.2" font-family="Times,serif" font-size="14.00">email :string</text>
<text text-anchor="start" x="171.722" y="-568.4" font-family="Times,serif" font-size="14.00">encrypted_password :string</text>
<text text-anchor="start" x="171.722" y="-551.6" font-family="Times,serif" font-size="14.00">reset_password_token :string</text>
<text text-anchor="start" x="171.722" y="-534.8" font-family="Times,serif" font-size="14.00">reset_password_sent_at :datetime</text>
<text text-anchor="start" x="171.722" y="-518" font-family="Times,serif" font-size="14.00">remember_created_at :datetime</text>
<text text-anchor="start" x="171.722" y="-501.2" font-family="Times,serif" font-size="14.00">sign_in_count :integer</text>
<text text-anchor="start" x="171.722" y="-484.4" font-family="Times,serif" font-size="14.00">current_sign_in_at :datetime</text>
<text text-anchor="start" x="171.722" y="-467.6" font-family="Times,serif" font-size="14.00">last_sign_in_at :datetime</text>
<text text-anchor="start" x="171.722" y="-450.8" font-family="Times,serif" font-size="14.00">current_sign_in_ip :string</text>
<text text-anchor="start" x="171.722" y="-434" font-family="Times,serif" font-size="14.00">last_sign_in_ip :string</text>
<text text-anchor="start" x="171.722" y="-417.2" font-family="Times,serif" font-size="14.00">created_at :datetime</text>
<text text-anchor="start" x="171.722" y="-400.4" font-family="Times,serif" font-size="14.00">updated_at :datetime</text>
<text text-anchor="start" x="171.722" y="-383.6" font-family="Times,serif" font-size="14.00">game_id :integer</text>
<text text-anchor="start" x="171.722" y="-366.8" font-family="Times,serif" font-size="14.00">wins :integer</text>
<text text-anchor="start" x="171.722" y="-350" font-family="Times,serif" font-size="14.00">points :integer</text>
</g>
<!-- Game&#45;&gt;User -->
<g id="edge7" class="edge"><title>Game&#45;&gt;User</title>
<path fill="none" stroke="#c165b1" d="M331.747,-672.517C329.561,-666.616 327.331,-660.594 325.075,-654.503"/>
<polygon fill="#c165b1" stroke="#c165b1" points="331.844,-672.779 331.097,-683.719 333.581,-677.467 335.317,-682.156 335.317,-682.156 335.317,-682.156 333.581,-677.467 339.537,-680.593 331.844,-672.779 331.844,-672.779"/>
<polygon fill="#c165b1" stroke="#c165b1" points="324.985,-654.26 325.732,-643.32 323.249,-649.571 321.512,-644.883 321.512,-644.883 321.512,-644.883 323.249,-649.571 317.292,-646.446 324.985,-654.26 324.985,-654.26"/>
</g>
<!-- Hand&#45;&gt;WhiteCard -->
<g id="edge9" class="edge"><title>Hand&#45;&gt;WhiteCard</title>
<path fill="none" stroke="#973e31" d="M416,-179.97C416,-171.111 416,-161.967 416,-152.953"/>
<ellipse fill="none" stroke="#973e31" cx="416" cy="-184.312" rx="4" ry="4"/>
<polygon fill="#973e31" stroke="#973e31" points="416,-152.855 420.5,-142.855 416,-147.855 416,-142.855 416,-142.855 416,-142.855 416,-147.855 411.5,-142.855 416,-152.855 416,-152.855"/>
</g>
<!-- User&#45;&gt;Deck -->
<g id="edge12" class="edge"><title>User&#45;&gt;Deck</title>
<path fill="none" stroke="#917b00" d="M265.354,-334.779C265.327,-328.211 265.301,-321.793 265.276,-315.61"/>
<ellipse fill="none" stroke="#917b00" cx="265.372" cy="-339.074" rx="4" ry="4"/>
<polygon fill="#917b00" stroke="#917b00" points="265.275,-315.442 269.734,-305.424 265.255,-310.442 265.234,-305.442 265.234,-305.442 265.234,-305.442 265.255,-310.442 260.734,-305.461 265.275,-315.442 265.275,-315.442"/>
</g>
<!-- User&#45;&gt;Hand -->
<g id="edge11" class="edge"><title>User&#45;&gt;Hand</title>
<path fill="none" stroke="#22ca82" d="M362.123,-335.999C366.724,-328.484 371.21,-321.157 375.503,-314.146"/>
<ellipse fill="none" stroke="#22ca82" cx="359.88" cy="-339.663" rx="4.00002" ry="4.00002"/>
<polygon fill="#22ca82" stroke="#22ca82" points="375.61,-313.971 384.669,-307.792 378.221,-309.706 380.831,-305.442 380.831,-305.442 380.831,-305.442 378.221,-309.706 376.993,-303.093 375.61,-313.971 375.61,-313.971"/>
</g>
<!-- ActiveRecord::Base -->
<g id="node8" class="node"><title>ActiveRecord::Base</title>
<ellipse fill="none" stroke="black" cx="313" cy="-929" rx="88.2033" ry="18"/>
<text text-anchor="middle" x="313" y="-923.4" font-family="Times,serif" font-size="14.00">ActiveRecord::Base</text>
</g>
<!-- ActiveRecord::Base&#45;&gt;BlackCard -->
<g id="edge1" class="edge"><title>ActiveRecord::Base&#45;&gt;BlackCard</title>
<path fill="none" stroke="black" d="M275.467,-912.68C236.332,-895.982 178.677,-869.101 164,-850 107.371,-776.301 128.285,-738.372 118,-646 103.048,-511.719 102.268,-476.192 118,-342 125.428,-278.642 142.521,-208.473 157.031,-156.264"/>
<polyline fill="none" stroke="black" points="158.426,-151.268 157.081,-156.084 "/>
</g>
<!-- ActiveRecord::Base&#45;&gt;Deck -->
<g id="edge4" class="edge"><title>ActiveRecord::Base&#45;&gt;Deck</title>
<path fill="none" stroke="black" d="M298.797,-911.014C265.007,-869.273 180.737,-756.976 155,-646 124.476,-514.382 98.4509,-464.708 155,-342 163.772,-322.966 178.509,-306.355 194.392,-292.609"/>
<polyline fill="none" stroke="black" points="198.452,-289.176 194.634,-292.404 "/>
</g>
<!-- ActiveRecord::Base&#45;&gt;Game -->
<g id="edge8" class="edge"><title>ActiveRecord::Base&#45;&gt;Game</title>
<path fill="none" stroke="black" d="M318.672,-910.77C323.265,-896.818 330.113,-876.016 337.182,-854.541"/>
<polyline fill="none" stroke="black" points="338.789,-849.659 337.226,-854.408 "/>
</g>
<!-- ActiveRecord::Base&#45;&gt;Hand -->
<g id="edge10" class="edge"><title>ActiveRecord::Base&#45;&gt;Hand</title>
<path fill="none" stroke="black" d="M363.81,-914.157C395.517,-902.599 433.83,-882.625 453,-850 505.767,-760.198 454.177,-446.415 428.559,-311.002"/>
<polyline fill="none" stroke="black" points="427.584,-305.868 428.517,-310.78 "/>
</g>
<!-- ActiveRecord::Base&#45;&gt;User -->
<g id="edge13" class="edge"><title>ActiveRecord::Base&#45;&gt;User</title>
<path fill="none" stroke="black" d="M303.052,-911.024C294.628,-895.663 283.128,-872.122 278,-850 263.1,-785.725 258.559,-713.168 258.32,-650.478"/>
<polyline fill="none" stroke="black" points="258.31,-645.214 258.32,-650.214 "/>
</g>
<!-- ActiveRecord::Base&#45;&gt;WhiteCard -->
<g id="edge14" class="edge"><title>ActiveRecord::Base&#45;&gt;WhiteCard</title>
<path fill="none" stroke="black" d="M374.346,-915.872C411.061,-905.15 454.941,-885.462 478,-850 638.421,-603.291 577.152,-469.386 491,-188 486.718,-174.014 480.013,-160.201 472.335,-147.32"/>
<polyline fill="none" stroke="black" points="469.696,-142.988 472.297,-147.258 "/>
</g>
</g>
</svg>
