<?xml version="1.0" encoding="UTF-8" standalone="no"?>
<!DOCTYPE svg PUBLIC "-//W3C//DTD SVG 1.1//EN"
 "http://www.w3.org/Graphics/SVG/1.1/DTD/svg11.dtd">
<!-- Generated by graphviz version 2.34.0 (20131105.2002)
 -->
<!-- Title: models_diagram Pages: 1 -->
<svg width="507pt" height="826pt"
 viewBox="0.00 0.00 507.00 826.00" xmlns="http://www.w3.org/2000/svg" xmlns:xlink="http://www.w3.org/1999/xlink">
<g id="graph0" class="graph" transform="scale(1 1) rotate(0) translate(4 822)">
<title>models_diagram</title>
<polygon fill="white" stroke="white" points="-4,4 -4,-822 503,-822 503,4 -4,4"/>
<!-- _diagram_info -->
<g id="node1" class="node"><title>_diagram_info</title>
<text text-anchor="start" x="7.55029" y="-801" font-family="Times,serif" font-size="13.00">Models diagram</text>
<text text-anchor="start" x="7.55029" y="-785.4" font-family="Times,serif" font-size="13.00">Date: Nov 05 2013 &#45; 15:05</text>
<text text-anchor="start" x="7.55029" y="-769.8" font-family="Times,serif" font-size="13.00">Migration version: 20131105192756</text>
<text text-anchor="start" x="7.55029" y="-754.2" font-family="Times,serif" font-size="13.00">Generated by RailRoady 1.1.1</text>
<text text-anchor="start" x="7.55029" y="-738.6" font-family="Times,serif" font-size="13.00">http://railroady.prestonlee.com</text>
</g>
<!-- Deck -->
<g id="node2" class="node"><title>Deck</title>
<path fill="none" stroke="black" d="M196.105,-0.4C196.105,-0.4 333.895,-0.4 333.895,-0.4 339.895,-0.4 345.895,-6.4 345.895,-12.4 345.895,-12.4 345.895,-155.6 345.895,-155.6 345.895,-161.6 339.895,-167.6 333.895,-167.6 333.895,-167.6 196.105,-167.6 196.105,-167.6 190.105,-167.6 184.105,-161.6 184.105,-155.6 184.105,-155.6 184.105,-12.4 184.105,-12.4 184.105,-6.4 190.105,-0.4 196.105,-0.4"/>
<text text-anchor="middle" x="265" y="-149.6" font-family="Times,serif" font-size="14.00">Deck</text>
<polyline fill="none" stroke="black" points="184.105,-142.8 345.895,-142.8 "/>
<text text-anchor="start" x="192.105" y="-124.8" font-family="Times,serif" font-size="14.00">id :integer</text>
<text text-anchor="start" x="192.105" y="-108" font-family="Times,serif" font-size="14.00">name :string</text>
<text text-anchor="start" x="192.105" y="-91.2" font-family="Times,serif" font-size="14.00">created_at :datetime</text>
<text text-anchor="start" x="192.105" y="-74.4" font-family="Times,serif" font-size="14.00">updated_at :datetime</text>
<text text-anchor="start" x="192.105" y="-57.6" font-family="Times,serif" font-size="14.00">user_id :integer</text>
<text text-anchor="start" x="192.105" y="-40.8" font-family="Times,serif" font-size="14.00">num_white_cards :integer</text>
<text text-anchor="start" x="192.105" y="-24" font-family="Times,serif" font-size="14.00">num_black_cards :integer</text>
<text text-anchor="start" x="192.105" y="-7.2" font-family="Times,serif" font-size="14.00">game_id :integer</text>
</g>
<!-- Game -->
<g id="node3" class="node"><title>Game</title>
<path fill="none" stroke="black" d="M305.105,-544.8C305.105,-544.8 414.895,-544.8 414.895,-544.8 420.895,-544.8 426.895,-550.8 426.895,-556.8 426.895,-556.8 426.895,-683.2 426.895,-683.2 426.895,-689.2 420.895,-695.2 414.895,-695.2 414.895,-695.2 305.105,-695.2 305.105,-695.2 299.105,-695.2 293.105,-689.2 293.105,-683.2 293.105,-683.2 293.105,-556.8 293.105,-556.8 293.105,-550.8 299.105,-544.8 305.105,-544.8"/>
<text text-anchor="middle" x="360" y="-677.2" font-family="Times,serif" font-size="14.00">Game</text>
<polyline fill="none" stroke="black" points="293.105,-670.4 426.895,-670.4 "/>
<text text-anchor="start" x="301.105" y="-652.4" font-family="Times,serif" font-size="14.00">id :integer</text>
<text text-anchor="start" x="301.105" y="-635.6" font-family="Times,serif" font-size="14.00">players :integer</text>
<text text-anchor="start" x="301.105" y="-618.8" font-family="Times,serif" font-size="14.00">created_at :datetime</text>
<text text-anchor="start" x="301.105" y="-602" font-family="Times,serif" font-size="14.00">updated_at :datetime</text>
<text text-anchor="start" x="301.105" y="-585.2" font-family="Times,serif" font-size="14.00">name :string</text>
<text text-anchor="start" x="301.105" y="-568.4" font-family="Times,serif" font-size="14.00">max_players :integer</text>
<text text-anchor="start" x="301.105" y="-551.6" font-family="Times,serif" font-size="14.00">finished :boolean</text>
</g>
<!-- Game&#45;&gt;Deck -->
<g id="edge2" class="edge"><title>Game&#45;&gt;Deck</title>
<path fill="none" stroke="#33be7b" d="M382.056,-536.872C400.942,-450.723 418.93,-312.963 376,-204 370.082,-188.978 361.274,-174.733 351.162,-161.666"/>
<ellipse fill="none" stroke="#33be7b" cx="381.16" cy="-540.883" rx="4.00001" ry="4.00001"/>
<ellipse fill="#33be7b" stroke="#33be7b" cx="348.601" cy="-158.47" rx="4.00002" ry="4.00002"/>
</g>
<!-- Hand -->
<g id="node4" class="node"><title>Hand</title>
<path fill="none" stroke="black" d="M378.495,-25.6C378.495,-25.6 487.505,-25.6 487.505,-25.6 493.505,-25.6 499.505,-31.6 499.505,-37.6 499.505,-37.6 499.505,-130.4 499.505,-130.4 499.505,-136.4 493.505,-142.4 487.505,-142.4 487.505,-142.4 378.495,-142.4 378.495,-142.4 372.495,-142.4 366.495,-136.4 366.495,-130.4 366.495,-130.4 366.495,-37.6 366.495,-37.6 366.495,-31.6 372.495,-25.6 378.495,-25.6"/>
<text text-anchor="middle" x="433" y="-124.4" font-family="Times,serif" font-size="14.00">Hand</text>
<polyline fill="none" stroke="black" points="366.495,-117.6 499.505,-117.6 "/>
<text text-anchor="start" x="374.495" y="-99.6" font-family="Times,serif" font-size="14.00">id :integer</text>
<text text-anchor="start" x="374.495" y="-82.8" font-family="Times,serif" font-size="14.00">created_at :datetime</text>
<text text-anchor="start" x="374.495" y="-66" font-family="Times,serif" font-size="14.00">updated_at :datetime</text>
<text text-anchor="start" x="374.495" y="-49.2" font-family="Times,serif" font-size="14.00">user_id :integer</text>
<text text-anchor="start" x="374.495" y="-32.4" font-family="Times,serif" font-size="14.00">game_id :integer</text>
</g>
<!-- Game&#45;&gt;Hand -->
<g id="edge4" class="edge"><title>Game&#45;&gt;Hand</title>
<path fill="none" stroke="#9dfd34" d="M400.657,-535.348C403.939,-526.271 406.823,-517.044 409,-508 438.494,-385.46 439.257,-237.448 436.537,-152.965"/>
<polygon fill="#9dfd34" stroke="#9dfd34" points="400.643,-535.386 392.896,-543.148 398.874,-540.063 397.105,-544.74 397.105,-544.74 397.105,-544.74 398.874,-540.063 401.315,-546.332 400.643,-535.386 400.643,-535.386"/>
<polygon fill="#9dfd34" stroke="#9dfd34" points="436.529,-152.726 440.678,-142.575 436.355,-147.729 436.181,-142.732 436.181,-142.732 436.181,-142.732 436.355,-147.729 431.683,-142.889 436.529,-152.726 436.529,-152.726"/>
</g>
<!-- User -->
<g id="node5" class="node"><title>User</title>
<path fill="none" stroke="black" d="M174.722,-205.2C174.722,-205.2 355.278,-205.2 355.278,-205.2 361.278,-205.2 367.278,-211.2 367.278,-217.2 367.278,-217.2 367.278,-494.8 367.278,-494.8 367.278,-500.8 361.278,-506.8 355.278,-506.8 355.278,-506.8 174.722,-506.8 174.722,-506.8 168.722,-506.8 162.722,-500.8 162.722,-494.8 162.722,-494.8 162.722,-217.2 162.722,-217.2 162.722,-211.2 168.722,-205.2 174.722,-205.2"/>
<text text-anchor="middle" x="265" y="-488.8" font-family="Times,serif" font-size="14.00">User</text>
<polyline fill="none" stroke="black" points="162.722,-482 367.278,-482 "/>
<text text-anchor="start" x="170.722" y="-464" font-family="Times,serif" font-size="14.00">id :integer</text>
<text text-anchor="start" x="170.722" y="-447.2" font-family="Times,serif" font-size="14.00">email :string</text>
<text text-anchor="start" x="170.722" y="-430.4" font-family="Times,serif" font-size="14.00">encrypted_password :string</text>
<text text-anchor="start" x="170.722" y="-413.6" font-family="Times,serif" font-size="14.00">reset_password_token :string</text>
<text text-anchor="start" x="170.722" y="-396.8" font-family="Times,serif" font-size="14.00">reset_password_sent_at :datetime</text>
<text text-anchor="start" x="170.722" y="-380" font-family="Times,serif" font-size="14.00">remember_created_at :datetime</text>
<text text-anchor="start" x="170.722" y="-363.2" font-family="Times,serif" font-size="14.00">sign_in_count :integer</text>
<text text-anchor="start" x="170.722" y="-346.4" font-family="Times,serif" font-size="14.00">current_sign_in_at :datetime</text>
<text text-anchor="start" x="170.722" y="-329.6" font-family="Times,serif" font-size="14.00">last_sign_in_at :datetime</text>
<text text-anchor="start" x="170.722" y="-312.8" font-family="Times,serif" font-size="14.00">current_sign_in_ip :string</text>
<text text-anchor="start" x="170.722" y="-296" font-family="Times,serif" font-size="14.00">last_sign_in_ip :string</text>
<text text-anchor="start" x="170.722" y="-279.2" font-family="Times,serif" font-size="14.00">created_at :datetime</text>
<text text-anchor="start" x="170.722" y="-262.4" font-family="Times,serif" font-size="14.00">updated_at :datetime</text>
<text text-anchor="start" x="170.722" y="-245.6" font-family="Times,serif" font-size="14.00">game_id :integer</text>
<text text-anchor="start" x="170.722" y="-228.8" font-family="Times,serif" font-size="14.00">wins :integer</text>
<text text-anchor="start" x="170.722" y="-212" font-family="Times,serif" font-size="14.00">points :integer</text>
</g>
<!-- Game&#45;&gt;User -->
<g id="edge3" class="edge"><title>Game&#45;&gt;User</title>
<path fill="none" stroke="#6b4c5e" d="M323.94,-536.96C321.405,-530.311 318.825,-523.465 316.231,-516.507"/>
<ellipse fill="none" stroke="#6b4c5e" cx="325.445" cy="-540.887" rx="4.00001" ry="4.00001"/>
<polygon fill="#6b4c5e" stroke="#6b4c5e" points="316.166,-516.332 316.906,-505.391 314.426,-511.644 312.687,-506.956 312.687,-506.956 312.687,-506.956 314.426,-511.644 308.468,-508.522 316.166,-516.332 316.166,-516.332"/>
</g>
<!-- User&#45;&gt;Deck -->
<g id="edge9" class="edge"><title>User&#45;&gt;Deck</title>
<path fill="none" stroke="#95ba3a" d="M265,-196.962C265,-190.568 265,-184.246 265,-178.054"/>
<ellipse fill="none" stroke="#95ba3a" cx="265" cy="-200.998" rx="4" ry="4"/>
<polygon fill="#95ba3a" stroke="#95ba3a" points="265,-177.768 269.5,-167.768 265,-172.768 265,-167.768 265,-167.768 265,-167.768 265,-172.768 260.5,-167.768 265,-177.768 265,-177.768"/>
</g>
<!-- User&#45;&gt;Game -->
<g id="edge8" class="edge"><title>User&#45;&gt;Game</title>
<path fill="none" stroke="#4e0c42" d="M329.522,-516.732C331.699,-522.912 333.822,-529.002 335.87,-534.943"/>
<polygon fill="#4e0c42" stroke="#4e0c42" points="329.398,-516.383 330.302,-505.454 327.729,-511.669 326.06,-506.956 326.06,-506.956 326.06,-506.956 327.729,-511.669 321.818,-508.458 329.398,-516.383 329.398,-516.383"/>
<polygon fill="#4e0c42" stroke="#4e0c42" points="335.945,-535.162 334.929,-546.08 337.566,-539.892 339.186,-544.622 339.186,-544.622 339.186,-544.622 337.566,-539.892 343.443,-543.164 335.945,-535.162 335.945,-535.162"/>
</g>
<!-- User&#45;&gt;Hand -->
<g id="edge7" class="edge"><title>User&#45;&gt;Hand</title>
<path fill="none" stroke="#518dd5" d="M362.694,-197.991C372.867,-181.643 382.764,-165.737 391.767,-151.267"/>
<ellipse fill="none" stroke="#518dd5" cx="360.448" cy="-201.602" rx="4.00002" ry="4.00002"/>
<polygon fill="#518dd5" stroke="#518dd5" points="391.969,-150.943 401.073,-144.83 394.61,-146.698 397.252,-142.452 397.252,-142.452 397.252,-142.452 394.61,-146.698 393.431,-140.075 391.969,-150.943 391.969,-150.943"/>
</g>
<!-- ActiveRecord::Base -->
<g id="node6" class="node"><title>ActiveRecord::Base</title>
<ellipse fill="none" stroke="black" cx="313" cy="-775" rx="88.2033" ry="18"/>
<text text-anchor="middle" x="313" y="-769.4" font-family="Times,serif" font-size="14.00">ActiveRecord::Base</text>
</g>
<!-- ActiveRecord::Base&#45;&gt;Deck -->
<g id="edge1" class="edge"><title>ActiveRecord::Base&#45;&gt;Deck</title>
<path fill="none" stroke="black" d="M298.249,-757.208C264.406,-717.397 181.945,-612.747 154,-508 119.172,-377.455 104.473,-329.706 154,-204 160.241,-188.159 169.696,-173.181 180.504,-159.538"/>
<polyline fill="none" stroke="black" points="183.9,-155.348 180.752,-159.232 "/>
</g>
<!-- ActiveRecord::Base&#45;&gt;Game -->
<g id="edge5" class="edge"><title>ActiveRecord::Base&#45;&gt;Game</title>
<path fill="none" stroke="black" d="M318.3,-756.746C322.63,-742.651 329.084,-721.642 335.628,-700.338"/>
<polyline fill="none" stroke="black" points="337.114,-695.502 335.645,-700.282 "/>
</g>
<!-- ActiveRecord::Base&#45;&gt;Hand -->
<g id="edge6" class="edge"><title>ActiveRecord::Base&#45;&gt;Hand</title>
<path fill="none" stroke="black" d="M355.537,-759.165C383.543,-746.929 418.054,-726.56 435,-696 533.587,-518.207 483.441,-264.18 452.003,-147.707"/>
<polyline fill="none" stroke="black" points="450.614,-142.604 451.927,-147.429 "/>
</g>
<!-- ActiveRecord::Base&#45;&gt;User -->
<g id="edge10" class="edge"><title>ActiveRecord::Base&#45;&gt;User</title>
<path fill="none" stroke="black" d="M304.89,-756.788C297.996,-741.272 288.521,-717.637 284,-696 271.625,-636.769 266.119,-570.533 263.963,-512.432"/>
<polyline fill="none" stroke="black" points="263.777,-507.194 263.955,-512.191 "/>
</g>
</g>
</svg>
