<?xml version="1.0" encoding="UTF-8" standalone="no"?>
<!DOCTYPE svg PUBLIC "-//W3C//DTD SVG 1.1//EN"
 "http://www.w3.org/Graphics/SVG/1.1/DTD/svg11.dtd">
<!-- Generated by graphviz version 2.34.0 (20131105.2002)
 -->
<!-- Title: models_diagram Pages: 1 -->
<svg width="645pt" height="1048pt"
 viewBox="0.00 0.00 644.89 1048.00" xmlns="http://www.w3.org/2000/svg" xmlns:xlink="http://www.w3.org/1999/xlink">
<g id="graph0" class="graph" transform="scale(1 1) rotate(0) translate(4 1044)">
<title>models_diagram</title>
<polygon fill="white" stroke="white" points="-4,4 -4,-1044 640.892,-1044 640.892,4 -4,4"/>
<!-- _diagram_info -->
<g id="node1" class="node"><title>_diagram_info</title>
<text text-anchor="start" x="68.7422" y="-1023" font-family="Times,serif" font-size="13.00">Models diagram</text>
<text text-anchor="start" x="68.7422" y="-1007.4" font-family="Times,serif" font-size="13.00">Date: Jan 08 2014 &#45; 23:00</text>
<text text-anchor="start" x="68.7422" y="-991.8" font-family="Times,serif" font-size="13.00">Migration version: 20140106031803</text>
<text text-anchor="start" x="68.7422" y="-976.2" font-family="Times,serif" font-size="13.00">Generated by RailRoady 1.1.1</text>
<text text-anchor="start" x="68.7422" y="-960.6" font-family="Times,serif" font-size="13.00">http://railroady.prestonlee.com</text>
</g>
<!-- BlackCard -->
<g id="node2" class="node"><title>BlackCard</title>
<path fill="none" stroke="black" d="M68.9245,-0.8C68.9245,-0.8 177.935,-0.8 177.935,-0.8 183.935,-0.8 189.935,-6.8 189.935,-12.8 189.935,-12.8 189.935,-139.2 189.935,-139.2 189.935,-145.2 183.935,-151.2 177.935,-151.2 177.935,-151.2 68.9245,-151.2 68.9245,-151.2 62.9245,-151.2 56.9245,-145.2 56.9245,-139.2 56.9245,-139.2 56.9245,-12.8 56.9245,-12.8 56.9245,-6.8 62.9245,-0.8 68.9245,-0.8"/>
<text text-anchor="middle" x="123.43" y="-133.2" font-family="Times,serif" font-size="14.00">BlackCard</text>
<polyline fill="none" stroke="black" points="56.9245,-126.4 189.935,-126.4 "/>
<text text-anchor="start" x="64.9245" y="-108.4" font-family="Times,serif" font-size="14.00">id :integer</text>
<text text-anchor="start" x="64.9245" y="-91.6" font-family="Times,serif" font-size="14.00">created_at :datetime</text>
<text text-anchor="start" x="64.9245" y="-74.8" font-family="Times,serif" font-size="14.00">updated_at :datetime</text>
<text text-anchor="start" x="64.9245" y="-58" font-family="Times,serif" font-size="14.00">num_blanks :integer</text>
<text text-anchor="start" x="64.9245" y="-41.2" font-family="Times,serif" font-size="14.00">content :string</text>
<text text-anchor="start" x="64.9245" y="-24.4" font-family="Times,serif" font-size="14.00">deck_id :integer</text>
<text text-anchor="start" x="64.9245" y="-7.6" font-family="Times,serif" font-size="14.00">game_id :integer</text>
</g>
<!-- Deck -->
<g id="node3" class="node"><title>Deck</title>
<path fill="none" stroke="black" d="M163.925,-205.6C163.925,-205.6 272.935,-205.6 272.935,-205.6 278.935,-205.6 284.935,-211.6 284.935,-217.6 284.935,-217.6 284.935,-310.4 284.935,-310.4 284.935,-316.4 278.935,-322.4 272.935,-322.4 272.935,-322.4 163.925,-322.4 163.925,-322.4 157.925,-322.4 151.925,-316.4 151.925,-310.4 151.925,-310.4 151.925,-217.6 151.925,-217.6 151.925,-211.6 157.925,-205.6 163.925,-205.6"/>
<text text-anchor="middle" x="218.43" y="-304.4" font-family="Times,serif" font-size="14.00">Deck</text>
<polyline fill="none" stroke="black" points="151.925,-297.6 284.935,-297.6 "/>
<text text-anchor="start" x="159.925" y="-279.6" font-family="Times,serif" font-size="14.00">id :integer</text>
<text text-anchor="start" x="159.925" y="-262.8" font-family="Times,serif" font-size="14.00">name :string</text>
<text text-anchor="start" x="159.925" y="-246" font-family="Times,serif" font-size="14.00">created_at :datetime</text>
<text text-anchor="start" x="159.925" y="-229.2" font-family="Times,serif" font-size="14.00">updated_at :datetime</text>
<text text-anchor="start" x="159.925" y="-212.4" font-family="Times,serif" font-size="14.00">game_id :integer</text>
</g>
<!-- Deck&#45;&gt;BlackCard -->
<g id="edge3" class="edge"><title>Deck&#45;&gt;BlackCard</title>
<path fill="none" stroke="#9aa205" d="M185.291,-198.117C179.095,-185.987 172.54,-173.153 166.104,-160.552"/>
<ellipse fill="none" stroke="#9aa205" cx="187.202" cy="-201.86" rx="4.00002" ry="4.00002"/>
<polygon fill="#9aa205" stroke="#9aa205" points="165.994,-160.337 165.453,-149.384 163.72,-155.884 161.446,-151.431 161.446,-151.431 161.446,-151.431 163.72,-155.884 157.438,-153.478 165.994,-160.337 165.994,-160.337"/>
</g>
<!-- WhiteCard -->
<g id="node8" class="node"><title>WhiteCard</title>
<path fill="none" stroke="black" d="M326.925,-0.8C326.925,-0.8 435.935,-0.8 435.935,-0.8 441.935,-0.8 447.935,-6.8 447.935,-12.8 447.935,-12.8 447.935,-139.2 447.935,-139.2 447.935,-145.2 441.935,-151.2 435.935,-151.2 435.935,-151.2 326.925,-151.2 326.925,-151.2 320.925,-151.2 314.925,-145.2 314.925,-139.2 314.925,-139.2 314.925,-12.8 314.925,-12.8 314.925,-6.8 320.925,-0.8 326.925,-0.8"/>
<text text-anchor="middle" x="381.43" y="-133.2" font-family="Times,serif" font-size="14.00">WhiteCard</text>
<polyline fill="none" stroke="black" points="314.925,-126.4 447.935,-126.4 "/>
<text text-anchor="start" x="322.925" y="-108.4" font-family="Times,serif" font-size="14.00">id :integer</text>
<text text-anchor="start" x="322.925" y="-91.6" font-family="Times,serif" font-size="14.00">created_at :datetime</text>
<text text-anchor="start" x="322.925" y="-74.8" font-family="Times,serif" font-size="14.00">updated_at :datetime</text>
<text text-anchor="start" x="322.925" y="-58" font-family="Times,serif" font-size="14.00">content :string</text>
<text text-anchor="start" x="322.925" y="-41.2" font-family="Times,serif" font-size="14.00">deck_id :integer</text>
<text text-anchor="start" x="322.925" y="-24.4" font-family="Times,serif" font-size="14.00">hand_id :integer</text>
<text text-anchor="start" x="322.925" y="-7.6" font-family="Times,serif" font-size="14.00">user_id :integer</text>
</g>
<!-- Deck&#45;&gt;WhiteCard -->
<g id="edge2" class="edge"><title>Deck&#45;&gt;WhiteCard</title>
<path fill="none" stroke="#ef209c" d="M274.211,-199.348C285.509,-186.455 297.543,-172.724 309.311,-159.295"/>
<ellipse fill="none" stroke="#ef209c" cx="271.524" cy="-202.414" rx="4.00002" ry="4.00002"/>
<polygon fill="#ef209c" stroke="#ef209c" points="309.612,-158.952 319.587,-154.397 312.907,-155.191 316.203,-151.431 316.203,-151.431 316.203,-151.431 312.907,-155.191 312.818,-148.465 309.612,-158.952 309.612,-158.952"/>
</g>
<!-- Game -->
<g id="node4" class="node"><title>Game</title>
<path fill="none" stroke="black" d="M188.866,-699.2C188.866,-699.2 321.994,-699.2 321.994,-699.2 327.994,-699.2 333.994,-705.2 333.994,-711.2 333.994,-711.2 333.994,-904.8 333.994,-904.8 333.994,-910.8 327.994,-916.8 321.994,-916.8 321.994,-916.8 188.866,-916.8 188.866,-916.8 182.866,-916.8 176.866,-910.8 176.866,-904.8 176.866,-904.8 176.866,-711.2 176.866,-711.2 176.866,-705.2 182.866,-699.2 188.866,-699.2"/>
<text text-anchor="middle" x="255.43" y="-898.8" font-family="Times,serif" font-size="14.00">Game</text>
<polyline fill="none" stroke="black" points="176.866,-892 333.994,-892 "/>
<text text-anchor="start" x="184.866" y="-874" font-family="Times,serif" font-size="14.00">id :integer</text>
<text text-anchor="start" x="184.866" y="-857.2" font-family="Times,serif" font-size="14.00">players :integer</text>
<text text-anchor="start" x="184.866" y="-840.4" font-family="Times,serif" font-size="14.00">created_at :datetime</text>
<text text-anchor="start" x="184.866" y="-823.6" font-family="Times,serif" font-size="14.00">updated_at :datetime</text>
<text text-anchor="start" x="184.866" y="-806.8" font-family="Times,serif" font-size="14.00">name :string</text>
<text text-anchor="start" x="184.866" y="-790" font-family="Times,serif" font-size="14.00">max_players :integer</text>
<text text-anchor="start" x="184.866" y="-773.2" font-family="Times,serif" font-size="14.00">finished :boolean</text>
<text text-anchor="start" x="184.866" y="-756.4" font-family="Times,serif" font-size="14.00">original_deck_id :integer</text>
<text text-anchor="start" x="184.866" y="-739.6" font-family="Times,serif" font-size="14.00">czar_id :integer</text>
<text text-anchor="start" x="184.866" y="-722.8" font-family="Times,serif" font-size="14.00">max_score :integer</text>
<text text-anchor="start" x="184.866" y="-706" font-family="Times,serif" font-size="14.00">winning_card_id :integer</text>
</g>
<!-- Game&#45;&gt;BlackCard -->
<g id="edge5" class="edge"><title>Game&#45;&gt;BlackCard</title>
<path fill="none" stroke="#12af40" d="M222.065,-691.192C219.414,-681.336 216.835,-671.506 214.43,-662 178.466,-519.833 163.772,-485.084 142.43,-340 133.592,-279.92 128.812,-211.486 126.257,-159.489"/>
<ellipse fill="none" stroke="#12af40" cx="223.16" cy="-695.236" rx="4.00001" ry="4.00001"/>
<ellipse fill="#12af40" stroke="#12af40" cx="126.056" cy="-155.284" rx="4" ry="4"/>
</g>
<!-- Game&#45;&gt;Deck -->
<g id="edge6" class="edge"><title>Game&#45;&gt;Deck</title>
<path fill="none" stroke="#487aa4" d="M233.939,-690.944C232.581,-681.176 231.381,-671.432 230.43,-662 218.735,-545.993 217.254,-410.035 217.596,-331.091"/>
<ellipse fill="none" stroke="#487aa4" cx="234.547" cy="-695.189" rx="4.00001" ry="4.00001"/>
<ellipse fill="#487aa4" stroke="#487aa4" cx="217.619" cy="-326.692" rx="4" ry="4"/>
</g>
<!-- Hand -->
<g id="node5" class="node"><title>Hand</title>
<path fill="none" stroke="black" d="M315.242,-188.8C315.242,-188.8 447.618,-188.8 447.618,-188.8 453.618,-188.8 459.618,-194.8 459.618,-200.8 459.618,-200.8 459.618,-327.2 459.618,-327.2 459.618,-333.2 453.618,-339.2 447.618,-339.2 447.618,-339.2 315.242,-339.2 315.242,-339.2 309.242,-339.2 303.242,-333.2 303.242,-327.2 303.242,-327.2 303.242,-200.8 303.242,-200.8 303.242,-194.8 309.242,-188.8 315.242,-188.8"/>
<text text-anchor="middle" x="381.43" y="-321.2" font-family="Times,serif" font-size="14.00">Hand</text>
<polyline fill="none" stroke="black" points="303.242,-314.4 459.618,-314.4 "/>
<text text-anchor="start" x="311.242" y="-296.4" font-family="Times,serif" font-size="14.00">id :integer</text>
<text text-anchor="start" x="311.242" y="-279.6" font-family="Times,serif" font-size="14.00">created_at :datetime</text>
<text text-anchor="start" x="311.242" y="-262.8" font-family="Times,serif" font-size="14.00">updated_at :datetime</text>
<text text-anchor="start" x="311.242" y="-246" font-family="Times,serif" font-size="14.00">user_id :integer</text>
<text text-anchor="start" x="311.242" y="-229.2" font-family="Times,serif" font-size="14.00">game_id :integer</text>
<text text-anchor="start" x="311.242" y="-212.4" font-family="Times,serif" font-size="14.00">score :integer</text>
<text text-anchor="start" x="311.242" y="-195.6" font-family="Times,serif" font-size="14.00">submissions_left :integer</text>
</g>
<!-- Game&#45;&gt;Hand -->
<g id="edge7" class="edge"><title>Game&#45;&gt;Hand</title>
<path fill="none" stroke="#ce55c2" d="M247.584,-690.978C242.06,-582.816 239.371,-430.274 263.43,-376 265.786,-370.685 278.931,-357.223 295.649,-341.431"/>
<ellipse fill="none" stroke="#ce55c2" cx="247.795" cy="-695.018" rx="4" ry="4"/>
<polygon fill="#ce55c2" stroke="#ce55c2" points="295.712,-341.373 306.087,-337.823 299.362,-337.955 303.012,-334.538 303.012,-334.538 303.012,-334.538 299.362,-337.955 299.936,-331.253 295.712,-341.373 295.712,-341.373"/>
</g>
<!-- Submission -->
<g id="node6" class="node"><title>Submission</title>
<path fill="none" stroke="black" d="M489.925,-197.2C489.925,-197.2 598.935,-197.2 598.935,-197.2 604.935,-197.2 610.935,-203.2 610.935,-209.2 610.935,-209.2 610.935,-318.8 610.935,-318.8 610.935,-324.8 604.935,-330.8 598.935,-330.8 598.935,-330.8 489.925,-330.8 489.925,-330.8 483.925,-330.8 477.925,-324.8 477.925,-318.8 477.925,-318.8 477.925,-209.2 477.925,-209.2 477.925,-203.2 483.925,-197.2 489.925,-197.2"/>
<text text-anchor="middle" x="544.43" y="-312.8" font-family="Times,serif" font-size="14.00">Submission</text>
<polyline fill="none" stroke="black" points="477.925,-306 610.935,-306 "/>
<text text-anchor="start" x="485.925" y="-288" font-family="Times,serif" font-size="14.00">id :integer</text>
<text text-anchor="start" x="485.925" y="-271.2" font-family="Times,serif" font-size="14.00">user_id :integer</text>
<text text-anchor="start" x="485.925" y="-254.4" font-family="Times,serif" font-size="14.00">game_id :integer</text>
<text text-anchor="start" x="485.925" y="-237.6" font-family="Times,serif" font-size="14.00">content :string</text>
<text text-anchor="start" x="485.925" y="-220.8" font-family="Times,serif" font-size="14.00">created_at :datetime</text>
<text text-anchor="start" x="485.925" y="-204" font-family="Times,serif" font-size="14.00">updated_at :datetime</text>
</g>
<!-- Game&#45;&gt;Submission -->
<g id="edge9" class="edge"><title>Game&#45;&gt;Submission</title>
<path fill="none" stroke="#d3df32" d="M341.346,-774.508C391.516,-750.981 451.451,-714.099 485.43,-662 548.802,-564.833 554.702,-426.147 551.079,-341.037"/>
<ellipse fill="none" stroke="#d3df32" cx="337.653" cy="-776.209" rx="4.00002" ry="4.00002"/>
<polygon fill="#d3df32" stroke="#d3df32" points="551.073,-340.918 555.088,-330.714 550.833,-335.924 550.593,-330.93 550.593,-330.93 550.593,-330.93 550.833,-335.924 546.098,-331.146 551.073,-340.918 551.073,-340.918"/>
</g>
<!-- User -->
<g id="node7" class="node"><title>User</title>
<path fill="none" stroke="black" d="M284.152,-376.6C284.152,-376.6 464.708,-376.6 464.708,-376.6 470.708,-376.6 476.708,-382.6 476.708,-388.6 476.708,-388.6 476.708,-649.4 476.708,-649.4 476.708,-655.4 470.708,-661.4 464.708,-661.4 464.708,-661.4 284.152,-661.4 284.152,-661.4 278.152,-661.4 272.152,-655.4 272.152,-649.4 272.152,-649.4 272.152,-388.6 272.152,-388.6 272.152,-382.6 278.152,-376.6 284.152,-376.6"/>
<text text-anchor="middle" x="374.43" y="-643.4" font-family="Times,serif" font-size="14.00">User</text>
<polyline fill="none" stroke="black" points="272.152,-636.6 476.708,-636.6 "/>
<text text-anchor="start" x="280.152" y="-618.6" font-family="Times,serif" font-size="14.00">id :integer</text>
<text text-anchor="start" x="280.152" y="-601.8" font-family="Times,serif" font-size="14.00">email :string</text>
<text text-anchor="start" x="280.152" y="-585" font-family="Times,serif" font-size="14.00">encrypted_password :string</text>
<text text-anchor="start" x="280.152" y="-568.2" font-family="Times,serif" font-size="14.00">reset_password_token :string</text>
<text text-anchor="start" x="280.152" y="-551.4" font-family="Times,serif" font-size="14.00">reset_password_sent_at :datetime</text>
<text text-anchor="start" x="280.152" y="-534.6" font-family="Times,serif" font-size="14.00">remember_created_at :datetime</text>
<text text-anchor="start" x="280.152" y="-517.8" font-family="Times,serif" font-size="14.00">sign_in_count :integer</text>
<text text-anchor="start" x="280.152" y="-501" font-family="Times,serif" font-size="14.00">current_sign_in_at :datetime</text>
<text text-anchor="start" x="280.152" y="-484.2" font-family="Times,serif" font-size="14.00">last_sign_in_at :datetime</text>
<text text-anchor="start" x="280.152" y="-467.4" font-family="Times,serif" font-size="14.00">current_sign_in_ip :string</text>
<text text-anchor="start" x="280.152" y="-450.6" font-family="Times,serif" font-size="14.00">last_sign_in_ip :string</text>
<text text-anchor="start" x="280.152" y="-433.8" font-family="Times,serif" font-size="14.00">created_at :datetime</text>
<text text-anchor="start" x="280.152" y="-417" font-family="Times,serif" font-size="14.00">updated_at :datetime</text>
<text text-anchor="start" x="280.152" y="-400.2" font-family="Times,serif" font-size="14.00">game_id :integer</text>
<text text-anchor="start" x="280.152" y="-383.4" font-family="Times,serif" font-size="14.00">wins :integer</text>
</g>
<!-- Game&#45;&gt;User -->
<g id="edge8" class="edge"><title>Game&#45;&gt;User</title>
<path fill="none" stroke="#2fe112" d="M304.08,-689.668C306.67,-683.422 309.287,-677.108 311.913,-670.775"/>
<polygon fill="#2fe112" stroke="#2fe112" points="304.079,-689.669 296.092,-697.183 302.164,-694.288 300.249,-698.907 300.249,-698.907 300.249,-698.907 302.164,-694.288 304.406,-700.63 304.079,-689.669 304.079,-689.669"/>
<polygon fill="#2fe112" stroke="#2fe112" points="311.933,-670.727 319.921,-663.213 313.849,-666.108 315.764,-661.489 315.764,-661.489 315.764,-661.489 313.849,-666.108 311.607,-659.766 311.933,-670.727 311.933,-670.727"/>
</g>
<!-- Hand&#45;&gt;WhiteCard -->
<g id="edge11" class="edge"><title>Hand&#45;&gt;WhiteCard</title>
<path fill="none" stroke="#54e4cb" d="M381.43,-180.596C381.43,-174.391 381.43,-168.122 381.43,-161.902"/>
<ellipse fill="none" stroke="#54e4cb" cx="381.43" cy="-184.686" rx="4" ry="4"/>
<polygon fill="#54e4cb" stroke="#54e4cb" points="381.43,-161.5 385.93,-151.499 381.43,-156.5 381.43,-151.5 381.43,-151.5 381.43,-151.5 381.43,-156.5 376.93,-151.5 381.43,-161.5 381.43,-161.5"/>
</g>
<!-- User&#45;&gt;Deck -->
<g id="edge15" class="edge"><title>User&#45;&gt;Deck</title>
<path fill="none" stroke="#135697" d="M282.71,-369.249C274.536,-355.993 266.57,-343.073 259.186,-331.098"/>
<ellipse fill="none" stroke="#135697" cx="284.981" cy="-372.933" rx="4.00002" ry="4.00002"/>
<polygon fill="#135697" stroke="#135697" points="259.166,-331.065 257.748,-320.191 256.541,-326.809 253.917,-322.553 253.917,-322.553 253.917,-322.553 256.541,-326.809 250.087,-324.915 259.166,-331.065 259.166,-331.065"/>
</g>
<!-- User&#45;&gt;Hand -->
<g id="edge14" class="edge"><title>User&#45;&gt;Hand</title>
<path fill="none" stroke="#6682d6" d="M378.572,-368.296C378.749,-361.903 378.923,-355.592 379.094,-349.43"/>
<ellipse fill="none" stroke="#6682d6" cx="378.46" cy="-372.339" rx="4" ry="4"/>
<polygon fill="#6682d6" stroke="#6682d6" points="379.1,-349.212 383.875,-339.34 379.238,-344.214 379.377,-339.216 379.377,-339.216 379.377,-339.216 379.238,-344.214 374.878,-339.091 379.1,-349.212 379.1,-349.212"/>
</g>
<!-- User&#45;&gt;Submission -->
<g id="edge16" class="edge"><title>User&#45;&gt;Submission</title>
<path fill="none" stroke="#18c05f" d="M474.085,-369.69C481.095,-359.257 487.969,-349.027 494.507,-339.297"/>
<ellipse fill="none" stroke="#18c05f" cx="471.849" cy="-373.018" rx="4.00002" ry="4.00002"/>
<polygon fill="#18c05f" stroke="#18c05f" points="494.584,-339.182 503.897,-333.392 497.373,-335.032 500.161,-330.882 500.161,-330.882 500.161,-330.882 497.373,-335.032 496.426,-328.372 494.584,-339.182 494.584,-339.182"/>
</g>
<!-- ActiveRecord::Base -->
<g id="node9" class="node"><title>ActiveRecord::Base</title>
<ellipse fill="none" stroke="black" cx="374.43" cy="-997" rx="88.2033" ry="18"/>
<text text-anchor="middle" x="374.43" y="-991.4" font-family="Times,serif" font-size="14.00">ActiveRecord::Base</text>
</g>
<!-- ActiveRecord::Base&#45;&gt;BlackCard -->
<g id="edge1" class="edge"><title>ActiveRecord::Base&#45;&gt;BlackCard</title>
<path fill="none" stroke="black" d="M341.949,-980.093C323.163,-971.401 298.869,-961.009 276.43,-954 199.804,-930.064 150.224,-980.165 99.4299,-918 -82.233,-695.669 29.2215,-318.95 90.7699,-156.001"/>
<polyline fill="none" stroke="black" points="92.576,-151.243 90.8016,-155.918 "/>
</g>
<!-- ActiveRecord::Base&#45;&gt;Deck -->
<g id="edge4" class="edge"><title>ActiveRecord::Base&#45;&gt;Deck</title>
<path fill="none" stroke="black" d="M339.802,-980.298C321.178,-972.073 297.723,-962.062 276.43,-954 228.717,-935.935 197.318,-959.347 167.43,-918 37.3685,-738.072 135.355,-452.778 189.195,-327.487"/>
<polyline fill="none" stroke="black" points="191.249,-322.734 189.265,-327.323 "/>
</g>
<!-- ActiveRecord::Base&#45;&gt;Game -->
<g id="edge10" class="edge"><title>ActiveRecord::Base&#45;&gt;Game</title>
<path fill="none" stroke="black" d="M363.66,-979.075C354.773,-965.11 341.316,-943.964 326.881,-921.281"/>
<polyline fill="none" stroke="black" points="324.175,-917.029 326.86,-921.247 "/>
</g>
<!-- ActiveRecord::Base&#45;&gt;Hand -->
<g id="edge12" class="edge"><title>ActiveRecord::Base&#45;&gt;Hand</title>
<path fill="none" stroke="black" d="M383.956,-979.054C424.313,-904.925 575.069,-602.778 485.43,-376 480.023,-362.32 472.044,-349.338 462.87,-337.398"/>
<polyline fill="none" stroke="black" points="459.715,-333.389 462.808,-337.318 "/>
</g>
<!-- ActiveRecord::Base&#45;&gt;Submission -->
<g id="edge13" class="edge"><title>ActiveRecord::Base&#45;&gt;Submission</title>
<path fill="none" stroke="black" d="M402.668,-979.932C423.965,-966.27 452.051,-944.647 467.43,-918 575.632,-730.524 565.787,-462.51 553.408,-336.127"/>
<polyline fill="none" stroke="black" points="552.892,-330.954 553.388,-335.929 "/>
</g>
<!-- ActiveRecord::Base&#45;&gt;User -->
<g id="edge17" class="edge"><title>ActiveRecord::Base&#45;&gt;User</title>
<path fill="none" stroke="black" d="M374.43,-978.778C374.43,-929.015 374.43,-781.287 374.43,-666.767"/>
<polyline fill="none" stroke="black" points="374.43,-661.682 374.43,-666.682 "/>
</g>
<!-- ActiveRecord::Base&#45;&gt;WhiteCard -->
<g id="edge18" class="edge"><title>ActiveRecord::Base&#45;&gt;WhiteCard</title>
<path fill="none" stroke="black" d="M422.818,-981.816C454.824,-969.921 495.055,-949.69 518.43,-918 546.304,-880.209 618.483,-352.265 619.43,-340 624.628,-272.645 655.726,-244.977 619.43,-188 583.109,-130.984 509.02,-102.778 453.098,-89.1355"/>
<polyline fill="none" stroke="black" points="448.086,-87.9397 452.949,-89.1001 "/>
</g>
</g>
</svg>
